<svg width="170" height="52" viewBox="0 0 170 52" fill="none" xmlns="http://www.w3.org/2000/svg">
<path d="M38.5379 41.5818C35.4535 44.6819 31.521 46.7949 27.2383 47.6532C22.9555 48.5115 18.5151 48.0766 14.479 46.4034C10.4429 44.7303 6.99275 41.8941 4.56517 38.254C2.1376 34.614 0.841797 30.3336 0.841797 25.9548C0.841797 21.576 2.1376 17.2957 4.56517 13.6556C6.99275 10.0155 10.4429 7.17937 14.479 5.50622C18.5151 3.83306 22.9555 3.3981 27.2383 4.25641C31.521 5.11471 35.4535 7.22768 38.5379 10.3278L23.1871 19.2881V32.6187L38.5379 41.5818Z" fill="#002444"/>
<path d="M61.0688 3.83814V48.0681C61.0687 48.742 60.8914 49.4039 60.5548 49.9872C60.2182 50.5704 59.7341 51.0544 59.1514 51.3903C58.5688 51.7262 57.9081 51.9021 57.236 51.9004C56.5638 51.8987 55.9041 51.7193 55.3231 51.3804L38.5381 41.5815C42.6644 37.433 44.9816 31.8133 44.9816 25.9545C44.9816 20.0958 42.6644 14.4761 38.5381 10.3276L55.3231 0.525891C55.9041 0.186981 56.5638 0.00761351 57.236 0.00587218C57.9081 0.00413085 58.5688 0.180077 59.1514 0.515973C59.7341 0.851869 60.2182 1.33584 60.5548 1.9191C60.8914 2.50236 61.0687 3.16428 61.0688 3.83814Z" fill="#00CEDE"/>
<path d="M23.1874 14.543H23.1846C16.8986 14.543 11.8027 19.652 11.8027 25.9543V25.9572C11.8027 32.2595 16.8986 37.3685 23.1846 37.3685H23.1874C29.4734 37.3685 34.5692 32.2595 34.5692 25.9572V25.9543C34.5692 19.652 29.4734 14.543 23.1874 14.543Z" fill="#00CEDE"/>
<path d="M80.8281 33.8212C80.0576 33.8364 79.2923 33.6915 78.5799 33.3956C77.8676 33.0997 77.2236 32.6592 76.6882 32.1015C75.6055 30.9789 75 29.4763 75 27.9121C75 26.348 75.6055 24.8453 76.6882 23.7228C77.2235 23.165 77.8675 22.7243 78.5798 22.4284C79.2922 22.1324 80.0576 21.9877 80.8281 22.0031C81.888 21.9917 82.9295 22.2814 83.8331 22.8389C84.7183 23.3793 85.4404 24.1522 85.9219 25.0745L83.7681 26.1924C83.4778 25.6705 83.0556 25.235 82.5443 24.9301C82.0236 24.6062 81.4231 24.4358 80.811 24.4382C80.3643 24.4305 79.9208 24.5164 79.5088 24.6905C79.0968 24.8646 78.7253 25.1231 78.418 25.4495C77.7902 26.1111 77.4399 26.9906 77.4399 27.9053C77.4399 28.82 77.7902 29.6995 78.418 30.3611C78.7253 30.6874 79.0968 30.9459 79.5088 31.12C79.9208 31.2941 80.3643 31.38 80.811 31.3723C81.4303 31.3787 82.0389 31.2107 82.5682 30.8873C83.0868 30.5741 83.5083 30.1214 83.7852 29.5803L85.9561 30.6982C85.4749 31.6321 84.7491 32.416 83.857 32.9648C82.9494 33.5355 81.8983 33.8327 80.8281 33.8212V33.8212Z" fill="#002444"/>
<path d="M86.2158 33.657L90.8207 22.1553H93.3539L98.0066 33.657H95.3606L94.6256 31.7687H89.5797L88.8618 33.657H86.2158ZM90.3489 29.5674H93.8599L92.1129 24.931H92.0924L90.3489 29.5674Z" fill="#002444"/>
<path d="M108.228 33.6571H105.599L103.64 29.6328H101.5V33.6571H99.1309V22.1553H104.095C105.101 22.1324 106.078 22.4937 106.83 23.1665C107.208 23.5093 107.506 23.9324 107.703 24.4053C107.899 24.8782 107.988 25.3891 107.965 25.901C107.988 26.6313 107.789 27.3514 107.394 27.9647C107.02 28.535 106.494 28.9879 105.876 29.2717L108.228 33.6571ZM101.5 24.2775V27.5622H103.852C104.305 27.5788 104.747 27.4158 105.083 27.1082C105.239 26.9575 105.362 26.7749 105.444 26.5728C105.525 26.3706 105.563 26.1533 105.554 25.9354C105.563 25.7133 105.526 25.4918 105.444 25.2851C105.363 25.0785 105.24 24.8911 105.083 24.735C104.916 24.5797 104.721 24.4592 104.508 24.3807C104.295 24.3021 104.068 24.2671 103.842 24.2775H101.5Z" fill="#002444"/>
<path d="M109.551 33.6564V22.1547H113.974C114.959 22.1434 115.932 22.3649 116.815 22.8013C117.69 23.2474 118.42 23.9345 118.921 24.7825C119.48 25.7242 119.763 26.8056 119.738 27.9021C119.749 28.7445 119.588 29.5802 119.266 30.3579C118.981 31.0524 118.548 31.6757 117.998 32.1843C117.464 32.6648 116.843 33.0384 116.169 33.285C115.466 33.5429 114.723 33.6733 113.974 33.6702L109.551 33.6564ZM111.944 31.2901H113.868C114.778 31.3293 115.668 31.0237 116.364 30.4336C117.009 29.8604 117.333 29.0142 117.335 27.8953C117.335 26.7809 117.01 25.9347 116.364 25.3672C115.669 24.7792 114.78 24.4737 113.872 24.5108L111.947 24.528L111.944 31.2901Z" fill="#002444"/>
<path d="M123.643 33.657V24.2775H119.934V22.1553H129.748V24.2775H126.043V33.657H123.643Z" fill="#002444"/>
<path d="M135.789 33.8217C135.019 33.8369 134.253 33.692 133.541 33.3961C132.829 33.1002 132.185 32.6596 131.649 32.1019C130.566 30.9794 129.961 29.4768 129.961 27.9126C129.961 26.3485 130.566 24.8458 131.649 23.7233C132.191 23.177 132.835 22.7436 133.544 22.4479C134.253 22.1522 135.013 22 135.781 22C136.548 22 137.308 22.1522 138.017 22.4479C138.726 22.7436 139.37 23.177 139.912 23.7233C140.997 24.8445 141.604 26.3477 141.604 27.9126C141.604 29.4776 140.997 30.9807 139.912 32.1019C139.38 32.6592 138.739 33.0996 138.029 33.3956C137.32 33.6915 136.557 33.8366 135.789 33.8217ZM135.789 31.4553C136.245 31.4648 136.698 31.3779 137.118 31.2001C137.539 31.0224 137.918 30.7578 138.23 30.4235C138.865 29.7394 139.218 28.8383 139.218 27.9023C139.218 26.9663 138.865 26.0652 138.23 25.3811C137.912 25.0572 137.533 24.8 137.116 24.6244C136.698 24.4489 136.25 24.3585 135.798 24.3585C135.345 24.3585 134.897 24.4489 134.48 24.6244C134.062 24.8 133.683 25.0572 133.365 25.3811C132.73 26.0652 132.377 26.9663 132.377 27.9023C132.377 28.8383 132.73 29.7394 133.365 30.4235C133.672 30.7558 134.045 31.0201 134.46 31.1996C134.874 31.379 135.321 31.4696 135.772 31.4656L135.789 31.4553Z" fill="#002444"/>
<path d="M143.105 33.657V22.1553H145.799L150.78 29.7807V22.1553H153.173V33.657H150.462L145.499 26.0488V33.657H143.105Z" fill="#002444"/>
<path d="M155.156 33.657V22.1553H157.549V33.657H155.156Z" fill="#002444"/>
<path d="M164.871 33.8214C164.1 33.8374 163.335 33.6929 162.622 33.3969C161.91 33.101 161.266 32.66 160.731 32.1016C159.648 30.9791 159.043 29.4764 159.043 27.9123C159.043 26.3481 159.648 24.8455 160.731 23.7229C161.266 23.1644 161.91 22.7233 162.622 22.4273C163.335 22.1314 164.1 21.9869 164.871 22.0032C165.918 21.9962 166.947 22.2789 167.846 22.8206C168.744 23.3623 169.477 24.1421 169.965 25.0747L167.808 26.1925C167.517 25.6706 167.095 25.2352 166.584 24.9302C166.063 24.6111 165.464 24.4455 164.854 24.4521C164.407 24.4444 163.964 24.5303 163.552 24.7044C163.14 24.8785 162.768 25.137 162.461 25.4633C161.832 26.1241 161.48 27.004 161.48 27.9192C161.48 28.8343 161.832 29.7142 162.461 30.375C162.768 30.7013 163.14 30.9598 163.552 31.1339C163.964 31.308 164.407 31.3939 164.854 31.3862C165.472 31.3931 166.08 31.225 166.608 30.9012C167.127 30.589 167.549 30.1361 167.825 29.5942L169.999 30.712C169.517 31.6453 168.791 32.4289 167.9 32.9787C166.991 33.5445 165.94 33.8369 164.871 33.8214Z" fill="#002444"/>
</svg>
