<svg width="117" height="49" viewBox="0 0 117 49" fill="none" xmlns="http://www.w3.org/2000/svg">
<path d="M12.5983 0.871094H0.0972748V19.86H12.5983V0.871094Z" fill="#404040"/>
<path d="M14.78 0.99969H22.0907C23.3262 0.969926 24.5525 1.22022 25.6775 1.73182C26.6494 2.187 27.4767 2.90182 28.068 3.79739C28.5539 4.64989 28.896 5.57657 29.0808 6.54024C29.3317 7.79524 29.4505 9.07306 29.4352 10.3528C29.4481 11.6279 29.3272 12.9008 29.0744 14.1506C28.8904 15.1135 28.5692 16.0449 28.1208 16.9166C27.5381 17.8139 26.7199 18.5336 25.7556 18.997C24.643 19.5102 23.4273 19.7607 22.2025 19.7291H14.78V18.4083H16.0818V2.32259H14.78V0.99969ZM19.3183 18.4273H21.4071C22.4888 18.4273 23.2624 18.2733 23.728 17.9653C25.4032 16.9033 26.2416 14.3398 26.243 10.2747C26.243 6.34613 25.4391 3.87687 23.8314 2.86694C23.5054 2.65857 23.1421 2.51528 22.7617 2.44496C22.2682 2.355 21.7673 2.31261 21.2657 2.31837H19.3183V18.4273Z" fill="#404040"/>
<path d="M30.007 0.999756H36.3873V2.32265H34.9103V18.4084H36.3873V19.7313H30.007V18.4084H31.659V2.32265H30.007V0.999756Z" fill="#404040"/>
<path d="M51.0235 16.9188C49.5719 19.0751 47.5176 20.1195 44.8606 20.052C41.8842 20.0267 39.813 19.0294 38.647 17.0602V17.0728C37.7031 15.5917 37.2312 13.3918 37.2312 10.4731C37.2312 7.43488 37.7299 5.1759 38.7271 3.69617V3.70883C39.8398 1.73116 41.9489 0.72967 45.0547 0.704352C46.9436 0.665195 48.7851 1.29773 50.2513 2.48931L50.6628 5.78917H49.1289C49.1412 4.79313 48.7668 3.83111 48.0845 3.1054C47.3967 2.38523 46.3909 2.02162 45.0673 2.01459C43.589 1.99771 42.4694 2.701 41.7084 4.12447C40.9474 5.54794 40.5374 7.64868 40.4783 10.4267C40.5374 13.1569 40.9327 15.2302 41.6641 16.6466C42.3955 18.0631 43.4652 18.7664 44.8732 18.7565C45.4532 18.7479 46.0262 18.6283 46.5611 18.4042C47.0476 18.196 47.4848 17.8876 47.8439 17.499V12.6062H46.0126V11.2538H52.1502V12.5872H51.0151L51.0235 16.9188Z" fill="#404040"/>
<path d="M52.4731 0.999756H58.8428V2.32265H57.3659V18.4084H58.8428V19.7313H52.4731V18.4084H54.123V2.32265H52.4731V0.999756Z" fill="#404040"/>
<path d="M73.3588 0.999756L73.8482 4.40089H72.4663C72.2595 3.0154 71.7742 2.32265 71.0105 2.32265H68.2001V18.4084H69.4766V19.7313H63.6237V18.4084H64.9656V2.32265H62.1679C61.4027 2.32265 60.9168 3.0154 60.71 4.40089H59.3175L59.807 0.999756H73.3588Z" fill="#404040"/>
<path d="M72.4135 19.7313V18.4274H73.7934C74.7048 15.527 75.6191 12.621 76.5362 9.70936C77.4533 6.79772 78.3613 3.89452 79.2601 0.999756H80.6948L86.3134 18.4274H87.6574V19.7376H82.0704V18.4274H83.0157L82.6169 17.1826C82.4889 16.7803 82.3602 16.3801 82.2308 15.982L81.8426 14.7752C81.7132 14.3687 81.5803 13.9516 81.4438 13.524H76.897C76.7599 13.946 76.627 14.368 76.5025 14.7689C76.378 15.1697 76.2535 15.5706 76.129 15.9694C76.0045 16.3681 75.8801 16.7669 75.7556 17.1699C75.6311 17.5729 75.5003 17.9906 75.3631 18.4358H76.3421V19.7461L72.4135 19.7313ZM81.0387 12.1821C80.7138 11.206 80.3959 10.2432 80.085 9.29371C79.7742 8.34426 79.4605 7.38004 79.144 6.40106C78.8262 7.3927 78.5209 8.35129 78.2284 9.27683L77.319 12.1821H81.0387Z" fill="#404040"/>
<path d="M93.3752 18.4084H99.5382C100.303 18.4084 100.789 17.7107 100.996 16.3154H102.389L101.899 19.7313H88.8368V18.4084H90.1133V2.32265H88.8115V0.999756H94.62V2.32265H93.3752V18.4084Z" fill="#404040"/>
<path d="M17.4236 25.5565H16.0311V24.2336H22.0401V25.5565H20.6729V41.2963C20.656 43.333 20.2734 44.9337 19.5251 46.0984C18.7501 47.2968 17.3962 47.9944 15.4636 48.1914L14.896 46.9571C16.5839 46.898 17.4279 44.9942 17.4279 41.2456L17.4236 25.5565Z" fill="#404040"/>
<path d="M30.2137 23.9256C35.0622 23.9256 37.4865 27.1481 37.4865 33.593C37.4865 40.038 35.0665 43.2647 30.2264 43.2732C25.3877 43.2732 22.9684 40.0465 22.9684 33.593C22.9684 27.1396 25.3835 23.9171 30.2137 23.9256ZM30.2137 25.2611C27.5496 25.2611 26.2176 28.0384 26.2176 33.593C26.2176 39.1477 27.5539 41.9292 30.2264 41.9376C32.8905 41.9376 34.2232 39.1603 34.2246 33.6057C34.226 28.0511 32.8891 25.2695 30.2137 25.2611Z" fill="#404040"/>
<path d="M49.1015 24.2336H53.3212V25.5565H52.0005V35.2367C52.0005 40.5522 49.9609 43.2099 45.8818 43.2099C43.4596 43.2099 41.7281 42.4265 40.6873 40.8595C39.8433 39.5683 39.4213 37.6813 39.4213 35.1987V25.5565H38.0921V24.2336H43.9344V25.5565H42.6684V35.3063C42.6684 37.4654 42.8358 38.9592 43.1706 39.7877C43.6938 41.1732 44.8072 41.8666 46.5105 41.8681C49.0888 41.8681 50.378 39.6428 50.378 35.1924V25.5565H49.1015V24.2336Z" fill="#404040"/>
<path d="M59.2669 41.636H60.6509V42.9589H54.7032V41.636L56.005 41.6486V25.5502H54.7032V24.2273H62.5941C63.3581 24.221 64.1189 24.3277 64.8517 24.5438C65.5234 24.7419 66.1589 25.0468 66.7337 25.4468C67.3215 25.8845 67.8038 26.4483 68.1452 27.0968C68.4816 27.7584 68.6518 28.4919 68.6411 29.2341C68.6415 29.8139 68.5253 30.388 68.2993 30.922C68.0624 31.4741 67.7335 31.9821 67.3266 32.4242C66.9487 32.8134 66.5234 33.1536 66.0607 33.437C65.6026 33.7202 65.1048 33.9335 64.5838 34.0699C64.9729 35.3357 65.533 36.5424 66.2485 37.6567C67.1379 39.056 68.1317 40.3862 69.2213 41.636H70.6138V42.9589H66.4362C65.4078 41.6128 64.4649 40.2034 63.6132 38.7391C62.7839 37.311 62.0474 35.8311 61.4084 34.3083H59.2669V41.636ZM59.2669 32.9454H62.5182C62.8942 32.9413 63.2608 32.8276 63.5731 32.6183C63.947 32.364 64.2722 32.0445 64.5331 31.6752C64.7822 31.2974 64.9875 30.8925 65.145 30.4684C65.2912 30.0782 65.3676 29.6654 65.3707 29.2488C65.388 28.3182 65.0906 27.409 64.5268 26.6685C64.2621 26.3106 63.9156 26.0212 63.5162 25.8245C63.1169 25.6277 62.6763 25.5294 62.2312 25.5376L59.2774 25.5502L59.2669 32.9454Z" fill="#404040"/>
<path d="M84.885 25.5565V42.9652H83.119L74.5761 28.1622V41.636H75.8421V42.9589H71.7742V41.636H73.076V25.5565H71.7742V24.2336H75.937L83.3764 36.9689V25.5565H82.1105V24.2336H86.1805V25.5565H84.885Z" fill="#404040"/>
<path d="M86.9232 42.9652V41.655H88.3031C89.2145 38.7546 90.1288 35.8493 91.0459 32.939C91.963 30.0288 92.8773 27.127 93.7888 24.2336H95.2193L100.842 41.655H102.195V42.9652H96.5801V41.655H97.5338L97.135 40.4101L96.7489 39.2096C96.6202 38.8129 96.4894 38.41 96.3607 38.0027L95.9619 36.7516H91.3983C91.2576 37.1736 91.1261 37.5885 91.0037 37.9964C90.8813 38.4043 90.7569 38.8045 90.6303 39.1969L90.2568 40.3975C90.133 40.8012 90.0015 41.2231 89.8623 41.6634H90.8434V42.9736L86.9232 42.9652ZM95.5484 35.416C95.2235 34.4413 94.9056 33.4784 94.5947 32.5276C94.2839 31.5767 93.9702 30.6139 93.6537 29.6392C93.3358 30.6322 93.0306 31.5908 92.738 32.5149L91.8224 35.416H95.5484Z" fill="#404040"/>
<path d="M107.463 41.636H113.626C114.392 41.636 114.878 40.939 115.084 39.5451H116.476L115.985 42.9589H102.925V41.636H104.201V25.5565H102.899V24.2336H108.714V25.5565H107.463V41.636Z" fill="#404040"/>
</svg>
