<svg width="169" height="57" viewBox="0 0 169 57" fill="none" xmlns="http://www.w3.org/2000/svg"><rect width="168.828" height="56.2761" rx="10" fill="#2D2D2D"/><path d="M85.4367 29.2719C84.7152 29.2684 84.009 29.4792 83.4074 29.8775C82.8059 30.2758 82.3361 30.8437 82.0576 31.5093C81.7791 32.1748 81.7045 32.9081 81.8431 33.6161C81.9818 34.3241 82.3274 34.975 82.8364 35.4864C83.3453 35.9978 83.9946 36.3466 84.7019 36.4886C85.4093 36.6306 86.1429 36.5595 86.8097 36.2842C87.4766 36.0089 88.0468 35.5419 88.4479 34.9422C88.8491 34.3426 89.0633 33.6374 89.0633 32.9159C89.071 32.4367 88.9825 31.9609 88.8032 31.5164C88.6239 31.072 88.3573 30.668 88.0192 30.3283C87.6812 29.9886 87.2785 29.7201 86.8349 29.5387C86.3913 29.3572 85.9159 29.2665 85.4367 29.2719ZM85.4367 35.126C84.9919 35.1622 84.5465 35.0633 84.1587 34.8424C83.771 34.6214 83.4589 34.2886 83.2633 33.8875C83.0677 33.4864 82.9976 33.0355 83.0623 32.594C83.127 32.1524 83.3235 31.7406 83.6259 31.4125C83.9284 31.0843 84.3228 30.855 84.7576 30.7546C85.1925 30.6542 85.6475 30.6873 86.0632 30.8496C86.479 31.0119 86.8361 31.2958 87.0878 31.6643C87.3396 32.0328 87.4744 32.4687 87.4745 32.9149C87.4886 33.1946 87.4469 33.4743 87.3517 33.7377C87.2565 34.001 87.1097 34.2428 86.9199 34.4487C86.7302 34.6547 86.5013 34.8208 86.2466 34.9372C85.9919 35.0536 85.7166 35.1181 85.4367 35.1269V35.126ZM77.5274 29.2719C76.8059 29.2684 76.0997 29.4792 75.4981 29.8775C74.8966 30.2758 74.4268 30.8437 74.1483 31.5093C73.8698 32.1748 73.7952 32.9081 73.9338 33.6161C74.0724 34.3241 74.4181 34.975 74.927 35.4864C75.436 35.9978 76.0852 36.3466 76.7926 36.4886C77.4999 36.6306 78.2335 36.5595 78.9004 36.2842C79.5673 36.0089 80.1374 35.5419 80.5386 34.9422C80.9398 34.3426 81.154 33.6374 81.154 32.9159C81.1626 32.4366 81.0748 31.9604 80.8959 31.5156C80.7169 31.0708 80.4505 30.6664 80.1123 30.3266C79.7742 29.9867 79.3712 29.7182 78.9273 29.5371C78.4835 29.3559 78.0077 29.2657 77.5283 29.2719H77.5274ZM77.5274 35.126C77.0825 35.1622 76.6371 35.0633 76.2494 34.8424C75.8616 34.6214 75.5496 34.2886 75.354 33.8875C75.1584 33.4864 75.0883 33.0355 75.153 32.594C75.2177 32.1524 75.4141 31.7406 75.7166 31.4125C76.0191 31.0843 76.4135 30.855 76.8483 30.7546C77.2832 30.6542 77.7382 30.6873 78.1539 30.8496C78.5697 31.0119 78.9267 31.2958 79.1785 31.6643C79.4303 32.0328 79.5651 32.4687 79.5652 32.9149C79.5793 33.1945 79.5376 33.4742 79.4424 33.7375C79.3473 34.0008 79.2006 34.2424 79.011 34.4484C78.8213 34.6543 78.5925 34.8204 78.338 34.9369C78.0834 35.0534 77.8082 35.118 77.5283 35.1269L77.5274 35.126ZM68.1327 30.3943V31.9309H71.7942C71.7445 32.6512 71.4522 33.3333 70.965 33.8661C70.5979 34.2413 70.1561 34.5351 69.6682 34.7285C69.1803 34.9218 68.6571 35.0104 68.1327 34.9886C67.0421 34.9886 65.9961 34.5553 65.2248 33.7841C64.4536 33.0128 64.0204 31.9668 64.0204 30.8762C64.0204 29.7855 64.4536 28.7395 65.2248 27.9683C65.9961 27.1971 67.0421 26.7638 68.1327 26.7638C68.6435 26.7565 69.1507 26.8504 69.625 27.04C70.0993 27.2297 70.5313 27.5114 70.8963 27.8688L71.9839 26.7812C71.4781 26.2783 70.8768 25.8817 70.2154 25.6148C69.554 25.3479 68.8459 25.2161 68.1327 25.2272C66.6351 25.2272 65.1987 25.8222 64.1397 26.8812C63.0807 27.9402 62.4857 29.3765 62.4857 30.8742C62.4857 32.3719 63.0807 33.8083 64.1397 34.8673C65.1987 35.9263 66.6351 36.5213 68.1327 36.5213C68.8273 36.5576 69.5219 36.4484 70.1718 36.2008C70.8218 35.9531 71.4128 35.5724 71.9071 35.083C72.4014 34.5937 72.788 34.0064 73.0422 33.359C73.2963 32.7115 73.4124 32.0181 73.383 31.3232C73.3841 30.9987 73.3552 30.6748 73.2969 30.3556L68.1327 30.3943ZM106.593 31.5854C106.378 30.9288 105.965 30.3543 105.412 29.9402C104.859 29.5261 104.192 29.2924 103.501 29.2709C103.035 29.2749 102.574 29.3738 102.147 29.5614C101.72 29.7491 101.336 30.0217 101.018 30.3626C100.7 30.7034 100.454 31.1055 100.296 31.5443C100.138 31.9831 100.071 32.4494 100.099 32.9149C100.087 33.6906 100.327 34.4492 100.782 35.0772C101.238 35.7051 101.885 36.1685 102.626 36.398C103.367 36.6275 104.162 36.6108 104.893 36.3502C105.624 36.0896 106.25 35.5993 106.679 34.9527L105.453 34.1235C105.269 34.4305 105.008 34.6844 104.696 34.86C104.384 35.0356 104.032 35.1269 103.674 35.125C103.306 35.1414 102.941 35.0442 102.63 34.8466C102.318 34.6489 102.075 34.3604 101.933 34.02L106.771 31.9996L106.593 31.5854ZM101.67 32.8114C101.654 32.5479 101.689 32.2837 101.774 32.0339C101.86 31.7841 101.994 31.5536 102.169 31.3558C102.344 31.158 102.556 30.9967 102.794 30.8812C103.031 30.7656 103.289 30.6982 103.552 30.6826C103.828 30.6636 104.104 30.7271 104.344 30.8649C104.583 31.0027 104.777 31.2087 104.899 31.4567L101.67 32.8114ZM97.7516 36.3355H99.3404V25.6452H97.7516V36.3355ZM95.139 30.0837H95.0867C94.847 29.82 94.5532 29.611 94.2255 29.4709C93.8977 29.3308 93.5436 29.2629 93.1873 29.2719C92.2556 29.3199 91.3779 29.7239 90.7354 30.4004C90.093 31.0769 89.7347 31.9742 89.7347 32.9072C89.7347 33.8402 90.093 34.7375 90.7354 35.414C91.3779 36.0905 92.2556 36.4945 93.1873 36.5425C93.5454 36.5527 93.9014 36.4836 94.2297 36.3402C94.5581 36.1969 94.8507 35.9828 95.0867 35.7133H95.139V36.231C95.139 37.6302 94.3968 38.3723 93.2038 38.3723C92.807 38.3609 92.4226 38.2315 92.0997 38.0008C91.7767 37.77 91.5298 37.4483 91.3904 37.0767L90.0087 37.664C90.2651 38.3012 90.7061 38.8471 91.2751 39.2318C91.844 39.6165 92.515 39.8223 93.2018 39.8228C95.0674 39.8228 96.6388 38.7178 96.6388 36.0404V29.4963H95.139V30.0837ZM93.3257 35.1269C92.7782 35.0743 92.27 34.8195 91.9002 34.4125C91.5304 34.0054 91.3255 33.4751 91.3255 32.9251C91.3255 32.3751 91.5304 31.8448 91.9002 31.4378C92.27 31.0307 92.7782 30.7759 93.3257 30.7233C93.86 30.7934 94.3507 31.0554 94.7061 31.4605C95.0615 31.8656 95.2575 32.3862 95.2575 32.9251C95.2575 33.464 95.0615 33.9846 94.7061 34.3897C94.3507 34.7948 93.86 35.0568 93.3257 35.1269ZM114.015 25.6443H110.216V36.3355H111.805V32.2773H114.016C114.465 32.299 114.914 32.2293 115.335 32.0724C115.756 31.9156 116.141 31.6748 116.467 31.3648C116.792 31.0547 117.051 30.6818 117.228 30.2687C117.405 29.8555 117.496 29.4107 117.496 28.9612C117.496 28.5118 117.405 28.067 117.228 27.6538C117.051 27.2407 116.792 26.8678 116.467 26.5577C116.141 26.2477 115.756 26.0069 115.335 25.8501C114.914 25.6932 114.465 25.6235 114.016 25.6452L114.015 25.6443ZM114.068 30.791H111.805V27.1305H114.068C114.557 27.1284 115.027 27.3195 115.377 27.6623C115.726 28.0051 115.926 28.4719 115.933 28.9612C115.92 29.4482 115.719 29.9111 115.371 30.2526C115.024 30.594 114.558 30.7874 114.07 30.792L114.068 30.791ZM123.86 29.2544C123.281 29.2199 122.704 29.3577 122.203 29.6504C121.702 29.9432 121.299 30.3778 121.045 30.8994L122.444 31.4867C122.586 31.2316 122.798 31.0228 123.056 30.8854C123.313 30.7481 123.605 30.6881 123.896 30.7126C124.301 30.6744 124.705 30.7983 125.019 31.0573C125.333 31.3163 125.531 31.6893 125.571 32.0944V32.1979C125.062 31.9215 124.492 31.779 123.913 31.7838C122.393 31.7838 120.856 32.6305 120.856 34.1845C120.869 34.5128 120.948 34.8351 121.088 35.1323C121.228 35.4295 121.427 35.6956 121.672 35.9146C121.916 36.1337 122.203 36.3013 122.514 36.4075C122.825 36.5137 123.154 36.5563 123.482 36.5329C123.882 36.5574 124.282 36.4723 124.638 36.2866C124.994 36.1009 125.293 35.8218 125.502 35.4791H125.554V36.3084H127.091V32.2076C127.094 31.795 127.011 31.3863 126.846 31.008C126.681 30.6297 126.439 30.2904 126.134 30.0119C125.83 29.7335 125.47 29.5223 125.078 29.3919C124.687 29.2616 124.272 29.2151 123.862 29.2554L123.86 29.2544ZM123.666 35.1085C123.149 35.1085 122.423 34.8492 122.423 34.2106C122.423 33.3813 123.321 33.0707 124.098 33.0707C124.605 33.0601 125.107 33.1853 125.549 33.4336C125.492 33.8928 125.271 34.3157 124.925 34.6239C124.58 34.9321 124.135 35.1046 123.672 35.1095L123.666 35.1085ZM132.647 29.4963L130.833 34.1245H130.781L128.909 29.4963H127.199L130.031 35.9726L128.425 39.5818H130.083L134.437 29.4963H132.647ZM118.382 36.3355H119.971V25.6452H118.382V36.3355Z" fill="white"/><path d="M34.4094 28.4191V18.1639C34.4094 17.9203 34.3139 17.5716 34.547 17.4742C34.7572 17.3843 34.91 17.7159 35.0696 17.8754C38.4733 21.2703 41.8736 24.668 45.2703 28.0685C45.663 28.4612 45.663 28.4612 45.2703 28.8548C41.8233 32.2968 38.3759 35.7403 34.9282 39.1855C34.8154 39.2982 34.7123 39.5332 34.5403 39.4539C34.3683 39.3746 34.4094 39.1301 34.4094 38.9485C34.4094 35.4391 34.4094 31.9293 34.4094 28.4191Z" fill="white"/><path d="M49.8853 24.1535C49.8371 24.225 49.7845 24.2932 49.7277 24.358C48.7723 25.3268 47.8064 26.2898 46.8548 27.2662C46.6561 27.4707 46.5252 27.4353 46.3418 27.2509C42.8246 23.7255 39.3062 20.203 35.7866 16.6833C35.7082 16.605 35.5582 16.5352 35.6213 16.4024C35.6843 16.2696 35.8334 16.3327 35.9442 16.3375C36.2477 16.3545 36.5426 16.4443 36.8041 16.5992C41.0715 19.0253 45.3389 21.4539 49.6063 23.8851C49.7172 23.9453 49.8557 23.9787 49.8853 24.1535Z" fill="white"/><path d="M35.8928 40.5901C35.7886 40.5662 35.651 40.6321 35.6119 40.4993C35.5784 40.3837 35.7007 40.3197 35.7695 40.249C36.6466 39.3681 37.5252 38.4885 38.4055 37.6102L46.233 29.7827C46.6066 29.4091 46.6075 29.4091 46.9887 29.7941C47.8734 30.6858 48.7568 31.5775 49.639 32.4692C49.9743 32.8093 49.9762 32.817 49.5702 33.0482C45.3066 35.4762 41.0427 37.9029 36.7784 40.3283C36.5074 40.4828 36.2042 40.5724 35.8928 40.5901Z" fill="white"/><path d="M56.2031 28.4783C56.175 28.7535 56.0779 29.0172 55.921 29.2449C55.764 29.4727 55.5522 29.6572 55.305 29.7815C54.3907 30.3165 53.4669 30.8324 52.5468 31.3608C52.1952 31.5624 51.8398 31.7534 51.4959 31.9655C51.4588 31.9968 51.4159 32.0204 51.3696 32.0348C51.3233 32.0492 51.2746 32.0542 51.2263 32.0495C51.178 32.0448 51.1312 32.0305 51.0885 32.0073C51.0459 31.9842 51.0083 31.9528 50.9781 31.9149C49.9099 30.8366 48.8357 29.7637 47.7555 28.6962C47.5644 28.5108 47.594 28.3819 47.7689 28.2118C48.8517 27.1494 49.9309 26.0825 51.0067 25.0112C51.0641 24.9425 51.1459 24.8986 51.235 24.8888C51.324 24.879 51.4134 24.904 51.4844 24.9587C52.7541 25.6886 54.0334 26.4032 55.3003 27.1379C55.5555 27.262 55.7734 27.4513 55.932 27.6867C56.0905 27.9221 56.184 28.1952 56.2031 28.4783Z" fill="white"/><path d="M65.8953 20.6328H66.3003L64.6803 16.9328H64.3203L62.7003 20.6328H63.1053L63.5203 19.6678H65.4803L65.8953 20.6328ZM63.6603 19.3478L64.5053 17.3928L65.3453 19.3478H63.6603ZM66.8182 20.6328H67.1982L67.1932 17.5928L69.7632 20.6328H70.0082V16.9328H69.6282L69.6332 19.9728L67.0632 16.9328H66.8182V20.6328ZM72.2725 16.9328H71.0175V20.6328H72.2725C73.3525 20.6328 74.0675 19.8928 74.0675 18.7928C74.0675 17.6728 73.3525 16.9328 72.2725 16.9328ZM72.2425 20.3178H71.3975V17.2478H72.2425C73.1025 17.2478 73.6725 17.8628 73.6725 18.7928C73.6725 19.7028 73.1025 20.3178 72.2425 20.3178ZM77.7008 20.6328L76.6508 19.0578C77.1408 18.9128 77.4408 18.5328 77.4408 18.0278C77.4408 17.3678 76.9508 16.9328 76.2008 16.9328H74.8358V20.6328H75.2158V19.1228H76.1808H76.2658L77.2508 20.6328H77.7008ZM75.2158 17.2478H76.1508C76.6908 17.2478 77.0458 17.5578 77.0458 18.0278C77.0458 18.4928 76.6858 18.8078 76.1508 18.8078H75.2158V17.2478ZM79.898 20.6828C81.003 20.6828 81.743 19.9228 81.743 18.7828C81.743 17.6428 81.003 16.8828 79.898 16.8828C78.788 16.8828 78.043 17.6428 78.043 18.7828C78.043 19.9228 78.788 20.6828 79.898 20.6828ZM79.898 20.3678C79.023 20.3678 78.443 19.7328 78.443 18.7828C78.443 17.8328 79.023 17.1978 79.898 17.1978C80.763 17.1978 81.348 17.8328 81.348 18.7828C81.348 19.7328 80.763 20.3678 79.898 20.3678ZM82.5067 20.6328H82.8867V16.9328H82.5067V20.6328ZM85.1533 16.9328H83.8983V20.6328H85.1533C86.2333 20.6328 86.9483 19.8928 86.9483 18.7928C86.9483 17.6728 86.2333 16.9328 85.1533 16.9328ZM85.1233 20.3178H84.2783V17.2478H85.1233C85.9833 17.2478 86.5533 17.8628 86.5533 18.7928C86.5533 19.7028 85.9833 20.3178 85.1233 20.3178ZM91.5789 20.6328H91.9839L90.3639 16.9328H90.0039L88.3839 20.6328H88.7889L89.2039 19.6678H91.1639L91.5789 20.6328ZM89.3439 19.3478L90.1889 17.3928L91.0289 19.3478H89.3439ZM93.8468 16.9328H92.5018V20.6328H92.8818V19.2128H93.8468C94.5718 19.2128 95.0568 18.7528 95.0568 18.0578C95.0568 17.3828 94.5768 16.9328 93.8468 16.9328ZM93.7968 18.8978H92.8818V17.2478H93.7968C94.3168 17.2478 94.6618 17.5778 94.6618 18.0728C94.6618 18.5678 94.3218 18.8978 93.7968 18.8978ZM97.0792 16.9328H95.7342V20.6328H96.1142V19.2128H97.0792C97.8042 19.2128 98.2892 18.7528 98.2892 18.0578C98.2892 17.3828 97.8092 16.9328 97.0792 16.9328ZM97.0292 18.8978H96.1142V17.2478H97.0292C97.5492 17.2478 97.8942 17.5778 97.8942 18.0728C97.8942 18.5678 97.5542 18.8978 97.0292 18.8978ZM101.768 20.6828C102.873 20.6828 103.613 19.9228 103.613 18.7828C103.613 17.6428 102.873 16.8828 101.768 16.8828C100.658 16.8828 99.9131 17.6428 99.9131 18.7828C99.9131 19.9228 100.658 20.6828 101.768 20.6828ZM101.768 20.3678C100.893 20.3678 100.313 19.7328 100.313 18.7828C100.313 17.8328 100.893 17.1978 101.768 17.1978C102.633 17.1978 103.218 17.8328 103.218 18.7828C103.218 19.7328 102.633 20.3678 101.768 20.3678ZM104.377 20.6328H104.757L104.752 17.5928L107.322 20.6328H107.567V16.9328H107.187L107.192 19.9728L104.622 16.9328H104.377V20.6328Z" fill="white"/></svg>