<svg width="84" height="41" viewBox="0 0 84 41" fill="none" xmlns="http://www.w3.org/2000/svg">
<path d="M37.4641 5.43316L37.2041 6.72105H37.1255C36.7957 6.00032 35.8761 5.01782 33.8482 5.01782C30.5674 5.01782 27.229 7.54997 26.4682 11.548C25.8365 15.0382 27.5152 18.1236 31.4068 18.1236C32.8273 18.1236 34.4625 17.5547 35.3141 16.3785H35.3822L35.1553 17.689H38.7747L41.0433 5.45235L37.4641 5.43316ZM36.2722 11.5306C36.0279 12.7294 34.8918 14.6717 32.6214 14.6717C30.351 14.6717 29.9357 12.7015 30.1347 11.5655C30.2829 10.7044 30.7245 9.92113 31.3846 9.34858C32.0446 8.77604 32.8824 8.44946 33.7557 8.42427C35.8342 8.44696 36.5322 10.0891 36.2722 11.5306Z" fill="#404040"/>
<path d="M43.1077 5.43347H46.5142L46.2786 6.72136H46.3466C46.7151 6.16496 47.2227 5.71468 47.8191 5.41526C48.4155 5.11585 49.0798 4.97773 49.7461 5.01464L49.0481 8.70554C47.3448 8.70554 46.0814 9.08074 45.7481 10.9742L44.5056 17.6806H40.8321L43.1077 5.43347Z" fill="#404040"/>
<path d="M52.1928 0.651855H55.861L54.1351 9.86776H54.2031L58.4385 5.43345H62.7437L57.1506 10.8101L60.3634 17.6684H56.2135L53.8506 11.7699H53.7895L52.7146 17.6684H49.0254L52.1928 0.651855Z" fill="#404040"/>
<path d="M68.6159 5.00049C64.9023 5.00049 61.6041 8.18705 60.9898 11.5935C60.3145 15.2216 62.7628 18.0835 66.2775 18.0835C67.583 18.0657 68.8555 17.6712 69.9422 16.9475C71.2014 16.1685 72.252 15.0946 73.0031 13.8185H69.2616C68.9622 14.1749 68.5882 14.4613 68.1661 14.6576C67.744 14.8539 67.284 14.9553 66.8185 14.9546C65.3997 14.9546 64.3317 14.103 64.3945 12.6441H73.5825C73.702 12.3321 73.7892 12.0088 73.8425 11.679C74.5353 7.97066 72.3505 5.00049 68.6159 5.00049ZM64.9058 10.1957C65.1716 9.57151 65.6158 9.03978 66.1828 8.66721C66.7497 8.29465 67.414 8.09786 68.0924 8.10154C69.9946 8.10154 70.4535 9.47494 70.4535 10.1957H64.9058Z" fill="#404040"/>
<path d="M21.6342 0.651855L15.1669 10.3494H15.1267V0.651855H12.003L0.556824 17.6684H4.99114L11.4131 7.97083H11.476V17.6684H14.6206L21.0426 7.97083H21.1107V17.6684H24.7789V0.651855H21.6342Z" fill="#404040"/>
<path d="M83.1213 5.43337H80.8055L81.4809 1.78784H78.2716L78.0116 3.18393C77.7271 4.77895 76.722 5.26235 75.3939 5.41068L74.825 8.18715H76.6434L74.8879 17.6858H78.5334L80.2785 8.22554H82.6134L83.1213 5.43337Z" fill="#404040"/>
<path d="M56.4683 35.0042C55.2659 37.7737 52.4039 40.0459 49.0882 40.0459C45.3746 40.0459 43.0798 37.1211 43.7325 33.4703C44.3852 29.8195 47.7079 26.9628 51.3988 26.9628C54.6342 26.9628 56.8609 29.1267 56.929 32.1196H53.2154C53.1027 31.5978 52.8019 31.1357 52.3702 30.8215C51.9386 30.5074 51.4064 30.3632 50.8752 30.4164C49.172 30.3308 47.734 31.7496 47.4007 33.5157C47.0674 35.2817 47.9696 36.6394 49.7409 36.6394C50.33 36.6376 50.9091 36.4867 51.4241 36.2008C51.9392 35.9149 52.3735 35.5032 52.6866 35.0042H56.4683ZM26.1593 18.2983L19.034 22.6192H21.0496L14.5927 32.3185H14.5247V22.6192H11.3835L4.92658 32.3185H4.86375V22.6192H1.19903V39.6532H4.39606L10.8285 29.933H10.8966V39.6305H14.0378L25.4386 22.5965H27.2901L26.1593 18.2983ZM33.0978 39.6305H29.4697L29.7141 38.3199H29.646C28.7944 39.5241 27.1592 40.065 25.7387 40.065C21.8506 40.065 20.1683 37.0094 20.8001 33.4895C21.5208 29.5159 24.8871 26.9593 28.1801 26.9593C30.1852 26.9593 31.1276 27.9418 31.4574 28.6625H31.5203L31.7646 27.3799H35.3926L33.0978 39.6305ZM26.9376 36.6638C29.2062 36.6638 30.344 34.6988 30.5884 33.5226C30.8501 32.0585 30.1503 30.4233 28.0737 30.4233C27.2022 30.4538 26.3677 30.7824 25.7093 31.3541C25.0509 31.9257 24.6085 32.706 24.4561 33.5645C24.2571 34.7006 24.7178 36.6656 26.9428 36.6656L26.9376 36.6638ZM44.523 27.3851H42.2544L42.9298 23.757H39.6961L39.4291 25.1531C39.1446 26.7429 38.1464 27.2246 36.8114 27.3781H36.766L36.2425 30.1546H38.0766L36.2984 39.6253H39.9509L41.696 30.172H44.0292L44.523 27.3851ZM59.9219 22.6053H63.5656L62.4313 28.6747H62.5081C62.881 28.1118 63.3964 27.6576 64.0018 27.3584C64.6072 27.0593 65.281 26.9258 65.9547 26.9715C67.0908 26.9715 68.4467 27.4078 69.061 28.3449C69.8445 29.549 69.759 30.6136 69.3437 32.8019L68.0924 39.6148H64.4417L65.6633 32.9537C65.7767 32.3866 66.124 30.3762 64.1817 30.3762C62.1259 30.3762 61.7804 32.2103 61.6652 32.8194L60.414 39.5921H56.8208L59.9219 22.6053Z" fill="#404040"/>
</svg>
