<svg width="370" height="105" viewBox="0 0 370 105" fill="none" xmlns="http://www.w3.org/2000/svg">
<rect width="370" height="104.62" rx="10" fill="#1568AF"/>
<path fill-rule="evenodd" clip-rule="evenodd" d="M33.5 60.8696C32.6716 60.8696 32 60.1981 32 59.3696V46.2012C32 45.3727 32.6716 44.7012 33.5 44.7012H36.4006C36.7854 44.7012 37.1555 44.8491 37.4343 45.1143L40 47.5544H50.5C51.3284 47.5544 52 48.226 52 49.0544V59.3696C52 60.1981 51.3284 60.8696 50.5 60.8696H33.5ZM44.8516 53.0999C45.2832 53.0999 45.512 53.6099 45.225 53.9323L42.2929 57.226C42.0941 57.4494 41.7449 57.4494 41.546 57.226L38.6139 53.9323C38.327 53.6099 38.5558 53.0999 38.9874 53.0999H40.9078V51.2148C40.9078 50.9387 41.1317 50.7148 41.4078 50.7148H42.4311C42.7073 50.7148 42.9311 50.9387 42.9311 51.2148V53.0999H44.8516Z" fill="white"/>
<g clip-path="url(#clip0)">
<path d="M75.9379 47.864H77.6739V48.68C77.6739 48.7653 77.6472 48.8373 77.5939 48.896C77.5459 48.9547 77.4685 48.984 77.3619 48.984H75.9379V52H74.6819V48.984H69.6019C69.4952 48.984 69.4019 48.9547 69.3219 48.896C69.2472 48.832 69.1992 48.7547 69.1779 48.664L69.0339 47.936L74.6099 40.536H75.9379V47.864ZM74.6819 43.136C74.6819 42.9973 74.6845 42.848 74.6899 42.688C74.7005 42.528 74.7192 42.3627 74.7459 42.192L70.5779 47.864H74.6819V43.136ZM86.7951 46.272C86.7951 47.2747 86.6858 48.144 86.4671 48.88C86.2538 49.6107 85.9605 50.216 85.5871 50.696C85.2138 51.176 84.7711 51.5333 84.2591 51.768C83.7525 52.0027 83.2085 52.12 82.6271 52.12C82.0405 52.12 81.4938 52.0027 80.9871 51.768C80.4858 51.5333 80.0485 51.176 79.6751 50.696C79.3018 50.216 79.0085 49.6107 78.7951 48.88C78.5818 48.144 78.4751 47.2747 78.4751 46.272C78.4751 45.2693 78.5818 44.4 78.7951 43.664C79.0085 42.928 79.3018 42.32 79.6751 41.84C80.0485 41.3547 80.4858 40.9947 80.9871 40.76C81.4938 40.5253 82.0405 40.408 82.6271 40.408C83.2085 40.408 83.7525 40.5253 84.2591 40.76C84.7711 40.9947 85.2138 41.3547 85.5871 41.84C85.9605 42.32 86.2538 42.928 86.4671 43.664C86.6858 44.4 86.7951 45.2693 86.7951 46.272ZM85.3151 46.272C85.3151 45.3973 85.2405 44.664 85.0911 44.072C84.9471 43.4747 84.7498 42.9947 84.4991 42.632C84.2538 42.2693 83.9685 42.0107 83.6431 41.856C83.3178 41.696 82.9791 41.616 82.6271 41.616C82.2751 41.616 81.9365 41.696 81.6111 41.856C81.2858 42.0107 81.0005 42.2693 80.7551 42.632C80.5098 42.9947 80.3125 43.4747 80.1631 44.072C80.0191 44.664 79.9471 45.3973 79.9471 46.272C79.9471 47.1467 80.0191 47.88 80.1631 48.472C80.3125 49.064 80.5098 49.5413 80.7551 49.904C81.0005 50.2667 81.2858 50.528 81.6111 50.688C81.9365 50.8427 82.2751 50.92 82.6271 50.92C82.9791 50.92 83.3178 50.8427 83.6431 50.688C83.9685 50.528 84.2538 50.2667 84.4991 49.904C84.7498 49.5413 84.9471 49.064 85.0911 48.472C85.2405 47.88 85.3151 47.1467 85.3151 46.272ZM96.0764 46.272C96.0764 47.2747 95.967 48.144 95.7484 48.88C95.535 49.6107 95.2417 50.216 94.8684 50.696C94.495 51.176 94.0524 51.5333 93.5404 51.768C93.0337 52.0027 92.4897 52.12 91.9084 52.12C91.3217 52.12 90.775 52.0027 90.2684 51.768C89.767 51.5333 89.3297 51.176 88.9564 50.696C88.583 50.216 88.2897 49.6107 88.0764 48.88C87.863 48.144 87.7564 47.2747 87.7564 46.272C87.7564 45.2693 87.863 44.4 88.0764 43.664C88.2897 42.928 88.583 42.32 88.9564 41.84C89.3297 41.3547 89.767 40.9947 90.2684 40.76C90.775 40.5253 91.3217 40.408 91.9084 40.408C92.4897 40.408 93.0337 40.5253 93.5404 40.76C94.0524 40.9947 94.495 41.3547 94.8684 41.84C95.2417 42.32 95.535 42.928 95.7484 43.664C95.967 44.4 96.0764 45.2693 96.0764 46.272ZM94.5964 46.272C94.5964 45.3973 94.5217 44.664 94.3724 44.072C94.2284 43.4747 94.031 42.9947 93.7804 42.632C93.535 42.2693 93.2497 42.0107 92.9244 41.856C92.599 41.696 92.2604 41.616 91.9084 41.616C91.5564 41.616 91.2177 41.696 90.8924 41.856C90.567 42.0107 90.2817 42.2693 90.0364 42.632C89.791 42.9947 89.5937 43.4747 89.4444 44.072C89.3004 44.664 89.2284 45.3973 89.2284 46.272C89.2284 47.1467 89.3004 47.88 89.4444 48.472C89.5937 49.064 89.791 49.5413 90.0364 49.904C90.2817 50.2667 90.567 50.528 90.8924 50.688C91.2177 50.8427 91.5564 50.92 91.9084 50.92C92.2604 50.92 92.599 50.8427 92.9244 50.688C93.2497 50.528 93.535 50.2667 93.7804 49.904C94.031 49.5413 94.2284 49.064 94.3724 48.472C94.5217 47.88 94.5964 47.1467 94.5964 46.272ZM97.3096 51.016C97.3096 50.8933 97.331 50.7787 97.3736 50.672C97.4216 50.56 97.4856 50.464 97.5656 50.384C97.651 50.2987 97.7523 50.232 97.8696 50.184C97.987 50.136 98.115 50.112 98.2536 50.112C98.4136 50.112 98.555 50.1413 98.6776 50.2C98.8056 50.2587 98.9096 50.3413 98.9896 50.448C99.075 50.5493 99.139 50.6693 99.1816 50.808C99.2243 50.9413 99.2456 51.088 99.2456 51.248C99.2456 51.488 99.211 51.7387 99.1416 52C99.0723 52.256 98.9736 52.5093 98.8456 52.76C98.7176 53.016 98.5576 53.264 98.3656 53.504C98.179 53.744 97.9656 53.9653 97.7256 54.168L97.4856 53.936C97.4163 53.872 97.3816 53.7973 97.3816 53.712C97.3816 53.6427 97.419 53.5707 97.4936 53.496C97.547 53.4373 97.6136 53.3573 97.6936 53.256C97.779 53.16 97.8643 53.048 97.9496 52.92C98.035 52.792 98.1123 52.6507 98.1816 52.496C98.2563 52.3413 98.3096 52.176 98.3416 52H98.2376C98.099 52 97.9736 51.976 97.8616 51.928C97.7496 51.88 97.651 51.8133 97.5656 51.728C97.4856 51.6373 97.4216 51.5333 97.3736 51.416C97.331 51.2933 97.3096 51.16 97.3096 51.016ZM108.748 46.272C108.748 47.2747 108.639 48.144 108.42 48.88C108.207 49.6107 107.914 50.216 107.54 50.696C107.167 51.176 106.724 51.5333 106.212 51.768C105.706 52.0027 105.162 52.12 104.58 52.12C103.994 52.12 103.447 52.0027 102.94 51.768C102.439 51.5333 102.002 51.176 101.628 50.696C101.255 50.216 100.962 49.6107 100.748 48.88C100.535 48.144 100.428 47.2747 100.428 46.272C100.428 45.2693 100.535 44.4 100.748 43.664C100.962 42.928 101.255 42.32 101.628 41.84C102.002 41.3547 102.439 40.9947 102.94 40.76C103.447 40.5253 103.994 40.408 104.58 40.408C105.162 40.408 105.706 40.5253 106.212 40.76C106.724 40.9947 107.167 41.3547 107.54 41.84C107.914 42.32 108.207 42.928 108.42 43.664C108.639 44.4 108.748 45.2693 108.748 46.272ZM107.268 46.272C107.268 45.3973 107.194 44.664 107.044 44.072C106.9 43.4747 106.703 42.9947 106.452 42.632C106.207 42.2693 105.922 42.0107 105.596 41.856C105.271 41.696 104.932 41.616 104.58 41.616C104.228 41.616 103.89 41.696 103.564 41.856C103.239 42.0107 102.954 42.2693 102.708 42.632C102.463 42.9947 102.266 43.4747 102.116 44.072C101.972 44.664 101.9 45.3973 101.9 46.272C101.9 47.1467 101.972 47.88 102.116 48.472C102.266 49.064 102.463 49.5413 102.708 49.904C102.954 50.2667 103.239 50.528 103.564 50.688C103.89 50.8427 104.228 50.92 104.58 50.92C104.932 50.92 105.271 50.8427 105.596 50.688C105.922 50.528 106.207 50.2667 106.452 49.904C106.703 49.5413 106.9 49.064 107.044 48.472C107.194 47.88 107.268 47.1467 107.268 46.272ZM118.029 46.272C118.029 47.2747 117.92 48.144 117.701 48.88C117.488 49.6107 117.195 50.216 116.821 50.696C116.448 51.176 116.005 51.5333 115.493 51.768C114.987 52.0027 114.443 52.12 113.861 52.12C113.275 52.12 112.728 52.0027 112.221 51.768C111.72 51.5333 111.283 51.176 110.909 50.696C110.536 50.216 110.243 49.6107 110.029 48.88C109.816 48.144 109.709 47.2747 109.709 46.272C109.709 45.2693 109.816 44.4 110.029 43.664C110.243 42.928 110.536 42.32 110.909 41.84C111.283 41.3547 111.72 40.9947 112.221 40.76C112.728 40.5253 113.275 40.408 113.861 40.408C114.443 40.408 114.987 40.5253 115.493 40.76C116.005 40.9947 116.448 41.3547 116.821 41.84C117.195 42.32 117.488 42.928 117.701 43.664C117.92 44.4 118.029 45.2693 118.029 46.272ZM116.549 46.272C116.549 45.3973 116.475 44.664 116.325 44.072C116.181 43.4747 115.984 42.9947 115.733 42.632C115.488 42.2693 115.203 42.0107 114.877 41.856C114.552 41.696 114.213 41.616 113.861 41.616C113.509 41.616 113.171 41.696 112.845 41.856C112.52 42.0107 112.235 42.2693 111.989 42.632C111.744 42.9947 111.547 43.4747 111.397 44.072C111.253 44.664 111.181 45.3973 111.181 46.272C111.181 47.1467 111.253 47.88 111.397 48.472C111.547 49.064 111.744 49.5413 111.989 49.904C112.235 50.2667 112.52 50.528 112.845 50.688C113.171 50.8427 113.509 50.92 113.861 50.92C114.213 50.92 114.552 50.8427 114.877 50.688C115.203 50.528 115.488 50.2667 115.733 49.904C115.984 49.5413 116.181 49.064 116.325 48.472C116.475 47.88 116.549 47.1467 116.549 46.272ZM127.311 46.272C127.311 47.2747 127.201 48.144 126.983 48.88C126.769 49.6107 126.476 50.216 126.103 50.696C125.729 51.176 125.287 51.5333 124.775 51.768C124.268 52.0027 123.724 52.12 123.143 52.12C122.556 52.12 122.009 52.0027 121.503 51.768C121.001 51.5333 120.564 51.176 120.191 50.696C119.817 50.216 119.524 49.6107 119.311 48.88C119.097 48.144 118.991 47.2747 118.991 46.272C118.991 45.2693 119.097 44.4 119.311 43.664C119.524 42.928 119.817 42.32 120.191 41.84C120.564 41.3547 121.001 40.9947 121.503 40.76C122.009 40.5253 122.556 40.408 123.143 40.408C123.724 40.408 124.268 40.5253 124.775 40.76C125.287 40.9947 125.729 41.3547 126.103 41.84C126.476 42.32 126.769 42.928 126.983 43.664C127.201 44.4 127.311 45.2693 127.311 46.272ZM125.831 46.272C125.831 45.3973 125.756 44.664 125.607 44.072C125.463 43.4747 125.265 42.9947 125.015 42.632C124.769 42.2693 124.484 42.0107 124.159 41.856C123.833 41.696 123.495 41.616 123.143 41.616C122.791 41.616 122.452 41.696 122.127 41.856C121.801 42.0107 121.516 42.2693 121.271 42.632C121.025 42.9947 120.828 43.4747 120.679 44.072C120.535 44.664 120.463 45.3973 120.463 46.272C120.463 47.1467 120.535 47.88 120.679 48.472C120.828 49.064 121.025 49.5413 121.271 49.904C121.516 50.2667 121.801 50.528 122.127 50.688C122.452 50.8427 122.791 50.92 123.143 50.92C123.495 50.92 123.833 50.8427 124.159 50.688C124.484 50.528 124.769 50.2667 125.015 49.904C125.265 49.5413 125.463 49.064 125.607 48.472C125.756 47.88 125.831 47.1467 125.831 46.272ZM133 42.672V46.088H136.256V47.168H133V50.608H131.832V47.168H128.592V46.088H131.832V42.672H133Z" fill="white"/>
<path d="M78.6259 64.988C78.6259 65.7393 78.5069 66.423 78.2689 67.039C78.0309 67.655 77.6949 68.1823 77.2609 68.621C76.8269 69.0597 76.3065 69.4003 75.6999 69.643C75.0932 69.881 74.4212 70 73.6839 70H69.9319V59.969H73.6839C74.4212 59.969 75.0932 60.0903 75.6999 60.333C76.3065 60.571 76.8269 60.9117 77.2609 61.355C77.6949 61.7937 78.0309 62.321 78.2689 62.937C78.5069 63.553 78.6259 64.2367 78.6259 64.988ZM77.2329 64.988C77.2329 64.372 77.1489 63.8213 76.9809 63.336C76.8129 62.8507 76.5749 62.44 76.2669 62.104C75.9589 61.768 75.5855 61.5113 75.1469 61.334C74.7082 61.1567 74.2205 61.068 73.6839 61.068H71.2969V68.901H73.6839C74.2205 68.901 74.7082 68.8123 75.1469 68.635C75.5855 68.4577 75.9589 68.2033 76.2669 67.872C76.5749 67.536 76.8129 67.1253 76.9809 66.64C77.1489 66.1547 77.2329 65.604 77.2329 64.988ZM83.1469 62.797C83.6649 62.797 84.1315 62.8833 84.5469 63.056C84.9669 63.2287 85.3215 63.4737 85.6109 63.791C85.9049 64.1083 86.1289 64.4933 86.2829 64.946C86.4416 65.394 86.5209 65.8957 86.5209 66.451C86.5209 67.011 86.4416 67.515 86.2829 67.963C86.1289 68.411 85.9049 68.7937 85.6109 69.111C85.3215 69.4283 84.9669 69.6733 84.5469 69.846C84.1315 70.014 83.6649 70.098 83.1469 70.098C82.6289 70.098 82.1599 70.014 81.7399 69.846C81.3245 69.6733 80.9699 69.4283 80.6759 69.111C80.3819 68.7937 80.1555 68.411 79.9969 67.963C79.8382 67.515 79.7589 67.011 79.7589 66.451C79.7589 65.8957 79.8382 65.394 79.9969 64.946C80.1555 64.4933 80.3819 64.1083 80.6759 63.791C80.9699 63.4737 81.3245 63.2287 81.7399 63.056C82.1599 62.8833 82.6289 62.797 83.1469 62.797ZM83.1469 69.125C83.8469 69.125 84.3695 68.8917 84.7149 68.425C85.0602 67.9537 85.2329 67.298 85.2329 66.458C85.2329 65.6133 85.0602 64.9553 84.7149 64.484C84.3695 64.0127 83.8469 63.777 83.1469 63.777C82.7922 63.777 82.4842 63.8377 82.2229 63.959C81.9615 64.0803 81.7422 64.2553 81.5649 64.484C81.3922 64.7127 81.2615 64.995 81.1729 65.331C81.0889 65.6623 81.0469 66.038 81.0469 66.458C81.0469 66.878 81.0889 67.2537 81.1729 67.585C81.2615 67.9163 81.3922 68.1963 81.5649 68.425C81.7422 68.649 81.9615 68.8217 82.2229 68.943C82.4842 69.0643 82.7922 69.125 83.1469 69.125ZM87.1322 62.909H88.1122C88.2148 62.909 88.2988 62.9347 88.3642 62.986C88.4295 63.0373 88.4738 63.098 88.4972 63.168L89.8552 67.732C89.8925 67.9 89.9275 68.0633 89.9602 68.222C89.9928 68.376 90.0208 68.5323 90.0442 68.691C90.0815 68.5323 90.1235 68.376 90.1702 68.222C90.2168 68.0633 90.2658 67.9 90.3172 67.732L91.8152 63.14C91.8385 63.07 91.8782 63.0117 91.9342 62.965C91.9948 62.9183 92.0695 62.895 92.1582 62.895H92.6972C92.7905 62.895 92.8675 62.9183 92.9282 62.965C92.9888 63.0117 93.0308 63.07 93.0542 63.14L94.5172 67.732C94.5685 67.8953 94.6128 68.0563 94.6502 68.215C94.6922 68.3737 94.7318 68.53 94.7692 68.684C94.7925 68.53 94.8228 68.369 94.8602 68.201C94.8975 68.033 94.9372 67.8767 94.9792 67.732L96.3652 63.168C96.3885 63.0933 96.4328 63.0327 96.4982 62.986C96.5635 62.9347 96.6405 62.909 96.7292 62.909H97.6672L95.3712 70H94.3842C94.2628 70 94.1788 69.9207 94.1322 69.762L92.5642 64.953C92.5268 64.8457 92.4965 64.7383 92.4732 64.631C92.4498 64.519 92.4265 64.4093 92.4032 64.302C92.3798 64.4093 92.3565 64.519 92.3332 64.631C92.3098 64.743 92.2795 64.8527 92.2422 64.96L90.6532 69.762C90.6018 69.9207 90.5062 70 90.3662 70H89.4282L87.1322 62.909ZM98.7749 70V62.909H99.5169C99.6943 62.909 99.8063 62.9953 99.8529 63.168L99.9509 63.938C100.259 63.5973 100.602 63.322 100.98 63.112C101.363 62.902 101.804 62.797 102.303 62.797C102.69 62.797 103.031 62.8623 103.325 62.993C103.624 63.119 103.871 63.301 104.067 63.539C104.268 63.7723 104.419 64.0547 104.522 64.386C104.625 64.7173 104.676 65.0837 104.676 65.485V70H103.43V65.485C103.43 64.9483 103.306 64.533 103.059 64.239C102.816 63.9403 102.443 63.791 101.939 63.791C101.57 63.791 101.225 63.8797 100.903 64.057C100.586 64.2343 100.292 64.4747 100.021 64.778V70H98.7749ZM107.94 59.689V70H106.694V59.689H107.94ZM113.006 62.797C113.524 62.797 113.991 62.8833 114.406 63.056C114.826 63.2287 115.181 63.4737 115.47 63.791C115.764 64.1083 115.988 64.4933 116.142 64.946C116.301 65.394 116.38 65.8957 116.38 66.451C116.38 67.011 116.301 67.515 116.142 67.963C115.988 68.411 115.764 68.7937 115.47 69.111C115.181 69.4283 114.826 69.6733 114.406 69.846C113.991 70.014 113.524 70.098 113.006 70.098C112.488 70.098 112.019 70.014 111.599 69.846C111.184 69.6733 110.829 69.4283 110.535 69.111C110.241 68.7937 110.015 68.411 109.856 67.963C109.698 67.515 109.618 67.011 109.618 66.451C109.618 65.8957 109.698 65.394 109.856 64.946C110.015 64.4933 110.241 64.1083 110.535 63.791C110.829 63.4737 111.184 63.2287 111.599 63.056C112.019 62.8833 112.488 62.797 113.006 62.797ZM113.006 69.125C113.706 69.125 114.229 68.8917 114.574 68.425C114.92 67.9537 115.092 67.298 115.092 66.458C115.092 65.6133 114.92 64.9553 114.574 64.484C114.229 64.0127 113.706 63.777 113.006 63.777C112.652 63.777 112.344 63.8377 112.082 63.959C111.821 64.0803 111.602 64.2553 111.424 64.484C111.252 64.7127 111.121 64.995 111.032 65.331C110.948 65.6623 110.906 66.038 110.906 66.458C110.906 66.878 110.948 67.2537 111.032 67.585C111.121 67.9163 111.252 68.1963 111.424 68.425C111.602 68.649 111.821 68.8217 112.082 68.943C112.344 69.0643 112.652 69.125 113.006 69.125ZM123.124 70H122.571C122.449 70 122.351 69.9813 122.277 69.944C122.202 69.9067 122.153 69.8273 122.13 69.706L121.99 69.048C121.803 69.216 121.621 69.3677 121.444 69.503C121.266 69.6337 121.08 69.7457 120.884 69.839C120.688 69.9277 120.478 69.9953 120.254 70.042C120.034 70.0887 119.789 70.112 119.519 70.112C119.243 70.112 118.984 70.0747 118.742 70C118.504 69.9207 118.296 69.804 118.119 69.65C117.941 69.496 117.799 69.3023 117.692 69.069C117.589 68.831 117.538 68.551 117.538 68.229C117.538 67.949 117.615 67.6807 117.769 67.424C117.923 67.1627 118.17 66.9317 118.511 66.731C118.856 66.5303 119.306 66.367 119.862 66.241C120.417 66.1103 121.096 66.0357 121.899 66.017V65.464C121.899 64.9133 121.78 64.498 121.542 64.218C121.308 63.9333 120.961 63.791 120.499 63.791C120.195 63.791 119.939 63.8307 119.729 63.91C119.523 63.9847 119.344 64.071 119.19 64.169C119.04 64.2623 118.91 64.3487 118.798 64.428C118.69 64.5027 118.583 64.54 118.476 64.54C118.392 64.54 118.317 64.519 118.252 64.477C118.191 64.4303 118.142 64.3743 118.105 64.309L117.881 63.91C118.273 63.532 118.695 63.2497 119.148 63.063C119.6 62.8763 120.102 62.783 120.653 62.783C121.049 62.783 121.402 62.8483 121.71 62.979C122.018 63.1097 122.277 63.2917 122.487 63.525C122.697 63.7583 122.855 64.0407 122.963 64.372C123.07 64.7033 123.124 65.0673 123.124 65.464V70ZM119.89 69.237C120.109 69.237 120.31 69.216 120.492 69.174C120.674 69.1273 120.844 69.0643 121.003 68.985C121.166 68.901 121.32 68.8007 121.465 68.684C121.614 68.5673 121.759 68.4343 121.899 68.285V66.808C121.325 66.8267 120.837 66.8733 120.436 66.948C120.034 67.018 119.708 67.1113 119.456 67.228C119.204 67.3447 119.019 67.4823 118.903 67.641C118.791 67.7997 118.735 67.977 118.735 68.173C118.735 68.3597 118.765 68.5207 118.826 68.656C118.886 68.7913 118.968 68.9033 119.071 68.992C119.173 69.076 119.295 69.139 119.435 69.181C119.575 69.2183 119.726 69.237 119.89 69.237ZM130.002 70C129.825 70 129.713 69.9137 129.666 69.741L129.554 68.88C129.251 69.2487 128.903 69.545 128.511 69.769C128.124 69.9883 127.678 70.098 127.174 70.098C126.768 70.098 126.4 70.021 126.068 69.867C125.737 69.7083 125.455 69.4773 125.221 69.174C124.988 68.8707 124.808 68.4927 124.682 68.04C124.556 67.5873 124.493 67.067 124.493 66.479C124.493 65.9563 124.563 65.471 124.703 65.023C124.843 64.5703 125.044 64.1783 125.305 63.847C125.571 63.5157 125.893 63.2567 126.271 63.07C126.649 62.8787 127.079 62.783 127.559 62.783C127.993 62.783 128.364 62.8577 128.672 63.007C128.98 63.1517 129.256 63.357 129.498 63.623V59.689H130.744V70H130.002ZM127.587 69.09C127.993 69.09 128.348 68.9967 128.651 68.81C128.959 68.6233 129.242 68.3597 129.498 68.019V64.589C129.27 64.281 129.018 64.0663 128.742 63.945C128.472 63.819 128.171 63.756 127.839 63.756C127.177 63.756 126.668 63.9917 126.313 64.463C125.959 64.9343 125.781 65.6063 125.781 66.479C125.781 66.941 125.821 67.3377 125.9 67.669C125.98 67.9957 126.096 68.2663 126.25 68.481C126.404 68.691 126.593 68.845 126.817 68.943C127.041 69.041 127.298 69.09 127.587 69.09ZM136.892 64.078C136.836 64.1807 136.749 64.232 136.633 64.232C136.563 64.232 136.483 64.2063 136.395 64.155C136.306 64.1037 136.196 64.0477 136.066 63.987C135.94 63.9217 135.788 63.8633 135.611 63.812C135.433 63.756 135.223 63.728 134.981 63.728C134.771 63.728 134.582 63.756 134.414 63.812C134.246 63.8633 134.101 63.9357 133.98 64.029C133.863 64.1223 133.772 64.232 133.707 64.358C133.646 64.4793 133.616 64.6123 133.616 64.757C133.616 64.939 133.667 65.0907 133.77 65.212C133.877 65.3333 134.017 65.4383 134.19 65.527C134.362 65.6157 134.558 65.695 134.778 65.765C134.997 65.8303 135.221 65.9027 135.45 65.982C135.683 66.0567 135.909 66.1407 136.129 66.234C136.348 66.3273 136.544 66.444 136.717 66.584C136.889 66.724 137.027 66.8967 137.13 67.102C137.237 67.3027 137.291 67.5453 137.291 67.83C137.291 68.1567 137.232 68.46 137.116 68.74C136.999 69.0153 136.826 69.2557 136.598 69.461C136.369 69.6617 136.089 69.8203 135.758 69.937C135.426 70.0537 135.044 70.112 134.61 70.112C134.115 70.112 133.667 70.0327 133.266 69.874C132.864 69.7107 132.524 69.503 132.244 69.251L132.538 68.775C132.575 68.7143 132.619 68.6677 132.671 68.635C132.722 68.6023 132.79 68.586 132.874 68.586C132.958 68.586 133.046 68.6187 133.14 68.684C133.233 68.7493 133.345 68.8217 133.476 68.901C133.611 68.9803 133.772 69.0527 133.959 69.118C134.15 69.1833 134.388 69.216 134.673 69.216C134.915 69.216 135.128 69.1857 135.31 69.125C135.492 69.0597 135.643 68.9733 135.765 68.866C135.886 68.7587 135.975 68.635 136.031 68.495C136.091 68.355 136.122 68.2057 136.122 68.047C136.122 67.851 136.068 67.69 135.961 67.564C135.858 67.4333 135.72 67.3237 135.548 67.235C135.375 67.1417 135.177 67.0623 134.953 66.997C134.733 66.927 134.507 66.8547 134.274 66.78C134.045 66.7053 133.819 66.6213 133.595 66.528C133.375 66.43 133.179 66.3087 133.007 66.164C132.834 66.0193 132.694 65.842 132.587 65.632C132.484 65.4173 132.433 65.1583 132.433 64.855C132.433 64.5843 132.489 64.3253 132.601 64.078C132.713 63.826 132.876 63.6067 133.091 63.42C133.305 63.2287 133.569 63.077 133.882 62.965C134.194 62.853 134.551 62.797 134.953 62.797C135.419 62.797 135.837 62.8717 136.206 63.021C136.579 63.1657 136.901 63.3663 137.172 63.623L136.892 64.078Z" fill="white"/>
</g>
<path fill-rule="evenodd" clip-rule="evenodd" d="M260 31.0322C260 29.6515 261.119 28.5322 262.5 28.5322C263.881 28.5322 265 29.6515 265 31.0322V72.9072C265 74.2879 263.881 75.4072 262.5 75.4072C261.119 75.4072 260 74.2879 260 72.9072V31.0322ZM292.5 31.2496C291.119 31.2496 290 32.3689 290 33.7496V72.9072C290 74.288 291.119 75.4072 292.5 75.4072C293.881 75.4072 295 74.288 295 72.9072V33.7496C295 32.3689 293.881 31.2496 292.5 31.2496ZM202.5 37.3638C201.119 37.3638 200 38.483 200 39.8638V72.9072C200 74.288 201.119 75.4072 202.5 75.4072C203.881 75.4072 205 74.2879 205 72.9072V39.8638C205 38.483 203.881 37.3638 202.5 37.3638ZM217.5 49.592C216.119 49.592 215 50.7113 215 52.092V72.9073C215 74.288 216.119 75.4073 217.5 75.4073C218.881 75.4073 220 74.288 220 72.9073V52.092C220 50.7113 218.881 49.592 217.5 49.592ZM230 39.8638C230 38.4831 231.119 37.3638 232.5 37.3638C233.881 37.3638 235 38.4831 235 39.8638V72.9072C235 74.288 233.881 75.4072 232.5 75.4072C231.119 75.4072 230 74.288 230 72.9072V39.8638ZM305 46.6573C305 45.2766 306.119 44.1573 307.5 44.1573C308.881 44.1573 310 45.2766 310 46.6573V72.9073C310 74.288 308.881 75.4073 307.5 75.4073C306.119 75.4073 305 74.288 305 72.9073V46.6573ZM322.5 33.967C321.119 33.967 320 35.0863 320 36.467V72.9073C320 74.288 321.119 75.4073 322.5 75.4073C323.881 75.4073 325 74.288 325 72.9073V36.467C325 35.0863 323.881 33.967 322.5 33.967ZM335 54.8094C335 53.4287 336.119 52.3094 337.5 52.3094C338.881 52.3094 340 53.4287 340 54.8094V73.5866C340 74.9673 338.881 76.0866 337.5 76.0866C336.119 76.0866 335 74.9673 335 73.5866V54.8094ZM247.5 55.0268C246.119 55.0268 245 56.1461 245 57.5268V72.9072C245 74.2879 246.119 75.4072 247.5 75.4072C248.881 75.4072 250 74.2879 250 72.9072V57.5268C250 56.1461 248.881 55.0268 247.5 55.0268ZM277.5 37.3638C276.119 37.3638 275 38.4831 275 39.8638V72.9072C275 74.288 276.119 75.4072 277.5 75.4072C278.881 75.4072 280 74.288 280 72.9072V39.8638C280 38.4831 278.881 37.3638 277.5 37.3638Z" fill="white"/>
<defs>
<clipPath id="clip0">
<rect width="83.5143" height="44" fill="white" transform="translate(68.7139 30)"/>
</clipPath>
</defs>
</svg>
