<svg width="370" height="110" viewBox="0 0 370 110" fill="none" xmlns="http://www.w3.org/2000/svg">
<rect opacity="0.7" width="370" height="110" rx="10" fill="white"/>
<path d="M104.824 39.16C104.824 39.3627 104.76 39.5307 104.632 39.664C104.504 39.792 104.288 39.856 103.984 39.856H100.384L99.856 42.864C100.453 42.736 101.005 42.672 101.512 42.672C102.109 42.672 102.635 42.76 103.088 42.936C103.547 43.112 103.931 43.3547 104.24 43.664C104.549 43.9733 104.781 44.3387 104.936 44.76C105.096 45.1813 105.176 45.64 105.176 46.136C105.176 46.744 105.069 47.2933 104.856 47.784C104.643 48.2747 104.349 48.696 103.976 49.048C103.608 49.3947 103.173 49.6613 102.672 49.848C102.171 50.0347 101.629 50.128 101.048 50.128C100.712 50.128 100.389 50.0933 100.08 50.024C99.7707 49.96 99.4827 49.872 99.216 49.76C98.9493 49.648 98.7013 49.52 98.472 49.376C98.2427 49.232 98.04 49.08 97.864 48.92L98.296 48.312C98.392 48.1733 98.52 48.104 98.68 48.104C98.7813 48.104 98.8987 48.1467 99.032 48.232C99.1707 48.312 99.336 48.4027 99.528 48.504C99.72 48.6053 99.944 48.6987 100.2 48.784C100.461 48.864 100.771 48.904 101.128 48.904C101.528 48.904 101.888 48.84 102.208 48.712C102.528 48.584 102.8 48.4027 103.024 48.168C103.253 47.928 103.429 47.6427 103.552 47.312C103.675 46.9813 103.736 46.6107 103.736 46.2C103.736 45.8427 103.683 45.52 103.576 45.232C103.475 44.944 103.317 44.6987 103.104 44.496C102.896 44.2933 102.635 44.136 102.32 44.024C102.005 43.912 101.637 43.856 101.216 43.856C100.928 43.856 100.629 43.88 100.32 43.928C100.011 43.976 99.6907 44.0533 99.36 44.16L98.464 43.896L99.392 38.536H104.824V39.16ZM107.033 49.016C107.033 48.8933 107.055 48.7787 107.097 48.672C107.145 48.56 107.209 48.464 107.289 48.384C107.375 48.2987 107.476 48.232 107.593 48.184C107.711 48.136 107.839 48.112 107.977 48.112C108.137 48.112 108.279 48.1413 108.401 48.2C108.529 48.2587 108.633 48.3413 108.713 48.448C108.799 48.5493 108.863 48.6693 108.905 48.808C108.948 48.9413 108.969 49.088 108.969 49.248C108.969 49.488 108.935 49.7387 108.865 50C108.796 50.256 108.697 50.5093 108.569 50.76C108.441 51.016 108.281 51.264 108.089 51.504C107.903 51.744 107.689 51.9653 107.449 52.168L107.209 51.936C107.14 51.872 107.105 51.7973 107.105 51.712C107.105 51.6427 107.143 51.5707 107.217 51.496C107.271 51.4373 107.337 51.3573 107.417 51.256C107.503 51.16 107.588 51.048 107.673 50.92C107.759 50.792 107.836 50.6507 107.905 50.496C107.98 50.3413 108.033 50.176 108.065 50H107.961C107.823 50 107.697 49.976 107.585 49.928C107.473 49.88 107.375 49.8133 107.289 49.728C107.209 49.6373 107.145 49.5333 107.097 49.416C107.055 49.2933 107.033 49.16 107.033 49.016ZM118.472 44.272C118.472 45.2747 118.363 46.144 118.144 46.88C117.931 47.6107 117.637 48.216 117.264 48.696C116.891 49.176 116.448 49.5333 115.936 49.768C115.429 50.0027 114.885 50.12 114.304 50.12C113.717 50.12 113.171 50.0027 112.664 49.768C112.163 49.5333 111.725 49.176 111.352 48.696C110.979 48.216 110.685 47.6107 110.472 46.88C110.259 46.144 110.152 45.2747 110.152 44.272C110.152 43.2693 110.259 42.4 110.472 41.664C110.685 40.928 110.979 40.32 111.352 39.84C111.725 39.3547 112.163 38.9947 112.664 38.76C113.171 38.5253 113.717 38.408 114.304 38.408C114.885 38.408 115.429 38.5253 115.936 38.76C116.448 38.9947 116.891 39.3547 117.264 39.84C117.637 40.32 117.931 40.928 118.144 41.664C118.363 42.4 118.472 43.2693 118.472 44.272ZM116.992 44.272C116.992 43.3973 116.917 42.664 116.768 42.072C116.624 41.4747 116.427 40.9947 116.176 40.632C115.931 40.2693 115.645 40.0107 115.32 39.856C114.995 39.696 114.656 39.616 114.304 39.616C113.952 39.616 113.613 39.696 113.288 39.856C112.963 40.0107 112.677 40.2693 112.432 40.632C112.187 40.9947 111.989 41.4747 111.84 42.072C111.696 42.664 111.624 43.3973 111.624 44.272C111.624 45.1467 111.696 45.88 111.84 46.472C111.989 47.064 112.187 47.5413 112.432 47.904C112.677 48.2667 112.963 48.528 113.288 48.688C113.613 48.8427 113.952 48.92 114.304 48.92C114.656 48.92 114.995 48.8427 115.32 48.688C115.645 48.528 115.931 48.2667 116.176 47.904C116.427 47.5413 116.624 47.064 116.768 46.472C116.917 45.88 116.992 45.1467 116.992 44.272ZM127.753 44.272C127.753 45.2747 127.644 46.144 127.425 46.88C127.212 47.6107 126.918 48.216 126.545 48.696C126.172 49.176 125.729 49.5333 125.217 49.768C124.71 50.0027 124.166 50.12 123.585 50.12C122.998 50.12 122.452 50.0027 121.945 49.768C121.444 49.5333 121.006 49.176 120.633 48.696C120.26 48.216 119.966 47.6107 119.753 46.88C119.54 46.144 119.433 45.2747 119.433 44.272C119.433 43.2693 119.54 42.4 119.753 41.664C119.966 40.928 120.26 40.32 120.633 39.84C121.006 39.3547 121.444 38.9947 121.945 38.76C122.452 38.5253 122.998 38.408 123.585 38.408C124.166 38.408 124.71 38.5253 125.217 38.76C125.729 38.9947 126.172 39.3547 126.545 39.84C126.918 40.32 127.212 40.928 127.425 41.664C127.644 42.4 127.753 43.2693 127.753 44.272ZM126.273 44.272C126.273 43.3973 126.198 42.664 126.049 42.072C125.905 41.4747 125.708 40.9947 125.457 40.632C125.212 40.2693 124.926 40.0107 124.601 39.856C124.276 39.696 123.937 39.616 123.585 39.616C123.233 39.616 122.894 39.696 122.569 39.856C122.244 40.0107 121.958 40.2693 121.713 40.632C121.468 40.9947 121.27 41.4747 121.121 42.072C120.977 42.664 120.905 43.3973 120.905 44.272C120.905 45.1467 120.977 45.88 121.121 46.472C121.27 47.064 121.468 47.5413 121.713 47.904C121.958 48.2667 122.244 48.528 122.569 48.688C122.894 48.8427 123.233 48.92 123.585 48.92C123.937 48.92 124.276 48.8427 124.601 48.688C124.926 48.528 125.212 48.2667 125.457 47.904C125.708 47.5413 125.905 47.064 126.049 46.472C126.198 45.88 126.273 45.1467 126.273 44.272ZM137.034 44.272C137.034 45.2747 136.925 46.144 136.706 46.88C136.493 47.6107 136.2 48.216 135.826 48.696C135.453 49.176 135.01 49.5333 134.498 49.768C133.992 50.0027 133.448 50.12 132.866 50.12C132.28 50.12 131.733 50.0027 131.226 49.768C130.725 49.5333 130.288 49.176 129.914 48.696C129.541 48.216 129.248 47.6107 129.034 46.88C128.821 46.144 128.714 45.2747 128.714 44.272C128.714 43.2693 128.821 42.4 129.034 41.664C129.248 40.928 129.541 40.32 129.914 39.84C130.288 39.3547 130.725 38.9947 131.226 38.76C131.733 38.5253 132.28 38.408 132.866 38.408C133.448 38.408 133.992 38.5253 134.498 38.76C135.01 38.9947 135.453 39.3547 135.826 39.84C136.2 40.32 136.493 40.928 136.706 41.664C136.925 42.4 137.034 43.2693 137.034 44.272ZM135.554 44.272C135.554 43.3973 135.48 42.664 135.33 42.072C135.186 41.4747 134.989 40.9947 134.738 40.632C134.493 40.2693 134.208 40.0107 133.882 39.856C133.557 39.696 133.218 39.616 132.866 39.616C132.514 39.616 132.176 39.696 131.85 39.856C131.525 40.0107 131.24 40.2693 130.994 40.632C130.749 40.9947 130.552 41.4747 130.402 42.072C130.258 42.664 130.186 43.3973 130.186 44.272C130.186 45.1467 130.258 45.88 130.402 46.472C130.552 47.064 130.749 47.5413 130.994 47.904C131.24 48.2667 131.525 48.528 131.85 48.688C132.176 48.8427 132.514 48.92 132.866 48.92C133.218 48.92 133.557 48.8427 133.882 48.688C134.208 48.528 134.493 48.2667 134.738 47.904C134.989 47.5413 135.186 47.064 135.33 46.472C135.48 45.88 135.554 45.1467 135.554 44.272ZM138.268 49.016C138.268 48.8933 138.289 48.7787 138.332 48.672C138.38 48.56 138.444 48.464 138.524 48.384C138.609 48.2987 138.71 48.232 138.828 48.184C138.945 48.136 139.073 48.112 139.212 48.112C139.372 48.112 139.513 48.1413 139.636 48.2C139.764 48.2587 139.868 48.3413 139.948 48.448C140.033 48.5493 140.097 48.6693 140.14 48.808C140.182 48.9413 140.204 49.088 140.204 49.248C140.204 49.488 140.169 49.7387 140.1 50C140.03 50.256 139.932 50.5093 139.804 50.76C139.676 51.016 139.516 51.264 139.324 51.504C139.137 51.744 138.924 51.9653 138.684 52.168L138.444 51.936C138.374 51.872 138.34 51.7973 138.34 51.712C138.34 51.6427 138.377 51.5707 138.452 51.496C138.505 51.4373 138.572 51.3573 138.652 51.256C138.737 51.16 138.822 51.048 138.908 50.92C138.993 50.792 139.07 50.6507 139.14 50.496C139.214 50.3413 139.268 50.176 139.3 50H139.196C139.057 50 138.932 49.976 138.82 49.928C138.708 49.88 138.609 49.8133 138.524 49.728C138.444 49.6373 138.38 49.5333 138.332 49.416C138.289 49.2933 138.268 49.16 138.268 49.016ZM149.706 44.272C149.706 45.2747 149.597 46.144 149.378 46.88C149.165 47.6107 148.872 48.216 148.498 48.696C148.125 49.176 147.682 49.5333 147.17 49.768C146.664 50.0027 146.12 50.12 145.538 50.12C144.952 50.12 144.405 50.0027 143.898 49.768C143.397 49.5333 142.96 49.176 142.586 48.696C142.213 48.216 141.92 47.6107 141.706 46.88C141.493 46.144 141.386 45.2747 141.386 44.272C141.386 43.2693 141.493 42.4 141.706 41.664C141.92 40.928 142.213 40.32 142.586 39.84C142.96 39.3547 143.397 38.9947 143.898 38.76C144.405 38.5253 144.952 38.408 145.538 38.408C146.12 38.408 146.664 38.5253 147.17 38.76C147.682 38.9947 148.125 39.3547 148.498 39.84C148.872 40.32 149.165 40.928 149.378 41.664C149.597 42.4 149.706 43.2693 149.706 44.272ZM148.226 44.272C148.226 43.3973 148.152 42.664 148.002 42.072C147.858 41.4747 147.661 40.9947 147.41 40.632C147.165 40.2693 146.88 40.0107 146.554 39.856C146.229 39.696 145.89 39.616 145.538 39.616C145.186 39.616 144.848 39.696 144.522 39.856C144.197 40.0107 143.912 40.2693 143.666 40.632C143.421 40.9947 143.224 41.4747 143.074 42.072C142.93 42.664 142.858 43.3973 142.858 44.272C142.858 45.1467 142.93 45.88 143.074 46.472C143.224 47.064 143.421 47.5413 143.666 47.904C143.912 48.2667 144.197 48.528 144.522 48.688C144.848 48.8427 145.186 48.92 145.538 48.92C145.89 48.92 146.229 48.8427 146.554 48.688C146.88 48.528 147.165 48.2667 147.41 47.904C147.661 47.5413 147.858 47.064 148.002 46.472C148.152 45.88 148.226 45.1467 148.226 44.272ZM158.988 44.272C158.988 45.2747 158.878 46.144 158.66 46.88C158.446 47.6107 158.153 48.216 157.78 48.696C157.406 49.176 156.964 49.5333 156.452 49.768C155.945 50.0027 155.401 50.12 154.82 50.12C154.233 50.12 153.686 50.0027 153.18 49.768C152.678 49.5333 152.241 49.176 151.868 48.696C151.494 48.216 151.201 47.6107 150.988 46.88C150.774 46.144 150.668 45.2747 150.668 44.272C150.668 43.2693 150.774 42.4 150.988 41.664C151.201 40.928 151.494 40.32 151.868 39.84C152.241 39.3547 152.678 38.9947 153.18 38.76C153.686 38.5253 154.233 38.408 154.82 38.408C155.401 38.408 155.945 38.5253 156.452 38.76C156.964 38.9947 157.406 39.3547 157.78 39.84C158.153 40.32 158.446 40.928 158.66 41.664C158.878 42.4 158.988 43.2693 158.988 44.272ZM157.508 44.272C157.508 43.3973 157.433 42.664 157.284 42.072C157.14 41.4747 156.942 40.9947 156.692 40.632C156.446 40.2693 156.161 40.0107 155.836 39.856C155.51 39.696 155.172 39.616 154.82 39.616C154.468 39.616 154.129 39.696 153.804 39.856C153.478 40.0107 153.193 40.2693 152.948 40.632C152.702 40.9947 152.505 41.4747 152.356 42.072C152.212 42.664 152.14 43.3973 152.14 44.272C152.14 45.1467 152.212 45.88 152.356 46.472C152.505 47.064 152.702 47.5413 152.948 47.904C153.193 48.2667 153.478 48.528 153.804 48.688C154.129 48.8427 154.468 48.92 154.82 48.92C155.172 48.92 155.51 48.8427 155.836 48.688C156.161 48.528 156.446 48.2667 156.692 47.904C156.942 47.5413 157.14 47.064 157.284 46.472C157.433 45.88 157.508 45.1467 157.508 44.272ZM168.269 44.272C168.269 45.2747 168.159 46.144 167.941 46.88C167.727 47.6107 167.434 48.216 167.061 48.696C166.687 49.176 166.245 49.5333 165.733 49.768C165.226 50.0027 164.682 50.12 164.101 50.12C163.514 50.12 162.967 50.0027 162.461 49.768C161.959 49.5333 161.522 49.176 161.149 48.696C160.775 48.216 160.482 47.6107 160.269 46.88C160.055 46.144 159.949 45.2747 159.949 44.272C159.949 43.2693 160.055 42.4 160.269 41.664C160.482 40.928 160.775 40.32 161.149 39.84C161.522 39.3547 161.959 38.9947 162.461 38.76C162.967 38.5253 163.514 38.408 164.101 38.408C164.682 38.408 165.226 38.5253 165.733 38.76C166.245 38.9947 166.687 39.3547 167.061 39.84C167.434 40.32 167.727 40.928 167.941 41.664C168.159 42.4 168.269 43.2693 168.269 44.272ZM166.789 44.272C166.789 43.3973 166.714 42.664 166.565 42.072C166.421 41.4747 166.223 40.9947 165.973 40.632C165.727 40.2693 165.442 40.0107 165.117 39.856C164.791 39.696 164.453 39.616 164.101 39.616C163.749 39.616 163.41 39.696 163.085 39.856C162.759 40.0107 162.474 40.2693 162.229 40.632C161.983 40.9947 161.786 41.4747 161.637 42.072C161.493 42.664 161.421 43.3973 161.421 44.272C161.421 45.1467 161.493 45.88 161.637 46.472C161.786 47.064 161.983 47.5413 162.229 47.904C162.474 48.2667 162.759 48.528 163.085 48.688C163.41 48.8427 163.749 48.92 164.101 48.92C164.453 48.92 164.791 48.8427 165.117 48.688C165.442 48.528 165.727 48.2667 165.973 47.904C166.223 47.5413 166.421 47.064 166.565 46.472C166.714 45.88 166.789 45.1467 166.789 44.272ZM173.958 40.672V44.088H177.214V45.168H173.958V48.608H172.79V45.168H169.55V44.088H172.79V40.672H173.958Z" fill="#141821"/>
<path d="M105.05 59.969V61.11H101.809V70H100.451V61.11H97.196V59.969H105.05ZM105.159 70V62.909H105.873C106.008 62.909 106.101 62.9347 106.153 62.986C106.204 63.0373 106.239 63.126 106.258 63.252L106.342 64.358C106.584 63.8633 106.883 63.4783 107.238 63.203C107.597 62.923 108.017 62.783 108.498 62.783C108.694 62.783 108.871 62.8063 109.03 62.853C109.188 62.895 109.335 62.9557 109.471 63.035L109.31 63.966C109.277 64.0827 109.205 64.141 109.093 64.141C109.027 64.141 108.927 64.12 108.792 64.078C108.656 64.0313 108.467 64.008 108.225 64.008C107.791 64.008 107.427 64.134 107.133 64.386C106.843 64.638 106.601 65.0043 106.405 65.485V70H105.159ZM115.753 70H115.2C115.079 70 114.981 69.9813 114.906 69.944C114.832 69.9067 114.783 69.8273 114.759 69.706L114.619 69.048C114.433 69.216 114.251 69.3677 114.073 69.503C113.896 69.6337 113.709 69.7457 113.513 69.839C113.317 69.9277 113.107 69.9953 112.883 70.042C112.664 70.0887 112.419 70.112 112.148 70.112C111.873 70.112 111.614 70.0747 111.371 70C111.133 69.9207 110.926 69.804 110.748 69.65C110.571 69.496 110.429 69.3023 110.321 69.069C110.219 68.831 110.167 68.551 110.167 68.229C110.167 67.949 110.244 67.6807 110.398 67.424C110.552 67.1627 110.8 66.9317 111.14 66.731C111.486 66.5303 111.936 66.367 112.491 66.241C113.047 66.1103 113.726 66.0357 114.528 66.017V65.464C114.528 64.9133 114.409 64.498 114.171 64.218C113.938 63.9333 113.59 63.791 113.128 63.791C112.825 63.791 112.568 63.8307 112.358 63.91C112.153 63.9847 111.973 64.071 111.819 64.169C111.67 64.2623 111.539 64.3487 111.427 64.428C111.32 64.5027 111.213 64.54 111.105 64.54C111.021 64.54 110.947 64.519 110.881 64.477C110.821 64.4303 110.772 64.3743 110.734 64.309L110.51 63.91C110.902 63.532 111.325 63.2497 111.777 63.063C112.23 62.8763 112.732 62.783 113.282 62.783C113.679 62.783 114.031 62.8483 114.339 62.979C114.647 63.1097 114.906 63.2917 115.116 63.525C115.326 63.7583 115.485 64.0407 115.592 64.372C115.7 64.7033 115.753 65.0673 115.753 65.464V70ZM112.519 69.237C112.739 69.237 112.939 69.216 113.121 69.174C113.303 69.1273 113.474 69.0643 113.632 68.985C113.796 68.901 113.95 68.8007 114.094 68.684C114.244 68.5673 114.388 68.4343 114.528 68.285V66.808C113.954 66.8267 113.467 66.8733 113.065 66.948C112.664 67.018 112.337 67.1113 112.085 67.228C111.833 67.3447 111.649 67.4823 111.532 67.641C111.42 67.7997 111.364 67.977 111.364 68.173C111.364 68.3597 111.395 68.5207 111.455 68.656C111.516 68.7913 111.598 68.9033 111.7 68.992C111.803 69.076 111.924 69.139 112.064 69.181C112.204 69.2183 112.356 69.237 112.519 69.237ZM122.632 70C122.455 70 122.343 69.9137 122.296 69.741L122.184 68.88C121.881 69.2487 121.533 69.545 121.141 69.769C120.754 69.9883 120.308 70.098 119.804 70.098C119.398 70.098 119.029 70.021 118.698 69.867C118.367 69.7083 118.084 69.4773 117.851 69.174C117.618 68.8707 117.438 68.4927 117.312 68.04C117.186 67.5873 117.123 67.067 117.123 66.479C117.123 65.9563 117.193 65.471 117.333 65.023C117.473 64.5703 117.674 64.1783 117.935 63.847C118.201 63.5157 118.523 63.2567 118.901 63.07C119.279 62.8787 119.708 62.783 120.189 62.783C120.623 62.783 120.994 62.8577 121.302 63.007C121.61 63.1517 121.885 63.357 122.128 63.623V59.689H123.374V70H122.632ZM120.217 69.09C120.623 69.09 120.978 68.9967 121.281 68.81C121.589 68.6233 121.871 68.3597 122.128 68.019V64.589C121.899 64.281 121.647 64.0663 121.372 63.945C121.101 63.819 120.8 63.756 120.469 63.756C119.806 63.756 119.298 63.9917 118.943 64.463C118.588 64.9343 118.411 65.6063 118.411 66.479C118.411 66.941 118.451 67.3377 118.53 67.669C118.609 67.9957 118.726 68.2663 118.88 68.481C119.034 68.691 119.223 68.845 119.447 68.943C119.671 69.041 119.928 69.09 120.217 69.09ZM126.847 62.909V70H125.601V62.909H126.847ZM127.127 60.683C127.127 60.8043 127.102 60.9187 127.05 61.026C127.004 61.1287 126.938 61.222 126.854 61.306C126.775 61.3853 126.682 61.4483 126.574 61.495C126.467 61.5417 126.353 61.565 126.231 61.565C126.11 61.565 125.996 61.5417 125.888 61.495C125.786 61.4483 125.692 61.3853 125.608 61.306C125.529 61.222 125.466 61.1287 125.419 61.026C125.373 60.9187 125.349 60.8043 125.349 60.683C125.349 60.5617 125.373 60.4473 125.419 60.34C125.466 60.228 125.529 60.1323 125.608 60.053C125.692 59.969 125.786 59.9037 125.888 59.857C125.996 59.8103 126.11 59.787 126.231 59.787C126.353 59.787 126.467 59.8103 126.574 59.857C126.682 59.9037 126.775 59.969 126.854 60.053C126.938 60.1323 127.004 60.228 127.05 60.34C127.102 60.4473 127.127 60.5617 127.127 60.683ZM129.043 70V62.909H129.785C129.963 62.909 130.075 62.9953 130.121 63.168L130.219 63.938C130.527 63.5973 130.87 63.322 131.248 63.112C131.631 62.902 132.072 62.797 132.571 62.797C132.959 62.797 133.299 62.8623 133.593 62.993C133.892 63.119 134.139 63.301 134.335 63.539C134.536 63.7723 134.688 64.0547 134.79 64.386C134.893 64.7173 134.944 65.0837 134.944 65.485V70H133.698V65.485C133.698 64.9483 133.575 64.533 133.327 64.239C133.085 63.9403 132.711 63.791 132.207 63.791C131.839 63.791 131.493 63.8797 131.171 64.057C130.854 64.2343 130.56 64.4747 130.289 64.778V70H129.043ZM139.21 62.79C139.518 62.79 139.805 62.825 140.071 62.895C140.341 62.9603 140.586 63.0583 140.806 63.189H142.731V63.651C142.731 63.805 142.633 63.903 142.437 63.945L141.632 64.057C141.79 64.3603 141.87 64.6987 141.87 65.072C141.87 65.4173 141.802 65.7323 141.667 66.017C141.536 66.297 141.352 66.5373 141.114 66.738C140.88 66.9387 140.6 67.0927 140.274 67.2C139.952 67.3073 139.597 67.361 139.21 67.361C138.878 67.361 138.566 67.3213 138.272 67.242C138.122 67.3353 138.008 67.4357 137.929 67.543C137.854 67.6503 137.817 67.7553 137.817 67.858C137.817 68.026 137.884 68.1543 138.02 68.243C138.155 68.327 138.335 68.3877 138.559 68.425C138.783 68.4623 139.037 68.4857 139.322 68.495C139.606 68.5043 139.896 68.5207 140.19 68.544C140.488 68.5627 140.78 68.5977 141.065 68.649C141.349 68.7003 141.604 68.7843 141.828 68.901C142.052 69.0177 142.231 69.1787 142.367 69.384C142.502 69.5893 142.57 69.8553 142.57 70.182C142.57 70.4853 142.493 70.7793 142.339 71.064C142.189 71.3487 141.972 71.6007 141.688 71.82C141.403 72.044 141.055 72.2213 140.645 72.352C140.234 72.4873 139.77 72.555 139.252 72.555C138.734 72.555 138.279 72.5037 137.887 72.401C137.499 72.2983 137.177 72.1607 136.921 71.988C136.664 71.8153 136.47 71.6147 136.34 71.386C136.214 71.162 136.151 70.9263 136.151 70.679C136.151 70.329 136.26 70.0327 136.48 69.79C136.704 69.5427 137.009 69.3467 137.397 69.202C137.196 69.1087 137.035 68.985 136.914 68.831C136.797 68.6723 136.739 68.4623 136.739 68.201C136.739 68.0983 136.757 67.9933 136.795 67.886C136.832 67.774 136.888 67.6643 136.963 67.557C137.042 67.4497 137.138 67.347 137.25 67.249C137.362 67.151 137.492 67.0647 137.642 66.99C137.292 66.794 137.016 66.535 136.816 66.213C136.62 65.8863 136.522 65.506 136.522 65.072C136.522 64.7267 136.587 64.414 136.718 64.134C136.853 63.8493 137.04 63.609 137.278 63.413C137.516 63.2123 137.798 63.0583 138.125 62.951C138.456 62.8437 138.818 62.79 139.21 62.79ZM141.422 70.385C141.422 70.2077 141.373 70.0653 141.275 69.958C141.177 69.8507 141.044 69.769 140.876 69.713C140.708 69.6523 140.514 69.608 140.295 69.58C140.075 69.552 139.844 69.5333 139.602 69.524C139.359 69.51 139.112 69.496 138.86 69.482C138.608 69.468 138.367 69.4423 138.139 69.405C137.873 69.531 137.656 69.685 137.488 69.867C137.324 70.049 137.243 70.266 137.243 70.518C137.243 70.6767 137.282 70.8237 137.362 70.959C137.446 71.099 137.572 71.218 137.74 71.316C137.908 71.4187 138.118 71.498 138.37 71.554C138.626 71.6147 138.927 71.645 139.273 71.645C139.609 71.645 139.91 71.6147 140.176 71.554C140.442 71.4933 140.666 71.407 140.848 71.295C141.034 71.183 141.177 71.05 141.275 70.896C141.373 70.742 141.422 70.5717 141.422 70.385ZM139.21 66.535C139.462 66.535 139.683 66.5 139.875 66.43C140.071 66.36 140.234 66.262 140.365 66.136C140.495 66.01 140.593 65.8607 140.659 65.688C140.724 65.5107 140.757 65.317 140.757 65.107C140.757 64.673 140.624 64.3277 140.358 64.071C140.096 63.8143 139.714 63.686 139.21 63.686C138.71 63.686 138.328 63.8143 138.062 64.071C137.8 64.3277 137.67 64.673 137.67 65.107C137.67 65.317 137.702 65.5107 137.768 65.688C137.838 65.8607 137.938 66.01 138.069 66.136C138.199 66.262 138.36 66.36 138.552 66.43C138.743 66.5 138.962 66.535 139.21 66.535ZM152.014 61.537C151.972 61.607 151.928 61.6607 151.881 61.698C151.835 61.7307 151.774 61.747 151.699 61.747C151.62 61.747 151.527 61.7073 151.419 61.628C151.317 61.5487 151.184 61.4623 151.02 61.369C150.862 61.271 150.668 61.1823 150.439 61.103C150.215 61.0237 149.942 60.984 149.62 60.984C149.317 60.984 149.049 61.026 148.815 61.11C148.582 61.1893 148.386 61.299 148.227 61.439C148.073 61.579 147.957 61.7447 147.877 61.936C147.798 62.1227 147.758 62.3257 147.758 62.545C147.758 62.825 147.826 63.0583 147.961 63.245C148.101 63.427 148.283 63.5833 148.507 63.714C148.736 63.8447 148.993 63.959 149.277 64.057C149.567 64.1503 149.861 64.2483 150.159 64.351C150.463 64.4537 150.757 64.5703 151.041 64.701C151.331 64.827 151.587 64.988 151.811 65.184C152.04 65.38 152.222 65.6203 152.357 65.905C152.497 66.1897 152.567 66.5397 152.567 66.955C152.567 67.3937 152.493 67.8067 152.343 68.194C152.194 68.5767 151.975 68.9103 151.685 69.195C151.401 69.4797 151.048 69.7037 150.628 69.867C150.213 70.0303 149.739 70.112 149.207 70.112C148.559 70.112 147.966 69.9953 147.429 69.762C146.897 69.524 146.442 69.2043 146.064 68.803L146.456 68.159C146.494 68.1077 146.538 68.0657 146.589 68.033C146.645 67.9957 146.706 67.977 146.771 67.977C146.869 67.977 146.981 68.0307 147.107 68.138C147.233 68.2407 147.39 68.355 147.576 68.481C147.768 68.607 147.996 68.7237 148.262 68.831C148.533 68.9337 148.862 68.985 149.249 68.985C149.571 68.985 149.858 68.9407 150.11 68.852C150.362 68.7633 150.575 68.6397 150.747 68.481C150.925 68.3177 151.06 68.124 151.153 67.9C151.247 67.676 151.293 67.4263 151.293 67.151C151.293 66.8477 151.223 66.6003 151.083 66.409C150.948 66.213 150.768 66.0497 150.544 65.919C150.32 65.7883 150.064 65.6787 149.774 65.59C149.49 65.4967 149.196 65.4033 148.892 65.31C148.594 65.212 148.3 65.1 148.01 64.974C147.726 64.848 147.471 64.6847 147.247 64.484C147.023 64.2833 146.841 64.0337 146.701 63.735C146.566 63.4317 146.498 63.0583 146.498 62.615C146.498 62.2603 146.566 61.9173 146.701 61.586C146.841 61.2547 147.042 60.9607 147.303 60.704C147.565 60.4473 147.887 60.242 148.269 60.088C148.657 59.934 149.1 59.857 149.599 59.857C150.159 59.857 150.67 59.9457 151.132 60.123C151.594 60.3003 151.998 60.557 152.343 60.893L152.014 61.537ZM156.911 62.797C157.336 62.797 157.728 62.8693 158.087 63.014C158.446 63.154 158.757 63.3593 159.018 63.63C159.279 63.896 159.482 64.2273 159.627 64.624C159.776 65.016 159.851 65.464 159.851 65.968C159.851 66.164 159.83 66.2947 159.788 66.36C159.746 66.4253 159.667 66.458 159.55 66.458H154.832C154.841 66.906 154.902 67.2957 155.014 67.627C155.126 67.9583 155.28 68.236 155.476 68.46C155.672 68.6793 155.905 68.845 156.176 68.957C156.447 69.0643 156.75 69.118 157.086 69.118C157.399 69.118 157.667 69.083 157.891 69.013C158.12 68.9383 158.316 68.859 158.479 68.775C158.642 68.691 158.778 68.614 158.885 68.544C158.997 68.4693 159.093 68.432 159.172 68.432C159.275 68.432 159.354 68.4717 159.41 68.551L159.76 69.006C159.606 69.1927 159.422 69.356 159.207 69.496C158.992 69.6313 158.761 69.7433 158.514 69.832C158.271 69.9207 158.019 69.986 157.758 70.028C157.497 70.0747 157.238 70.098 156.981 70.098C156.491 70.098 156.038 70.0163 155.623 69.853C155.212 69.685 154.855 69.4423 154.552 69.125C154.253 68.803 154.02 68.4063 153.852 67.935C153.684 67.4637 153.6 66.9223 153.6 66.311C153.6 65.8163 153.675 65.3543 153.824 64.925C153.978 64.4957 154.197 64.1247 154.482 63.812C154.767 63.4947 155.114 63.2473 155.525 63.07C155.936 62.888 156.398 62.797 156.911 62.797ZM156.939 63.714C156.337 63.714 155.863 63.889 155.518 64.239C155.173 64.5843 154.958 65.065 154.874 65.681H158.731C158.731 65.3917 158.691 65.128 158.612 64.89C158.533 64.6473 158.416 64.4397 158.262 64.267C158.108 64.0897 157.919 63.9543 157.695 63.861C157.476 63.763 157.224 63.714 156.939 63.714ZM165.506 64.078C165.45 64.1807 165.363 64.232 165.247 64.232C165.177 64.232 165.097 64.2063 165.009 64.155C164.92 64.1037 164.81 64.0477 164.68 63.987C164.554 63.9217 164.402 63.8633 164.225 63.812C164.047 63.756 163.837 63.728 163.595 63.728C163.385 63.728 163.196 63.756 163.028 63.812C162.86 63.8633 162.715 63.9357 162.594 64.029C162.477 64.1223 162.386 64.232 162.321 64.358C162.26 64.4793 162.23 64.6123 162.23 64.757C162.23 64.939 162.281 65.0907 162.384 65.212C162.491 65.3333 162.631 65.4383 162.804 65.527C162.976 65.6157 163.172 65.695 163.392 65.765C163.611 65.8303 163.835 65.9027 164.064 65.982C164.297 66.0567 164.523 66.1407 164.743 66.234C164.962 66.3273 165.158 66.444 165.331 66.584C165.503 66.724 165.641 66.8967 165.744 67.102C165.851 67.3027 165.905 67.5453 165.905 67.83C165.905 68.1567 165.846 68.46 165.73 68.74C165.613 69.0153 165.44 69.2557 165.212 69.461C164.983 69.6617 164.703 69.8203 164.372 69.937C164.04 70.0537 163.658 70.112 163.224 70.112C162.729 70.112 162.281 70.0327 161.88 69.874C161.478 69.7107 161.138 69.503 160.858 69.251L161.152 68.775C161.189 68.7143 161.233 68.6677 161.285 68.635C161.336 68.6023 161.404 68.586 161.488 68.586C161.572 68.586 161.66 68.6187 161.754 68.684C161.847 68.7493 161.959 68.8217 162.09 68.901C162.225 68.9803 162.386 69.0527 162.573 69.118C162.764 69.1833 163.002 69.216 163.287 69.216C163.529 69.216 163.742 69.1857 163.924 69.125C164.106 69.0597 164.257 68.9733 164.379 68.866C164.5 68.7587 164.589 68.635 164.645 68.495C164.705 68.355 164.736 68.2057 164.736 68.047C164.736 67.851 164.682 67.69 164.575 67.564C164.472 67.4333 164.334 67.3237 164.162 67.235C163.989 67.1417 163.791 67.0623 163.567 66.997C163.347 66.927 163.121 66.8547 162.888 66.78C162.659 66.7053 162.433 66.6213 162.209 66.528C161.989 66.43 161.793 66.3087 161.621 66.164C161.448 66.0193 161.308 65.842 161.201 65.632C161.098 65.4173 161.047 65.1583 161.047 64.855C161.047 64.5843 161.103 64.3253 161.215 64.078C161.327 63.826 161.49 63.6067 161.705 63.42C161.919 63.2287 162.183 63.077 162.496 62.965C162.808 62.853 163.165 62.797 163.567 62.797C164.033 62.797 164.451 62.8717 164.82 63.021C165.193 63.1657 165.515 63.3663 165.786 63.623L165.506 64.078ZM171.576 64.078C171.52 64.1807 171.434 64.232 171.317 64.232C171.247 64.232 171.168 64.2063 171.079 64.155C170.99 64.1037 170.881 64.0477 170.75 63.987C170.624 63.9217 170.472 63.8633 170.295 63.812C170.118 63.756 169.908 63.728 169.665 63.728C169.455 63.728 169.266 63.756 169.098 63.812C168.93 63.8633 168.785 63.9357 168.664 64.029C168.547 64.1223 168.456 64.232 168.391 64.358C168.33 64.4793 168.3 64.6123 168.3 64.757C168.3 64.939 168.351 65.0907 168.454 65.212C168.561 65.3333 168.701 65.4383 168.874 65.527C169.047 65.6157 169.243 65.695 169.462 65.765C169.681 65.8303 169.905 65.9027 170.134 65.982C170.367 66.0567 170.594 66.1407 170.813 66.234C171.032 66.3273 171.228 66.444 171.401 66.584C171.574 66.724 171.711 66.8967 171.814 67.102C171.921 67.3027 171.975 67.5453 171.975 67.83C171.975 68.1567 171.917 68.46 171.8 68.74C171.683 69.0153 171.511 69.2557 171.282 69.461C171.053 69.6617 170.773 69.8203 170.442 69.937C170.111 70.0537 169.728 70.112 169.294 70.112C168.799 70.112 168.351 70.0327 167.95 69.874C167.549 69.7107 167.208 69.503 166.928 69.251L167.222 68.775C167.259 68.7143 167.304 68.6677 167.355 68.635C167.406 68.6023 167.474 68.586 167.558 68.586C167.642 68.586 167.731 68.6187 167.824 68.684C167.917 68.7493 168.029 68.8217 168.16 68.901C168.295 68.9803 168.456 69.0527 168.643 69.118C168.834 69.1833 169.072 69.216 169.357 69.216C169.6 69.216 169.812 69.1857 169.994 69.125C170.176 69.0597 170.328 68.9733 170.449 68.866C170.57 68.7587 170.659 68.635 170.715 68.495C170.776 68.355 170.806 68.2057 170.806 68.047C170.806 67.851 170.752 67.69 170.645 67.564C170.542 67.4333 170.405 67.3237 170.232 67.235C170.059 67.1417 169.861 67.0623 169.637 66.997C169.418 66.927 169.191 66.8547 168.958 66.78C168.729 66.7053 168.503 66.6213 168.279 66.528C168.06 66.43 167.864 66.3087 167.691 66.164C167.518 66.0193 167.378 65.842 167.271 65.632C167.168 65.4173 167.117 65.1583 167.117 64.855C167.117 64.5843 167.173 64.3253 167.285 64.078C167.397 63.826 167.56 63.6067 167.775 63.42C167.99 63.2287 168.253 63.077 168.566 62.965C168.879 62.853 169.236 62.797 169.637 62.797C170.104 62.797 170.521 62.8717 170.89 63.021C171.263 63.1657 171.585 63.3663 171.856 63.623L171.576 64.078ZM174.972 62.909V70H173.726V62.909H174.972ZM175.252 60.683C175.252 60.8043 175.227 60.9187 175.175 61.026C175.129 61.1287 175.063 61.222 174.979 61.306C174.9 61.3853 174.807 61.4483 174.699 61.495C174.592 61.5417 174.478 61.565 174.356 61.565C174.235 61.565 174.121 61.5417 174.013 61.495C173.911 61.4483 173.817 61.3853 173.733 61.306C173.654 61.222 173.591 61.1287 173.544 61.026C173.498 60.9187 173.474 60.8043 173.474 60.683C173.474 60.5617 173.498 60.4473 173.544 60.34C173.591 60.228 173.654 60.1323 173.733 60.053C173.817 59.969 173.911 59.9037 174.013 59.857C174.121 59.8103 174.235 59.787 174.356 59.787C174.478 59.787 174.592 59.8103 174.699 59.857C174.807 59.9037 174.9 59.969 174.979 60.053C175.063 60.1323 175.129 60.228 175.175 60.34C175.227 60.4473 175.252 60.5617 175.252 60.683ZM180.038 62.797C180.556 62.797 181.023 62.8833 181.438 63.056C181.858 63.2287 182.213 63.4737 182.502 63.791C182.796 64.1083 183.02 64.4933 183.174 64.946C183.333 65.394 183.412 65.8957 183.412 66.451C183.412 67.011 183.333 67.515 183.174 67.963C183.02 68.411 182.796 68.7937 182.502 69.111C182.213 69.4283 181.858 69.6733 181.438 69.846C181.023 70.014 180.556 70.098 180.038 70.098C179.52 70.098 179.051 70.014 178.631 69.846C178.216 69.6733 177.861 69.4283 177.567 69.111C177.273 68.7937 177.047 68.411 176.888 67.963C176.73 67.515 176.65 67.011 176.65 66.451C176.65 65.8957 176.73 65.394 176.888 64.946C177.047 64.4933 177.273 64.1083 177.567 63.791C177.861 63.4737 178.216 63.2287 178.631 63.056C179.051 62.8833 179.52 62.797 180.038 62.797ZM180.038 69.125C180.738 69.125 181.261 68.8917 181.606 68.425C181.952 67.9537 182.124 67.298 182.124 66.458C182.124 65.6133 181.952 64.9553 181.606 64.484C181.261 64.0127 180.738 63.777 180.038 63.777C179.684 63.777 179.376 63.8377 179.114 63.959C178.853 64.0803 178.634 64.2553 178.456 64.484C178.284 64.7127 178.153 64.995 178.064 65.331C177.98 65.6623 177.938 66.038 177.938 66.458C177.938 66.878 177.98 67.2537 178.064 67.585C178.153 67.9163 178.284 68.1963 178.456 68.425C178.634 68.649 178.853 68.8217 179.114 68.943C179.376 69.0643 179.684 69.125 180.038 69.125ZM184.948 70V62.909H185.69C185.867 62.909 185.979 62.9953 186.026 63.168L186.124 63.938C186.432 63.5973 186.775 63.322 187.153 63.112C187.535 62.902 187.976 62.797 188.476 62.797C188.863 62.797 189.204 62.8623 189.498 62.993C189.796 63.119 190.044 63.301 190.24 63.539C190.44 63.7723 190.592 64.0547 190.695 64.386C190.797 64.7173 190.849 65.0837 190.849 65.485V70H189.603V65.485C189.603 64.9483 189.479 64.533 189.232 64.239C188.989 63.9403 188.616 63.791 188.112 63.791C187.743 63.791 187.398 63.8797 187.076 64.057C186.758 64.2343 186.464 64.4747 186.194 64.778V70H184.948ZM196.787 64.078C196.731 64.1807 196.645 64.232 196.528 64.232C196.458 64.232 196.379 64.2063 196.29 64.155C196.201 64.1037 196.092 64.0477 195.961 63.987C195.835 63.9217 195.683 63.8633 195.506 63.812C195.329 63.756 195.119 63.728 194.876 63.728C194.666 63.728 194.477 63.756 194.309 63.812C194.141 63.8633 193.996 63.9357 193.875 64.029C193.758 64.1223 193.667 64.232 193.602 64.358C193.541 64.4793 193.511 64.6123 193.511 64.757C193.511 64.939 193.562 65.0907 193.665 65.212C193.772 65.3333 193.912 65.4383 194.085 65.527C194.258 65.6157 194.454 65.695 194.673 65.765C194.892 65.8303 195.116 65.9027 195.345 65.982C195.578 66.0567 195.805 66.1407 196.024 66.234C196.243 66.3273 196.439 66.444 196.612 66.584C196.785 66.724 196.922 66.8967 197.025 67.102C197.132 67.3027 197.186 67.5453 197.186 67.83C197.186 68.1567 197.128 68.46 197.011 68.74C196.894 69.0153 196.722 69.2557 196.493 69.461C196.264 69.6617 195.984 69.8203 195.653 69.937C195.322 70.0537 194.939 70.112 194.505 70.112C194.01 70.112 193.562 70.0327 193.161 69.874C192.76 69.7107 192.419 69.503 192.139 69.251L192.433 68.775C192.47 68.7143 192.515 68.6677 192.566 68.635C192.617 68.6023 192.685 68.586 192.769 68.586C192.853 68.586 192.942 68.6187 193.035 68.684C193.128 68.7493 193.24 68.8217 193.371 68.901C193.506 68.9803 193.667 69.0527 193.854 69.118C194.045 69.1833 194.283 69.216 194.568 69.216C194.811 69.216 195.023 69.1857 195.205 69.125C195.387 69.0597 195.539 68.9733 195.66 68.866C195.781 68.7587 195.87 68.635 195.926 68.495C195.987 68.355 196.017 68.2057 196.017 68.047C196.017 67.851 195.963 67.69 195.856 67.564C195.753 67.4333 195.616 67.3237 195.443 67.235C195.27 67.1417 195.072 67.0623 194.848 66.997C194.629 66.927 194.402 66.8547 194.169 66.78C193.94 66.7053 193.714 66.6213 193.49 66.528C193.271 66.43 193.075 66.3087 192.902 66.164C192.729 66.0193 192.589 65.842 192.482 65.632C192.379 65.4173 192.328 65.1583 192.328 64.855C192.328 64.5843 192.384 64.3253 192.496 64.078C192.608 63.826 192.771 63.6067 192.986 63.42C193.201 63.2287 193.464 63.077 193.777 62.965C194.09 62.853 194.447 62.797 194.848 62.797C195.315 62.797 195.732 62.8717 196.101 63.021C196.474 63.1657 196.796 63.3663 197.067 63.623L196.787 64.078Z" fill="#858997"/>
<path d="M340 77.807C340 77.807 333.925 63.1205 330.617 63.1205C327.309 63.1205 326.858 48.0199 323.313 48.0199C319.768 48.0199 318.897 62.256 314.476 62.256C310.056 62.256 309.32 30 306.632 30C303.943 30 305.142 48.1701 300.283 48.0199C295.425 47.8697 295.938 43.5291 290.023 43.5291C284.109 43.5291 272.981 67.6621 266.508 67.6621C260.034 67.6621 261.548 62.256 256.822 62.256C252.095 62.256 254.037 78.8832 244.167 77.807C234.296 76.7308 237.568 68.133 233.659 67.6621C230.679 67.3032 231.729 77.807 229.071 77.807C226.412 77.807 227.059 73.5387 225.128 73.5387C223.196 73.5387 223.879 81.2944 220 79.8116" stroke="#00CD98" stroke-linecap="round" stroke-linejoin="round"/>
</svg>
