<svg width="370" height="105" viewBox="0 0 370 105" fill="none" xmlns="http://www.w3.org/2000/svg">
<rect width="370" height="104.62" rx="10" fill="#1568AF"/>
<g clip-path="url(#clip0)">
<path d="M203.855 52H202.655C202.517 52 202.405 51.9653 202.319 51.896C202.234 51.8267 202.17 51.7387 202.127 51.632L201.055 48.864H195.911L194.839 51.632C194.802 51.728 194.738 51.8133 194.647 51.888C194.557 51.9627 194.445 52 194.311 52H193.111L197.695 40.536H199.271L203.855 52ZM196.343 47.744H200.623L198.823 43.08C198.706 42.792 198.591 42.432 198.479 42C198.421 42.2187 198.362 42.4213 198.303 42.608C198.25 42.7893 198.197 42.9493 198.143 43.088L196.343 47.744ZM206.658 40.216V52H205.234V40.216H206.658ZM209.168 52V43.896H210.016C210.219 43.896 210.347 43.9947 210.4 44.192L210.504 45.024C210.803 44.656 211.136 44.3547 211.504 44.12C211.877 43.8853 212.309 43.768 212.8 43.768C213.349 43.768 213.792 43.92 214.128 44.224C214.469 44.528 214.715 44.9387 214.864 45.456C214.976 45.1627 215.123 44.9093 215.304 44.696C215.491 44.4827 215.699 44.3067 215.928 44.168C216.157 44.0293 216.4 43.928 216.656 43.864C216.917 43.8 217.181 43.768 217.448 43.768C217.875 43.768 218.253 43.8373 218.584 43.976C218.92 44.1093 219.203 44.3067 219.432 44.568C219.667 44.8293 219.845 45.152 219.968 45.536C220.091 45.9147 220.152 46.3493 220.152 46.84V52H218.728V46.84C218.728 46.2053 218.589 45.7253 218.312 45.4C218.035 45.0693 217.632 44.904 217.104 44.904C216.869 44.904 216.645 44.9467 216.432 45.032C216.224 45.112 216.04 45.232 215.88 45.392C215.72 45.552 215.592 45.7547 215.496 46C215.405 46.24 215.36 46.52 215.36 46.84V52H213.936V46.84C213.936 46.1893 213.805 45.704 213.544 45.384C213.283 45.064 212.901 44.904 212.4 44.904C212.048 44.904 211.72 45 211.416 45.192C211.117 45.3787 210.843 45.6347 210.592 45.96V52H209.168ZM225.589 43.768C226.181 43.768 226.714 43.8667 227.189 44.064C227.669 44.2613 228.074 44.5413 228.405 44.904C228.741 45.2667 228.997 45.7067 229.173 46.224C229.354 46.736 229.445 47.3093 229.445 47.944C229.445 48.584 229.354 49.16 229.173 49.672C228.997 50.184 228.741 50.6213 228.405 50.984C228.074 51.3467 227.669 51.6267 227.189 51.824C226.714 52.016 226.181 52.112 225.589 52.112C224.997 52.112 224.461 52.016 223.981 51.824C223.506 51.6267 223.101 51.3467 222.765 50.984C222.429 50.6213 222.17 50.184 221.989 49.672C221.807 49.16 221.717 48.584 221.717 47.944C221.717 47.3093 221.807 46.736 221.989 46.224C222.17 45.7067 222.429 45.2667 222.765 44.904C223.101 44.5413 223.506 44.2613 223.981 44.064C224.461 43.8667 224.997 43.768 225.589 43.768ZM225.589 51C226.389 51 226.986 50.7333 227.381 50.2C227.775 49.6613 227.973 48.912 227.973 47.952C227.973 46.9867 227.775 46.2347 227.381 45.696C226.986 45.1573 226.389 44.888 225.589 44.888C225.183 44.888 224.831 44.9573 224.533 45.096C224.234 45.2347 223.983 45.4347 223.781 45.696C223.583 45.9573 223.434 46.28 223.333 46.664C223.237 47.0427 223.189 47.472 223.189 47.952C223.189 48.432 223.237 48.8613 223.333 49.24C223.434 49.6187 223.583 49.9387 223.781 50.2C223.983 50.456 224.234 50.6533 224.533 50.792C224.831 50.9307 225.183 51 225.589 51ZM235.839 45.232C235.775 45.3493 235.677 45.408 235.543 45.408C235.463 45.408 235.373 45.3787 235.271 45.32C235.17 45.2613 235.045 45.1973 234.895 45.128C234.751 45.0533 234.578 44.9867 234.375 44.928C234.173 44.864 233.933 44.832 233.655 44.832C233.415 44.832 233.199 44.864 233.007 44.928C232.815 44.9867 232.65 45.0693 232.511 45.176C232.378 45.2827 232.274 45.408 232.199 45.552C232.13 45.6907 232.095 45.8427 232.095 46.008C232.095 46.216 232.154 46.3893 232.271 46.528C232.394 46.6667 232.554 46.7867 232.751 46.888C232.949 46.9893 233.173 47.08 233.423 47.16C233.674 47.2347 233.93 47.3173 234.191 47.408C234.458 47.4933 234.717 47.5893 234.967 47.696C235.218 47.8027 235.442 47.936 235.639 48.096C235.837 48.256 235.994 48.4533 236.111 48.688C236.234 48.9173 236.295 49.1947 236.295 49.52C236.295 49.8933 236.229 50.24 236.095 50.56C235.962 50.8747 235.765 51.1493 235.503 51.384C235.242 51.6133 234.922 51.7947 234.543 51.928C234.165 52.0613 233.727 52.128 233.231 52.128C232.666 52.128 232.154 52.0373 231.695 51.856C231.237 51.6693 230.847 51.432 230.527 51.144L230.863 50.6C230.906 50.5307 230.957 50.4773 231.015 50.44C231.074 50.4027 231.151 50.384 231.247 50.384C231.343 50.384 231.445 50.4213 231.551 50.496C231.658 50.5707 231.786 50.6533 231.935 50.744C232.09 50.8347 232.274 50.9173 232.487 50.992C232.706 51.0667 232.978 51.104 233.303 51.104C233.581 51.104 233.823 51.0693 234.031 51C234.239 50.9253 234.413 50.8267 234.551 50.704C234.69 50.5813 234.791 50.44 234.855 50.28C234.925 50.12 234.959 49.9493 234.959 49.768C234.959 49.544 234.898 49.36 234.775 49.216C234.658 49.0667 234.501 48.9413 234.303 48.84C234.106 48.7333 233.879 48.6427 233.623 48.568C233.373 48.488 233.114 48.4053 232.847 48.32C232.586 48.2347 232.327 48.1387 232.071 48.032C231.821 47.92 231.597 47.7813 231.399 47.616C231.202 47.4507 231.042 47.248 230.919 47.008C230.802 46.7627 230.743 46.4667 230.743 46.12C230.743 45.8107 230.807 45.5147 230.935 45.232C231.063 44.944 231.25 44.6933 231.495 44.48C231.741 44.2613 232.042 44.088 232.399 43.96C232.757 43.832 233.165 43.768 233.623 43.768C234.157 43.768 234.634 43.8533 235.055 44.024C235.482 44.1893 235.85 44.4187 236.159 44.712L235.839 45.232ZM240.593 52.128C239.953 52.128 239.459 51.9493 239.113 51.592C238.771 51.2347 238.601 50.72 238.601 50.048V45.088H237.625C237.539 45.088 237.467 45.064 237.409 45.016C237.35 44.9627 237.321 44.8827 237.321 44.776V44.208L238.649 44.04L238.977 41.536C238.987 41.456 239.022 41.392 239.081 41.344C239.139 41.2907 239.214 41.264 239.305 41.264H240.025V44.056H242.345V45.088H240.025V49.952C240.025 50.2933 240.107 50.5467 240.273 50.712C240.438 50.8773 240.651 50.96 240.913 50.96C241.062 50.96 241.19 50.9413 241.297 50.904C241.409 50.8613 241.505 50.816 241.585 50.768C241.665 50.72 241.731 50.6773 241.785 50.64C241.843 50.5973 241.894 50.576 241.937 50.576C242.011 50.576 242.078 50.6213 242.137 50.712L242.553 51.392C242.307 51.6213 242.011 51.8027 241.665 51.936C241.318 52.064 240.961 52.128 240.593 52.128ZM249.263 52H247.711V40.536H249.263V52ZM252.106 52V43.896H252.954C253.156 43.896 253.284 43.9947 253.338 44.192L253.45 45.072C253.802 44.6827 254.194 44.368 254.626 44.128C255.063 43.888 255.567 43.768 256.138 43.768C256.58 43.768 256.97 43.8427 257.306 43.992C257.647 44.136 257.93 44.344 258.154 44.616C258.383 44.8827 258.556 45.2053 258.674 45.584C258.791 45.9627 258.85 46.3813 258.85 46.84V52H257.426V46.84C257.426 46.2267 257.284 45.752 257.002 45.416C256.724 45.0747 256.298 44.904 255.722 44.904C255.3 44.904 254.906 45.0053 254.538 45.208C254.175 45.4107 253.839 45.6853 253.53 46.032V52H252.106ZM265.636 45.232C265.572 45.3493 265.473 45.408 265.34 45.408C265.26 45.408 265.169 45.3787 265.068 45.32C264.967 45.2613 264.841 45.1973 264.692 45.128C264.548 45.0533 264.375 44.9867 264.172 44.928C263.969 44.864 263.729 44.832 263.452 44.832C263.212 44.832 262.996 44.864 262.804 44.928C262.612 44.9867 262.447 45.0693 262.308 45.176C262.175 45.2827 262.071 45.408 261.996 45.552C261.927 45.6907 261.892 45.8427 261.892 46.008C261.892 46.216 261.951 46.3893 262.068 46.528C262.191 46.6667 262.351 46.7867 262.548 46.888C262.745 46.9893 262.969 47.08 263.22 47.16C263.471 47.2347 263.727 47.3173 263.988 47.408C264.255 47.4933 264.513 47.5893 264.764 47.696C265.015 47.8027 265.239 47.936 265.436 48.096C265.633 48.256 265.791 48.4533 265.908 48.688C266.031 48.9173 266.092 49.1947 266.092 49.52C266.092 49.8933 266.025 50.24 265.892 50.56C265.759 50.8747 265.561 51.1493 265.3 51.384C265.039 51.6133 264.719 51.7947 264.34 51.928C263.961 52.0613 263.524 52.128 263.028 52.128C262.463 52.128 261.951 52.0373 261.492 51.856C261.033 51.6693 260.644 51.432 260.324 51.144L260.66 50.6C260.703 50.5307 260.753 50.4773 260.812 50.44C260.871 50.4027 260.948 50.384 261.044 50.384C261.14 50.384 261.241 50.4213 261.348 50.496C261.455 50.5707 261.583 50.6533 261.732 50.744C261.887 50.8347 262.071 50.9173 262.284 50.992C262.503 51.0667 262.775 51.104 263.1 51.104C263.377 51.104 263.62 51.0693 263.828 51C264.036 50.9253 264.209 50.8267 264.348 50.704C264.487 50.5813 264.588 50.44 264.652 50.28C264.721 50.12 264.756 49.9493 264.756 49.768C264.756 49.544 264.695 49.36 264.572 49.216C264.455 49.0667 264.297 48.9413 264.1 48.84C263.903 48.7333 263.676 48.6427 263.42 48.568C263.169 48.488 262.911 48.4053 262.644 48.32C262.383 48.2347 262.124 48.1387 261.868 48.032C261.617 47.92 261.393 47.7813 261.196 47.616C260.999 47.4507 260.839 47.248 260.716 47.008C260.599 46.7627 260.54 46.4667 260.54 46.12C260.54 45.8107 260.604 45.5147 260.732 45.232C260.86 44.944 261.047 44.6933 261.292 44.48C261.537 44.2613 261.839 44.088 262.196 43.96C262.553 43.832 262.961 43.768 263.42 43.768C263.953 43.768 264.431 43.8533 264.852 44.024C265.279 44.1893 265.647 44.4187 265.956 44.712L265.636 45.232ZM270.39 52.128C269.75 52.128 269.256 51.9493 268.91 51.592C268.568 51.2347 268.398 50.72 268.398 50.048V45.088H267.422C267.336 45.088 267.264 45.064 267.206 45.016C267.147 44.9627 267.118 44.8827 267.118 44.776V44.208L268.446 44.04L268.774 41.536C268.784 41.456 268.819 41.392 268.878 41.344C268.936 41.2907 269.011 41.264 269.102 41.264H269.822V44.056H272.142V45.088H269.822V49.952C269.822 50.2933 269.904 50.5467 270.07 50.712C270.235 50.8773 270.448 50.96 270.71 50.96C270.859 50.96 270.987 50.9413 271.094 50.904C271.206 50.8613 271.302 50.816 271.382 50.768C271.462 50.72 271.528 50.6773 271.582 50.64C271.64 50.5973 271.691 50.576 271.734 50.576C271.808 50.576 271.875 50.6213 271.934 50.712L272.35 51.392C272.104 51.6213 271.808 51.8027 271.462 51.936C271.115 52.064 270.758 52.128 270.39 52.128ZM279.854 52H279.222C279.084 52 278.972 51.9787 278.886 51.936C278.801 51.8933 278.745 51.8027 278.718 51.664L278.558 50.912C278.345 51.104 278.137 51.2773 277.934 51.432C277.732 51.5813 277.518 51.7093 277.294 51.816C277.07 51.9173 276.83 51.9947 276.574 52.048C276.324 52.1013 276.044 52.128 275.734 52.128C275.42 52.128 275.124 52.0853 274.846 52C274.574 51.9093 274.337 51.776 274.134 51.6C273.932 51.424 273.769 51.2027 273.646 50.936C273.529 50.664 273.47 50.344 273.47 49.976C273.47 49.656 273.558 49.3493 273.734 49.056C273.91 48.7573 274.193 48.4933 274.582 48.264C274.977 48.0347 275.492 47.848 276.126 47.704C276.761 47.5547 277.537 47.4693 278.454 47.448V46.816C278.454 46.1867 278.318 45.712 278.046 45.392C277.78 45.0667 277.382 44.904 276.854 44.904C276.508 44.904 276.214 44.9493 275.974 45.04C275.74 45.1253 275.534 45.224 275.358 45.336C275.188 45.4427 275.038 45.5413 274.91 45.632C274.788 45.7173 274.665 45.76 274.542 45.76C274.446 45.76 274.361 45.736 274.286 45.688C274.217 45.6347 274.161 45.5707 274.118 45.496L273.862 45.04C274.31 44.608 274.793 44.2853 275.31 44.072C275.828 43.8587 276.401 43.752 277.03 43.752C277.484 43.752 277.886 43.8267 278.238 43.976C278.59 44.1253 278.886 44.3333 279.126 44.6C279.366 44.8667 279.548 45.1893 279.67 45.568C279.793 45.9467 279.854 46.3627 279.854 46.816V52ZM276.158 51.128C276.409 51.128 276.638 51.104 276.846 51.056C277.054 51.0027 277.249 50.9307 277.43 50.84C277.617 50.744 277.793 50.6293 277.958 50.496C278.129 50.3627 278.294 50.2107 278.454 50.04V48.352C277.798 48.3733 277.241 48.4267 276.782 48.512C276.324 48.592 275.95 48.6987 275.662 48.832C275.374 48.9653 275.164 49.1227 275.03 49.304C274.902 49.4853 274.838 49.688 274.838 49.912C274.838 50.1253 274.873 50.3093 274.942 50.464C275.012 50.6187 275.105 50.7467 275.222 50.848C275.34 50.944 275.478 51.016 275.638 51.064C275.798 51.1067 275.972 51.128 276.158 51.128ZM282.012 52V43.896H282.86C283.062 43.896 283.19 43.9947 283.244 44.192L283.356 45.072C283.708 44.6827 284.1 44.368 284.532 44.128C284.969 43.888 285.473 43.768 286.044 43.768C286.486 43.768 286.876 43.8427 287.212 43.992C287.553 44.136 287.836 44.344 288.06 44.616C288.289 44.8827 288.462 45.2053 288.58 45.584C288.697 45.9627 288.756 46.3813 288.756 46.84V52H287.332V46.84C287.332 46.2267 287.19 45.752 286.908 45.416C286.63 45.0747 286.204 44.904 285.628 44.904C285.206 44.904 284.812 45.0053 284.444 45.208C284.081 45.4107 283.745 45.6853 283.436 46.032V52H282.012ZM293.358 52.128C292.718 52.128 292.225 51.9493 291.878 51.592C291.537 51.2347 291.366 50.72 291.366 50.048V45.088H290.39C290.305 45.088 290.233 45.064 290.174 45.016C290.116 44.9627 290.086 44.8827 290.086 44.776V44.208L291.414 44.04L291.742 41.536C291.753 41.456 291.788 41.392 291.846 41.344C291.905 41.2907 291.98 41.264 292.07 41.264H292.79V44.056H295.11V45.088H292.79V49.952C292.79 50.2933 292.873 50.5467 293.038 50.712C293.204 50.8773 293.417 50.96 293.678 50.96C293.828 50.96 293.956 50.9413 294.062 50.904C294.174 50.8613 294.27 50.816 294.35 50.768C294.43 50.72 294.497 50.6773 294.55 50.64C294.609 50.5973 294.66 50.576 294.702 50.576C294.777 50.576 294.844 50.6213 294.902 50.712L295.318 51.392C295.073 51.6213 294.777 51.8027 294.43 51.936C294.084 52.064 293.726 52.128 293.358 52.128ZM298.909 43.896H300.029C300.146 43.896 300.242 43.9253 300.317 43.984C300.392 44.0427 300.442 44.112 300.469 44.192L302.021 49.408C302.064 49.6 302.104 49.7867 302.141 49.968C302.178 50.144 302.21 50.3227 302.237 50.504C302.28 50.3227 302.328 50.144 302.381 49.968C302.434 49.7867 302.49 49.6 302.549 49.408L304.261 44.16C304.288 44.08 304.333 44.0133 304.397 43.96C304.466 43.9067 304.552 43.88 304.653 43.88H305.269C305.376 43.88 305.464 43.9067 305.533 43.96C305.602 44.0133 305.65 44.08 305.677 44.16L307.349 49.408C307.408 49.5947 307.458 49.7787 307.501 49.96C307.549 50.1413 307.594 50.32 307.637 50.496C307.664 50.32 307.698 50.136 307.741 49.944C307.784 49.752 307.829 49.5733 307.877 49.408L309.461 44.192C309.488 44.1067 309.538 44.0373 309.613 43.984C309.688 43.9253 309.776 43.896 309.877 43.896H310.949L308.325 52H307.197C307.058 52 306.962 51.9093 306.909 51.728L305.117 46.232C305.074 46.1093 305.04 45.9867 305.013 45.864C304.986 45.736 304.96 45.6107 304.933 45.488C304.906 45.6107 304.88 45.736 304.853 45.864C304.826 45.992 304.792 46.1173 304.749 46.24L302.933 51.728C302.874 51.9093 302.765 52 302.605 52H301.533L298.909 43.896ZM313.799 43.896V52H312.375V43.896H313.799ZM314.119 41.352C314.119 41.4907 314.09 41.6213 314.031 41.744C313.978 41.8613 313.903 41.968 313.807 42.064C313.716 42.1547 313.61 42.2267 313.487 42.28C313.364 42.3333 313.234 42.36 313.095 42.36C312.956 42.36 312.826 42.3333 312.703 42.28C312.586 42.2267 312.479 42.1547 312.383 42.064C312.292 41.968 312.22 41.8613 312.167 41.744C312.114 41.6213 312.087 41.4907 312.087 41.352C312.087 41.2133 312.114 41.0827 312.167 40.96C312.22 40.832 312.292 40.7227 312.383 40.632C312.479 40.536 312.586 40.4613 312.703 40.408C312.826 40.3547 312.956 40.328 313.095 40.328C313.234 40.328 313.364 40.3547 313.487 40.408C313.61 40.4613 313.716 40.536 313.807 40.632C313.903 40.7227 313.978 40.832 314.031 40.96C314.09 41.0827 314.119 41.2133 314.119 41.352ZM318.765 52.128C318.125 52.128 317.631 51.9493 317.285 51.592C316.943 51.2347 316.773 50.72 316.773 50.048V45.088H315.797C315.711 45.088 315.639 45.064 315.581 45.016C315.522 44.9627 315.493 44.8827 315.493 44.776V44.208L316.821 44.04L317.149 41.536C317.159 41.456 317.194 41.392 317.253 41.344C317.311 41.2907 317.386 41.264 317.477 41.264H318.197V44.056H320.517V45.088H318.197V49.952C318.197 50.2933 318.279 50.5467 318.445 50.712C318.61 50.8773 318.823 50.96 319.085 50.96C319.234 50.96 319.362 50.9413 319.469 50.904C319.581 50.8613 319.677 50.816 319.757 50.768C319.837 50.72 319.903 50.6773 319.957 50.64C320.015 50.5973 320.066 50.576 320.109 50.576C320.183 50.576 320.25 50.6213 320.309 50.712L320.725 51.392C320.479 51.6213 320.183 51.8027 319.837 51.936C319.49 52.064 319.133 52.128 318.765 52.128ZM322.277 52V40.216H323.701V44.984C324.048 44.616 324.432 44.3227 324.853 44.104C325.275 43.88 325.76 43.768 326.309 43.768C326.752 43.768 327.141 43.8427 327.477 43.992C327.819 44.136 328.101 44.344 328.325 44.616C328.555 44.8827 328.728 45.2053 328.845 45.584C328.963 45.9627 329.021 46.3813 329.021 46.84V52H327.597V46.84C327.597 46.2267 327.456 45.752 327.173 45.416C326.896 45.0747 326.469 44.904 325.893 44.904C325.472 44.904 325.077 45.0053 324.709 45.208C324.347 45.4107 324.011 45.6853 323.701 46.032V52H322.277Z" fill="white"/>
<path d="M281.036 59.969V60.473C281.036 60.6317 280.987 60.781 280.889 60.921L275.212 68.894H280.938V70H273.434V69.468C273.434 69.328 273.478 69.195 273.567 69.069L279.251 61.075H273.7V59.969H281.036ZM285.137 62.797C285.562 62.797 285.954 62.8693 286.313 63.014C286.673 63.154 286.983 63.3593 287.244 63.63C287.506 63.896 287.709 64.2273 287.853 64.624C288.003 65.016 288.077 65.464 288.077 65.968C288.077 66.164 288.056 66.2947 288.014 66.36C287.972 66.4253 287.893 66.458 287.776 66.458H283.058C283.068 66.906 283.128 67.2957 283.24 67.627C283.352 67.9583 283.506 68.236 283.702 68.46C283.898 68.6793 284.132 68.845 284.402 68.957C284.673 69.0643 284.976 69.118 285.312 69.118C285.625 69.118 285.893 69.083 286.117 69.013C286.346 68.9383 286.542 68.859 286.705 68.775C286.869 68.691 287.004 68.614 287.111 68.544C287.223 68.4693 287.319 68.432 287.398 68.432C287.501 68.432 287.58 68.4717 287.636 68.551L287.986 69.006C287.832 69.1927 287.648 69.356 287.433 69.496C287.219 69.6313 286.988 69.7433 286.74 69.832C286.498 69.9207 286.246 69.986 285.984 70.028C285.723 70.0747 285.464 70.098 285.207 70.098C284.717 70.098 284.265 70.0163 283.849 69.853C283.439 69.685 283.082 69.4423 282.778 69.125C282.48 68.803 282.246 68.4063 282.078 67.935C281.91 67.4637 281.826 66.9223 281.826 66.311C281.826 65.8163 281.901 65.3543 282.05 64.925C282.204 64.4957 282.424 64.1247 282.708 63.812C282.993 63.4947 283.341 63.2473 283.751 63.07C284.162 62.888 284.624 62.797 285.137 62.797ZM285.165 63.714C284.563 63.714 284.09 63.889 283.744 64.239C283.399 64.5843 283.184 65.065 283.1 65.681H286.957C286.957 65.3917 286.918 65.128 286.838 64.89C286.759 64.6473 286.642 64.4397 286.488 64.267C286.334 64.0897 286.145 63.9543 285.921 63.861C285.702 63.763 285.45 63.714 285.165 63.714ZM289.672 70V62.909H290.386C290.521 62.909 290.615 62.9347 290.666 62.986C290.717 63.0373 290.752 63.126 290.771 63.252L290.855 64.358C291.098 63.8633 291.396 63.4783 291.751 63.203C292.11 62.923 292.53 62.783 293.011 62.783C293.207 62.783 293.384 62.8063 293.543 62.853C293.702 62.895 293.849 62.9557 293.984 63.035L293.823 63.966C293.79 64.0827 293.718 64.141 293.606 64.141C293.541 64.141 293.44 64.12 293.305 64.078C293.17 64.0313 292.981 64.008 292.738 64.008C292.304 64.008 291.94 64.134 291.646 64.386C291.357 64.638 291.114 65.0043 290.918 65.485V70H289.672ZM298.188 62.797C298.706 62.797 299.173 62.8833 299.588 63.056C300.008 63.2287 300.363 63.4737 300.652 63.791C300.946 64.1083 301.17 64.4933 301.324 64.946C301.483 65.394 301.562 65.8957 301.562 66.451C301.562 67.011 301.483 67.515 301.324 67.963C301.17 68.411 300.946 68.7937 300.652 69.111C300.363 69.4283 300.008 69.6733 299.588 69.846C299.173 70.014 298.706 70.098 298.188 70.098C297.67 70.098 297.201 70.014 296.781 69.846C296.366 69.6733 296.011 69.4283 295.717 69.111C295.423 68.7937 295.197 68.411 295.038 67.963C294.88 67.515 294.8 67.011 294.8 66.451C294.8 65.8957 294.88 65.394 295.038 64.946C295.197 64.4933 295.423 64.1083 295.717 63.791C296.011 63.4737 296.366 63.2287 296.781 63.056C297.201 62.8833 297.67 62.797 298.188 62.797ZM298.188 69.125C298.888 69.125 299.411 68.8917 299.756 68.425C300.102 67.9537 300.274 67.298 300.274 66.458C300.274 65.6133 300.102 64.9553 299.756 64.484C299.411 64.0127 298.888 63.777 298.188 63.777C297.834 63.777 297.526 63.8377 297.264 63.959C297.003 64.0803 296.784 64.2553 296.606 64.484C296.434 64.7127 296.303 64.995 296.214 65.331C296.13 65.6623 296.088 66.038 296.088 66.458C296.088 66.878 296.13 67.2537 296.214 67.585C296.303 67.9163 296.434 68.1963 296.606 68.425C296.784 68.649 297.003 68.8217 297.264 68.943C297.526 69.0643 297.834 69.125 298.188 69.125ZM306.085 70V63.973L305.301 63.882C305.203 63.8587 305.121 63.8237 305.056 63.777C304.995 63.7257 304.965 63.6533 304.965 63.56V63.049H306.085V62.363C306.085 61.957 306.141 61.5977 306.253 61.285C306.369 60.9677 306.533 60.7017 306.743 60.487C306.957 60.2677 307.214 60.102 307.513 59.99C307.811 59.878 308.147 59.822 308.521 59.822C308.838 59.822 309.132 59.8687 309.403 59.962L309.375 60.585C309.37 60.6783 309.33 60.7343 309.256 60.753C309.181 60.7717 309.076 60.781 308.941 60.781H308.724C308.509 60.781 308.313 60.809 308.136 60.865C307.963 60.921 307.814 61.012 307.688 61.138C307.562 61.264 307.464 61.4297 307.394 61.635C307.328 61.8403 307.296 62.0947 307.296 62.398V63.049H309.347V63.952H307.338V70H306.085ZM313.329 62.797C313.753 62.797 314.145 62.8693 314.505 63.014C314.864 63.154 315.174 63.3593 315.436 63.63C315.697 63.896 315.9 64.2273 316.045 64.624C316.194 65.016 316.269 65.464 316.269 65.968C316.269 66.164 316.248 66.2947 316.206 66.36C316.164 66.4253 316.084 66.458 315.968 66.458H311.25C311.259 66.906 311.32 67.2957 311.432 67.627C311.544 67.9583 311.698 68.236 311.894 68.46C312.09 68.6793 312.323 68.845 312.594 68.957C312.864 69.0643 313.168 69.118 313.504 69.118C313.816 69.118 314.085 69.083 314.309 69.013C314.537 68.9383 314.733 68.859 314.897 68.775C315.06 68.691 315.195 68.614 315.303 68.544C315.415 68.4693 315.51 68.432 315.59 68.432C315.692 68.432 315.772 68.4717 315.828 68.551L316.178 69.006C316.024 69.1927 315.839 69.356 315.625 69.496C315.41 69.6313 315.179 69.7433 314.932 69.832C314.689 69.9207 314.437 69.986 314.176 70.028C313.914 70.0747 313.655 70.098 313.399 70.098C312.909 70.098 312.456 70.0163 312.041 69.853C311.63 69.685 311.273 69.4423 310.97 69.125C310.671 68.803 310.438 68.4063 310.27 67.935C310.102 67.4637 310.018 66.9223 310.018 66.311C310.018 65.8163 310.092 65.3543 310.242 64.925C310.396 64.4957 310.615 64.1247 310.9 63.812C311.184 63.4947 311.532 63.2473 311.943 63.07C312.353 62.888 312.815 62.797 313.329 62.797ZM313.357 63.714C312.755 63.714 312.281 63.889 311.936 64.239C311.59 64.5843 311.376 65.065 311.292 65.681H315.149C315.149 65.3917 315.109 65.128 315.03 64.89C314.95 64.6473 314.834 64.4397 314.68 64.267C314.526 64.0897 314.337 63.9543 314.113 63.861C313.893 63.763 313.641 63.714 313.357 63.714ZM320.67 62.797C321.095 62.797 321.487 62.8693 321.846 63.014C322.206 63.154 322.516 63.3593 322.777 63.63C323.039 63.896 323.242 64.2273 323.386 64.624C323.536 65.016 323.61 65.464 323.61 65.968C323.61 66.164 323.589 66.2947 323.547 66.36C323.505 66.4253 323.426 66.458 323.309 66.458H318.591C318.601 66.906 318.661 67.2957 318.773 67.627C318.885 67.9583 319.039 68.236 319.235 68.46C319.431 68.6793 319.665 68.845 319.935 68.957C320.206 69.0643 320.509 69.118 320.845 69.118C321.158 69.118 321.426 69.083 321.65 69.013C321.879 68.9383 322.075 68.859 322.238 68.775C322.402 68.691 322.537 68.614 322.644 68.544C322.756 68.4693 322.852 68.432 322.931 68.432C323.034 68.432 323.113 68.4717 323.169 68.551L323.519 69.006C323.365 69.1927 323.181 69.356 322.966 69.496C322.752 69.6313 322.521 69.7433 322.273 69.832C322.031 69.9207 321.779 69.986 321.517 70.028C321.256 70.0747 320.997 70.098 320.74 70.098C320.25 70.098 319.798 70.0163 319.382 69.853C318.972 69.685 318.615 69.4423 318.311 69.125C318.013 68.803 317.779 68.4063 317.611 67.935C317.443 67.4637 317.359 66.9223 317.359 66.311C317.359 65.8163 317.434 65.3543 317.583 64.925C317.737 64.4957 317.957 64.1247 318.241 63.812C318.526 63.4947 318.874 63.2473 319.284 63.07C319.695 62.888 320.157 62.797 320.67 62.797ZM320.698 63.714C320.096 63.714 319.623 63.889 319.277 64.239C318.932 64.5843 318.717 65.065 318.633 65.681H322.49C322.49 65.3917 322.451 65.128 322.371 64.89C322.292 64.6473 322.175 64.4397 322.021 64.267C321.867 64.0897 321.678 63.9543 321.454 63.861C321.235 63.763 320.983 63.714 320.698 63.714ZM329.265 64.078C329.209 64.1807 329.123 64.232 329.006 64.232C328.936 64.232 328.857 64.2063 328.768 64.155C328.68 64.1037 328.57 64.0477 328.439 63.987C328.313 63.9217 328.162 63.8633 327.984 63.812C327.807 63.756 327.597 63.728 327.354 63.728C327.144 63.728 326.955 63.756 326.787 63.812C326.619 63.8633 326.475 63.9357 326.353 64.029C326.237 64.1223 326.146 64.232 326.08 64.358C326.02 64.4793 325.989 64.6123 325.989 64.757C325.989 64.939 326.041 65.0907 326.143 65.212C326.251 65.3333 326.391 65.4383 326.563 65.527C326.736 65.6157 326.932 65.695 327.151 65.765C327.371 65.8303 327.595 65.9027 327.823 65.982C328.057 66.0567 328.283 66.1407 328.502 66.234C328.722 66.3273 328.918 66.444 329.09 66.584C329.263 66.724 329.401 66.8967 329.503 67.102C329.611 67.3027 329.664 67.5453 329.664 67.83C329.664 68.1567 329.606 68.46 329.489 68.74C329.373 69.0153 329.2 69.2557 328.971 69.461C328.743 69.6617 328.463 69.8203 328.131 69.937C327.8 70.0537 327.417 70.112 326.983 70.112C326.489 70.112 326.041 70.0327 325.639 69.874C325.238 69.7107 324.897 69.503 324.617 69.251L324.911 68.775C324.949 68.7143 324.993 68.6677 325.044 68.635C325.096 68.6023 325.163 68.586 325.247 68.586C325.331 68.586 325.42 68.6187 325.513 68.684C325.607 68.7493 325.719 68.8217 325.849 68.901C325.985 68.9803 326.146 69.0527 326.332 69.118C326.524 69.1833 326.762 69.216 327.046 69.216C327.289 69.216 327.501 69.1857 327.683 69.125C327.865 69.0597 328.017 68.9733 328.138 68.866C328.26 68.7587 328.348 68.635 328.404 68.495C328.465 68.355 328.495 68.2057 328.495 68.047C328.495 67.851 328.442 67.69 328.334 67.564C328.232 67.4333 328.094 67.3237 327.921 67.235C327.749 67.1417 327.55 67.0623 327.326 66.997C327.107 66.927 326.881 66.8547 326.647 66.78C326.419 66.7053 326.192 66.6213 325.968 66.528C325.749 66.43 325.553 66.3087 325.38 66.164C325.208 66.0193 325.068 65.842 324.96 65.632C324.858 65.4173 324.806 65.1583 324.806 64.855C324.806 64.5843 324.862 64.3253 324.974 64.078C325.086 63.826 325.25 63.6067 325.464 63.42C325.679 63.2287 325.943 63.077 326.255 62.965C326.568 62.853 326.925 62.797 327.326 62.797C327.793 62.797 328.211 62.8717 328.579 63.021C328.953 63.1657 329.275 63.3663 329.545 63.623L329.265 64.078Z" fill="white"/>
</g>
<rect opacity="0.2" x="30" y="22" width="60" height="60" rx="30" fill="white"/>
<path d="M52.875 60.75C52.6354 60.75 52.3958 60.6542 52.2042 60.4625L50.2875 58.5458C49.9042 58.1625 49.9042 57.5875 50.2875 57.2042C50.6708 56.8208 51.2938 56.8208 51.6292 57.2042L52.875 58.45L56.0375 55.2875C56.4208 54.9042 56.9958 54.9042 57.3792 55.2875C57.7625 55.6708 57.7625 56.2458 57.3792 56.6292L53.5458 60.4625C53.3542 60.6542 53.1146 60.75 52.875 60.75Z" fill="white"/>
<path fill-rule="evenodd" clip-rule="evenodd" d="M52 47C52 45.8954 52.8954 45 54 45H68C69.1046 45 70 45.8954 70 47V56C70 57.1046 69.1046 58 68 58H60.9836C60.7263 54.091 57.4741 51 53.5 51C52.9863 51 52.4847 51.0516 52 51.15V47ZM67.1444 46.8396C67.5091 46.6433 67.964 46.7797 68.1604 47.1444C68.3567 47.5091 68.2203 47.964 67.8556 48.1604L61.3556 51.6604C61.1336 51.7799 60.8664 51.7799 60.6444 51.6604L54.1444 48.1604C53.7797 47.964 53.6433 47.5091 53.8396 47.1444C54.036 46.7797 54.4909 46.6433 54.8556 46.8396L61 50.1482L67.1444 46.8396Z" fill="white"/>
<defs>
<clipPath id="clip0">
<rect width="195" height="44" fill="white" transform="translate(138 30)"/>
</clipPath>
</defs>
</svg>
