<svg width="370" height="110" viewBox="0 0 370 110" fill="none" xmlns="http://www.w3.org/2000/svg">
<rect opacity="0.7" width="370" height="110" rx="10" fill="white"/>
<path d="M112.096 46.216V51H110.552V39.536H113.792C114.517 39.536 115.144 39.6107 115.672 39.76C116.2 39.904 116.635 40.1147 116.976 40.392C117.323 40.6693 117.579 41.0053 117.744 41.4C117.909 41.7893 117.992 42.2267 117.992 42.712C117.992 43.1173 117.928 43.496 117.8 43.848C117.672 44.2 117.485 44.5173 117.24 44.8C117 45.0773 116.704 45.3147 116.352 45.512C116.005 45.7093 115.611 45.8587 115.168 45.96C115.36 46.072 115.531 46.2347 115.68 46.448L119.024 51H117.648C117.365 51 117.157 50.8907 117.024 50.672L114.048 46.576C113.957 46.448 113.859 46.3573 113.752 46.304C113.645 46.2453 113.485 46.216 113.272 46.216H112.096ZM112.096 45.088H113.72C114.173 45.088 114.571 45.0347 114.912 44.928C115.259 44.816 115.547 44.6613 115.776 44.464C116.011 44.2613 116.187 44.0213 116.304 43.744C116.421 43.4667 116.48 43.16 116.48 42.824C116.48 42.1413 116.253 41.6267 115.8 41.28C115.352 40.9333 114.683 40.76 113.792 40.76H112.096V45.088ZM123.673 42.768C124.158 42.768 124.606 42.8507 125.017 43.016C125.428 43.176 125.782 43.4107 126.081 43.72C126.38 44.024 126.612 44.4027 126.777 44.856C126.948 45.304 127.033 45.816 127.033 46.392C127.033 46.616 127.009 46.7653 126.961 46.84C126.913 46.9147 126.822 46.952 126.689 46.952H121.297C121.308 47.464 121.377 47.9093 121.505 48.288C121.633 48.6667 121.809 48.984 122.033 49.24C122.257 49.4907 122.524 49.68 122.833 49.808C123.142 49.9307 123.489 49.992 123.873 49.992C124.23 49.992 124.537 49.952 124.793 49.872C125.054 49.7867 125.278 49.696 125.465 49.6C125.652 49.504 125.806 49.416 125.929 49.336C126.057 49.2507 126.166 49.208 126.257 49.208C126.374 49.208 126.465 49.2533 126.529 49.344L126.929 49.864C126.753 50.0773 126.542 50.264 126.297 50.424C126.052 50.5787 125.788 50.7067 125.505 50.808C125.228 50.9093 124.94 50.984 124.641 51.032C124.342 51.0853 124.046 51.112 123.753 51.112C123.193 51.112 122.676 51.0187 122.201 50.832C121.732 50.64 121.324 50.3627 120.977 50C120.636 49.632 120.369 49.1787 120.177 48.64C119.985 48.1013 119.889 47.4827 119.889 46.784C119.889 46.2187 119.974 45.6907 120.145 45.2C120.321 44.7093 120.572 44.2853 120.897 43.928C121.222 43.5653 121.62 43.2827 122.089 43.08C122.558 42.872 123.086 42.768 123.673 42.768ZM123.705 43.816C123.017 43.816 122.476 44.016 122.081 44.416C121.686 44.8107 121.441 45.36 121.345 46.064H125.753C125.753 45.7333 125.708 45.432 125.617 45.16C125.526 44.8827 125.393 44.6453 125.217 44.448C125.041 44.2453 124.825 44.0907 124.569 43.984C124.318 43.872 124.03 43.816 123.705 43.816ZM133.496 44.232C133.432 44.3493 133.333 44.408 133.2 44.408C133.12 44.408 133.029 44.3787 132.928 44.32C132.826 44.2613 132.701 44.1973 132.552 44.128C132.408 44.0533 132.234 43.9867 132.032 43.928C131.829 43.864 131.589 43.832 131.312 43.832C131.072 43.832 130.856 43.864 130.664 43.928C130.472 43.9867 130.306 44.0693 130.168 44.176C130.034 44.2827 129.93 44.408 129.856 44.552C129.786 44.6907 129.752 44.8427 129.752 45.008C129.752 45.216 129.81 45.3893 129.928 45.528C130.05 45.6667 130.21 45.7867 130.408 45.888C130.605 45.9893 130.829 46.08 131.08 46.16C131.33 46.2347 131.586 46.3173 131.848 46.408C132.114 46.4933 132.373 46.5893 132.624 46.696C132.874 46.8027 133.098 46.936 133.296 47.096C133.493 47.256 133.65 47.4533 133.768 47.688C133.89 47.9173 133.952 48.1947 133.952 48.52C133.952 48.8933 133.885 49.24 133.752 49.56C133.618 49.8747 133.421 50.1493 133.16 50.384C132.898 50.6133 132.578 50.7947 132.2 50.928C131.821 51.0613 131.384 51.128 130.888 51.128C130.322 51.128 129.81 51.0373 129.352 50.856C128.893 50.6693 128.504 50.432 128.184 50.144L128.52 49.6C128.562 49.5307 128.613 49.4773 128.672 49.44C128.73 49.4027 128.808 49.384 128.904 49.384C129 49.384 129.101 49.4213 129.208 49.496C129.314 49.5707 129.442 49.6533 129.592 49.744C129.746 49.8347 129.93 49.9173 130.144 49.992C130.362 50.0667 130.634 50.104 130.96 50.104C131.237 50.104 131.48 50.0693 131.688 50C131.896 49.9253 132.069 49.8267 132.207 49.704C132.346 49.5813 132.448 49.44 132.512 49.28C132.581 49.12 132.616 48.9493 132.616 48.768C132.616 48.544 132.554 48.36 132.432 48.216C132.314 48.0667 132.157 47.9413 131.96 47.84C131.762 47.7333 131.536 47.6427 131.28 47.568C131.029 47.488 130.77 47.4053 130.504 47.32C130.242 47.2347 129.984 47.1387 129.728 47.032C129.477 46.92 129.253 46.7813 129.056 46.616C128.858 46.4507 128.698 46.248 128.576 46.008C128.458 45.7627 128.4 45.4667 128.4 45.12C128.4 44.8107 128.464 44.5147 128.592 44.232C128.72 43.944 128.906 43.6933 129.152 43.48C129.397 43.2613 129.698 43.088 130.056 42.96C130.413 42.832 130.821 42.768 131.28 42.768C131.813 42.768 132.29 42.8533 132.712 43.024C133.138 43.1893 133.506 43.4187 133.816 43.712L133.496 44.232ZM135.793 53.744V42.896H136.641C136.844 42.896 136.972 42.9947 137.025 43.192L137.145 44.152C137.492 43.7307 137.886 43.392 138.329 43.136C138.777 42.88 139.292 42.752 139.873 42.752C140.337 42.752 140.758 42.8427 141.137 43.024C141.516 43.2 141.838 43.464 142.105 43.816C142.372 44.1627 142.577 44.5947 142.721 45.112C142.865 45.6293 142.937 46.224 142.937 46.896C142.937 47.4933 142.857 48.0507 142.697 48.568C142.537 49.08 142.308 49.5253 142.009 49.904C141.71 50.2773 141.342 50.5733 140.905 50.792C140.473 51.0053 139.985 51.112 139.441 51.112C138.94 51.112 138.51 51.0293 138.153 50.864C137.801 50.6987 137.489 50.464 137.217 50.16V53.744H135.793ZM139.401 43.904C138.937 43.904 138.529 44.0107 138.177 44.224C137.83 44.4373 137.51 44.7387 137.217 45.128V49.048C137.478 49.4 137.764 49.648 138.073 49.792C138.388 49.936 138.737 50.008 139.121 50.008C139.873 50.008 140.452 49.7387 140.857 49.2C141.262 48.6613 141.465 47.8933 141.465 46.896C141.465 46.368 141.417 45.9147 141.321 45.536C141.23 45.1573 141.097 44.848 140.921 44.608C140.745 44.3627 140.529 44.184 140.273 44.072C140.017 43.96 139.726 43.904 139.401 43.904ZM147.901 42.768C148.493 42.768 149.026 42.8667 149.501 43.064C149.981 43.2613 150.386 43.5413 150.717 43.904C151.053 44.2667 151.309 44.7067 151.485 45.224C151.666 45.736 151.757 46.3093 151.757 46.944C151.757 47.584 151.666 48.16 151.485 48.672C151.309 49.184 151.053 49.6213 150.717 49.984C150.386 50.3467 149.981 50.6267 149.501 50.824C149.026 51.016 148.493 51.112 147.901 51.112C147.309 51.112 146.773 51.016 146.293 50.824C145.818 50.6267 145.413 50.3467 145.077 49.984C144.741 49.6213 144.482 49.184 144.301 48.672C144.12 48.16 144.029 47.584 144.029 46.944C144.029 46.3093 144.12 45.736 144.301 45.224C144.482 44.7067 144.741 44.2667 145.077 43.904C145.413 43.5413 145.818 43.2613 146.293 43.064C146.773 42.8667 147.309 42.768 147.901 42.768ZM147.901 50C148.701 50 149.298 49.7333 149.693 49.2C150.088 48.6613 150.285 47.912 150.285 46.952C150.285 45.9867 150.088 45.2347 149.693 44.696C149.298 44.1573 148.701 43.888 147.901 43.888C147.496 43.888 147.144 43.9573 146.845 44.096C146.546 44.2347 146.296 44.4347 146.093 44.696C145.896 44.9573 145.746 45.28 145.645 45.664C145.549 46.0427 145.501 46.472 145.501 46.952C145.501 47.432 145.549 47.8613 145.645 48.24C145.746 48.6187 145.896 48.9387 146.093 49.2C146.296 49.456 146.546 49.6533 146.845 49.792C147.144 49.9307 147.496 50 147.901 50ZM153.512 51V42.896H154.36C154.562 42.896 154.69 42.9947 154.744 43.192L154.856 44.072C155.208 43.6827 155.6 43.368 156.032 43.128C156.469 42.888 156.973 42.768 157.544 42.768C157.986 42.768 158.376 42.8427 158.712 42.992C159.053 43.136 159.336 43.344 159.56 43.616C159.789 43.8827 159.962 44.2053 160.08 44.584C160.197 44.9627 160.256 45.3813 160.256 45.84V51H158.832V45.84C158.832 45.2267 158.69 44.752 158.408 44.416C158.13 44.0747 157.704 43.904 157.128 43.904C156.706 43.904 156.312 44.0053 155.944 44.208C155.581 44.4107 155.245 44.6853 154.936 45.032V51H153.512ZM167.042 44.232C166.978 44.3493 166.88 44.408 166.746 44.408C166.666 44.408 166.576 44.3787 166.474 44.32C166.373 44.2613 166.248 44.1973 166.098 44.128C165.954 44.0533 165.781 43.9867 165.578 43.928C165.376 43.864 165.136 43.832 164.858 43.832C164.618 43.832 164.402 43.864 164.21 43.928C164.018 43.9867 163.853 44.0693 163.714 44.176C163.581 44.2827 163.477 44.408 163.402 44.552C163.333 44.6907 163.298 44.8427 163.298 45.008C163.298 45.216 163.357 45.3893 163.474 45.528C163.597 45.6667 163.757 45.7867 163.954 45.888C164.152 45.9893 164.376 46.08 164.626 46.16C164.877 46.2347 165.133 46.3173 165.394 46.408C165.661 46.4933 165.92 46.5893 166.17 46.696C166.421 46.8027 166.645 46.936 166.842 47.096C167.04 47.256 167.197 47.4533 167.314 47.688C167.437 47.9173 167.498 48.1947 167.498 48.52C167.498 48.8933 167.432 49.24 167.298 49.56C167.165 49.8747 166.968 50.1493 166.706 50.384C166.445 50.6133 166.125 50.7947 165.746 50.928C165.368 51.0613 164.93 51.128 164.434 51.128C163.869 51.128 163.357 51.0373 162.898 50.856C162.44 50.6693 162.05 50.432 161.73 50.144L162.066 49.6C162.109 49.5307 162.16 49.4773 162.218 49.44C162.277 49.4027 162.354 49.384 162.45 49.384C162.546 49.384 162.648 49.4213 162.754 49.496C162.861 49.5707 162.989 49.6533 163.138 49.744C163.293 49.8347 163.477 49.9173 163.69 49.992C163.909 50.0667 164.181 50.104 164.506 50.104C164.784 50.104 165.026 50.0693 165.234 50C165.442 49.9253 165.616 49.8267 165.754 49.704C165.893 49.5813 165.994 49.44 166.058 49.28C166.128 49.12 166.162 48.9493 166.162 48.768C166.162 48.544 166.101 48.36 165.978 48.216C165.861 48.0667 165.704 47.9413 165.506 47.84C165.309 47.7333 165.082 47.6427 164.826 47.568C164.576 47.488 164.317 47.4053 164.05 47.32C163.789 47.2347 163.53 47.1387 163.274 47.032C163.024 46.92 162.8 46.7813 162.602 46.616C162.405 46.4507 162.245 46.248 162.122 46.008C162.005 45.7627 161.946 45.4667 161.946 45.12C161.946 44.8107 162.01 44.5147 162.138 44.232C162.266 43.944 162.453 43.6933 162.698 43.48C162.944 43.2613 163.245 43.088 163.602 42.96C163.96 42.832 164.368 42.768 164.826 42.768C165.36 42.768 165.837 42.8533 166.258 43.024C166.685 43.1893 167.053 43.4187 167.362 43.712L167.042 44.232ZM172.548 42.768C173.033 42.768 173.481 42.8507 173.892 43.016C174.303 43.176 174.657 43.4107 174.956 43.72C175.255 44.024 175.487 44.4027 175.652 44.856C175.823 45.304 175.908 45.816 175.908 46.392C175.908 46.616 175.884 46.7653 175.836 46.84C175.788 46.9147 175.697 46.952 175.564 46.952H170.172C170.183 47.464 170.252 47.9093 170.38 48.288C170.508 48.6667 170.684 48.984 170.908 49.24C171.132 49.4907 171.399 49.68 171.708 49.808C172.017 49.9307 172.364 49.992 172.748 49.992C173.105 49.992 173.412 49.952 173.668 49.872C173.929 49.7867 174.153 49.696 174.34 49.6C174.527 49.504 174.681 49.416 174.804 49.336C174.932 49.2507 175.041 49.208 175.132 49.208C175.249 49.208 175.34 49.2533 175.404 49.344L175.804 49.864C175.628 50.0773 175.417 50.264 175.172 50.424C174.927 50.5787 174.663 50.7067 174.38 50.808C174.103 50.9093 173.815 50.984 173.516 51.032C173.217 51.0853 172.921 51.112 172.628 51.112C172.068 51.112 171.551 51.0187 171.076 50.832C170.607 50.64 170.199 50.3627 169.852 50C169.511 49.632 169.244 49.1787 169.052 48.64C168.86 48.1013 168.764 47.4827 168.764 46.784C168.764 46.2187 168.849 45.6907 169.02 45.2C169.196 44.7093 169.447 44.2853 169.772 43.928C170.097 43.5653 170.495 43.2827 170.964 43.08C171.433 42.872 171.961 42.768 172.548 42.768ZM172.58 43.816C171.892 43.816 171.351 44.016 170.956 44.416C170.561 44.8107 170.316 45.36 170.22 46.064H174.628C174.628 45.7333 174.583 45.432 174.492 45.16C174.401 44.8827 174.268 44.6453 174.092 44.448C173.916 44.2453 173.7 44.0907 173.444 43.984C173.193 43.872 172.905 43.816 172.58 43.816ZM180.824 51V42.896H181.64C181.795 42.896 181.902 42.9253 181.96 42.984C182.019 43.0427 182.059 43.144 182.08 43.288L182.176 44.552C182.454 43.9867 182.795 43.5467 183.2 43.232C183.611 42.912 184.091 42.752 184.64 42.752C184.864 42.752 185.067 42.7787 185.248 42.832C185.43 42.88 185.598 42.9493 185.752 43.04L185.568 44.104C185.531 44.2373 185.448 44.304 185.32 44.304C185.246 44.304 185.131 44.28 184.976 44.232C184.822 44.1787 184.606 44.152 184.328 44.152C183.832 44.152 183.416 44.296 183.08 44.584C182.75 44.872 182.472 45.2907 182.248 45.84V51H180.824ZM192.933 51H192.301C192.162 51 192.05 50.9787 191.965 50.936C191.879 50.8933 191.823 50.8027 191.797 50.664L191.637 49.912C191.423 50.104 191.215 50.2773 191.013 50.432C190.81 50.5813 190.597 50.7093 190.373 50.816C190.149 50.9173 189.909 50.9947 189.653 51.048C189.402 51.1013 189.122 51.128 188.813 51.128C188.498 51.128 188.202 51.0853 187.924 51C187.653 50.9093 187.415 50.776 187.213 50.6C187.01 50.424 186.847 50.2027 186.725 49.936C186.607 49.664 186.549 49.344 186.549 48.976C186.549 48.656 186.637 48.3493 186.812 48.056C186.989 47.7573 187.271 47.4933 187.661 47.264C188.055 47.0347 188.57 46.848 189.205 46.704C189.839 46.5547 190.615 46.4693 191.533 46.448V45.816C191.533 45.1867 191.397 44.712 191.125 44.392C190.858 44.0667 190.461 43.904 189.933 43.904C189.586 43.904 189.293 43.9493 189.053 44.04C188.818 44.1253 188.613 44.224 188.437 44.336C188.266 44.4427 188.117 44.5413 187.989 44.632C187.866 44.7173 187.743 44.76 187.621 44.76C187.525 44.76 187.439 44.736 187.365 44.688C187.295 44.6347 187.239 44.5707 187.197 44.496L186.941 44.04C187.389 43.608 187.871 43.2853 188.389 43.072C188.906 42.8587 189.479 42.752 190.109 42.752C190.562 42.752 190.965 42.8267 191.317 42.976C191.669 43.1253 191.965 43.3333 192.205 43.6C192.445 43.8667 192.626 44.1893 192.749 44.568C192.871 44.9467 192.933 45.3627 192.933 45.816V51ZM189.237 50.128C189.487 50.128 189.717 50.104 189.924 50.056C190.133 50.0027 190.327 49.9307 190.509 49.84C190.695 49.744 190.871 49.6293 191.037 49.496C191.207 49.3627 191.373 49.2107 191.533 49.04V47.352C190.877 47.3733 190.319 47.4267 189.861 47.512C189.402 47.592 189.029 47.6987 188.741 47.832C188.453 47.9653 188.242 48.1227 188.109 48.304C187.981 48.4853 187.917 48.688 187.917 48.912C187.917 49.1253 187.951 49.3093 188.021 49.464C188.09 49.6187 188.183 49.7467 188.301 49.848C188.418 49.944 188.557 50.016 188.717 50.064C188.877 50.1067 189.05 50.128 189.237 50.128ZM197.546 51.128C196.906 51.128 196.413 50.9493 196.066 50.592C195.725 50.2347 195.554 49.72 195.554 49.048V44.088H194.578C194.493 44.088 194.421 44.064 194.362 44.016C194.303 43.9627 194.274 43.8827 194.274 43.776V43.208L195.602 43.04L195.93 40.536C195.941 40.456 195.975 40.392 196.034 40.344C196.093 40.2907 196.167 40.264 196.258 40.264H196.978V43.056H199.298V44.088H196.978V48.952C196.978 49.2933 197.061 49.5467 197.226 49.712C197.391 49.8773 197.605 49.96 197.866 49.96C198.015 49.96 198.143 49.9413 198.25 49.904C198.362 49.8613 198.458 49.816 198.538 49.768C198.618 49.72 198.685 49.6773 198.738 49.64C198.797 49.5973 198.847 49.576 198.89 49.576C198.965 49.576 199.031 49.6213 199.09 49.712L199.506 50.392C199.261 50.6213 198.965 50.8027 198.618 50.936C198.271 51.064 197.914 51.128 197.546 51.128ZM204.267 42.768C204.752 42.768 205.2 42.8507 205.611 43.016C206.021 43.176 206.376 43.4107 206.675 43.72C206.973 44.024 207.205 44.4027 207.371 44.856C207.541 45.304 207.627 45.816 207.627 46.392C207.627 46.616 207.603 46.7653 207.555 46.84C207.507 46.9147 207.416 46.952 207.283 46.952H201.891C201.901 47.464 201.971 47.9093 202.099 48.288C202.227 48.6667 202.403 48.984 202.627 49.24C202.851 49.4907 203.117 49.68 203.427 49.808C203.736 49.9307 204.083 49.992 204.467 49.992C204.824 49.992 205.131 49.952 205.387 49.872C205.648 49.7867 205.872 49.696 206.059 49.6C206.245 49.504 206.4 49.416 206.523 49.336C206.651 49.2507 206.76 49.208 206.851 49.208C206.968 49.208 207.059 49.2533 207.123 49.344L207.523 49.864C207.347 50.0773 207.136 50.264 206.891 50.424C206.645 50.5787 206.381 50.7067 206.099 50.808C205.821 50.9093 205.533 50.984 205.235 51.032C204.936 51.0853 204.64 51.112 204.347 51.112C203.787 51.112 203.269 51.0187 202.795 50.832C202.325 50.64 201.917 50.3627 201.571 50C201.229 49.632 200.963 49.1787 200.771 48.64C200.579 48.1013 200.483 47.4827 200.483 46.784C200.483 46.2187 200.568 45.6907 200.739 45.2C200.915 44.7093 201.165 44.2853 201.491 43.928C201.816 43.5653 202.213 43.2827 202.683 43.08C203.152 42.872 203.68 42.768 204.267 42.768ZM204.299 43.816C203.611 43.816 203.069 44.016 202.675 44.416C202.28 44.8107 202.035 45.36 201.939 46.064H206.347C206.347 45.7333 206.301 45.432 206.211 45.16C206.12 44.8827 205.987 44.6453 205.811 44.448C205.635 44.2453 205.419 44.0907 205.163 43.984C204.912 43.872 204.624 43.816 204.299 43.816ZM212.175 45.6H216.127V46.808H212.175V45.6ZM222.312 49.912H224.776V42.096C224.776 41.8613 224.784 41.624 224.8 41.384L222.752 43.136C222.698 43.1787 222.645 43.2107 222.592 43.232C222.538 43.248 222.488 43.256 222.44 43.256C222.36 43.256 222.288 43.24 222.224 43.208C222.16 43.1707 222.112 43.128 222.08 43.08L221.632 42.464L225.04 39.512H226.2V49.912H228.456V51H222.312V49.912ZM238.097 45.272C238.097 46.2747 237.988 47.144 237.769 47.88C237.556 48.6107 237.262 49.216 236.889 49.696C236.516 50.176 236.073 50.5333 235.561 50.768C235.054 51.0027 234.51 51.12 233.929 51.12C233.342 51.12 232.796 51.0027 232.289 50.768C231.788 50.5333 231.35 50.176 230.977 49.696C230.604 49.216 230.31 48.6107 230.097 47.88C229.884 47.144 229.777 46.2747 229.777 45.272C229.777 44.2693 229.884 43.4 230.097 42.664C230.31 41.928 230.604 41.32 230.977 40.84C231.35 40.3547 231.788 39.9947 232.289 39.76C232.796 39.5253 233.342 39.408 233.929 39.408C234.51 39.408 235.054 39.5253 235.561 39.76C236.073 39.9947 236.516 40.3547 236.889 40.84C237.262 41.32 237.556 41.928 237.769 42.664C237.988 43.4 238.097 44.2693 238.097 45.272ZM236.617 45.272C236.617 44.3973 236.542 43.664 236.393 43.072C236.249 42.4747 236.052 41.9947 235.801 41.632C235.556 41.2693 235.27 41.0107 234.945 40.856C234.62 40.696 234.281 40.616 233.929 40.616C233.577 40.616 233.238 40.696 232.913 40.856C232.588 41.0107 232.302 41.2693 232.057 41.632C231.812 41.9947 231.614 42.4747 231.465 43.072C231.321 43.664 231.249 44.3973 231.249 45.272C231.249 46.1467 231.321 46.88 231.465 47.472C231.614 48.064 231.812 48.5413 232.057 48.904C232.302 49.2667 232.588 49.528 232.913 49.688C233.238 49.8427 233.577 49.92 233.929 49.92C234.281 49.92 234.62 49.8427 234.945 49.688C235.27 49.528 235.556 49.2667 235.801 48.904C236.052 48.5413 236.249 48.064 236.393 47.472C236.542 46.88 236.617 46.1467 236.617 45.272ZM246.402 40.16C246.402 40.3627 246.338 40.5307 246.21 40.664C246.082 40.792 245.866 40.856 245.562 40.856H241.962L241.434 43.864C242.031 43.736 242.583 43.672 243.09 43.672C243.687 43.672 244.213 43.76 244.666 43.936C245.125 44.112 245.509 44.3547 245.818 44.664C246.127 44.9733 246.359 45.3387 246.514 45.76C246.674 46.1813 246.754 46.64 246.754 47.136C246.754 47.744 246.647 48.2933 246.434 48.784C246.221 49.2747 245.927 49.696 245.554 50.048C245.186 50.3947 244.751 50.6613 244.25 50.848C243.749 51.0347 243.207 51.128 242.626 51.128C242.29 51.128 241.967 51.0933 241.658 51.024C241.349 50.96 241.061 50.872 240.794 50.76C240.527 50.648 240.279 50.52 240.05 50.376C239.821 50.232 239.618 50.08 239.442 49.92L239.874 49.312C239.97 49.1733 240.098 49.104 240.258 49.104C240.359 49.104 240.477 49.1467 240.61 49.232C240.749 49.312 240.914 49.4027 241.106 49.504C241.298 49.6053 241.522 49.6987 241.778 49.784C242.039 49.864 242.349 49.904 242.706 49.904C243.106 49.904 243.466 49.84 243.786 49.712C244.106 49.584 244.378 49.4027 244.602 49.168C244.831 48.928 245.007 48.6427 245.13 48.312C245.253 47.9813 245.314 47.6107 245.314 47.2C245.314 46.8427 245.261 46.52 245.154 46.232C245.053 45.944 244.895 45.6987 244.682 45.496C244.474 45.2933 244.213 45.136 243.898 45.024C243.583 44.912 243.215 44.856 242.794 44.856C242.506 44.856 242.207 44.88 241.898 44.928C241.589 44.976 241.269 45.0533 240.938 45.16L240.042 44.896L240.97 39.536H246.402V40.16ZM253.515 42.304C253.515 42.752 253.446 43.1547 253.307 43.512C253.169 43.864 252.982 44.1627 252.747 44.408C252.518 44.648 252.249 44.832 251.939 44.96C251.63 45.088 251.307 45.152 250.971 45.152C250.609 45.152 250.273 45.088 249.963 44.96C249.659 44.832 249.393 44.648 249.163 44.408C248.934 44.1627 248.755 43.864 248.627 43.512C248.499 43.1547 248.435 42.752 248.435 42.304C248.435 41.8453 248.499 41.4373 248.627 41.08C248.755 40.7227 248.934 40.4213 249.163 40.176C249.393 39.9307 249.659 39.744 249.963 39.616C250.273 39.488 250.609 39.424 250.971 39.424C251.329 39.424 251.662 39.488 251.971 39.616C252.286 39.744 252.555 39.9307 252.779 40.176C253.009 40.4213 253.187 40.7227 253.315 41.08C253.449 41.4373 253.515 41.8453 253.515 42.304ZM252.403 42.304C252.403 41.952 252.366 41.6533 252.291 41.408C252.217 41.1627 252.113 40.9627 251.979 40.808C251.851 40.648 251.699 40.5333 251.523 40.464C251.353 40.3947 251.169 40.36 250.971 40.36C250.774 40.36 250.587 40.3947 250.411 40.464C250.241 40.5333 250.091 40.648 249.963 40.808C249.835 40.9627 249.734 41.1627 249.659 41.408C249.59 41.6533 249.555 41.952 249.555 42.304C249.555 42.6507 249.59 42.9467 249.659 43.192C249.734 43.432 249.835 43.6293 249.963 43.784C250.091 43.9333 250.241 44.0427 250.411 44.112C250.587 44.176 250.774 44.208 250.971 44.208C251.169 44.208 251.353 44.176 251.523 44.112C251.699 44.0427 251.851 43.9333 251.979 43.784C252.113 43.6293 252.217 43.432 252.291 43.192C252.366 42.9467 252.403 42.6507 252.403 42.304ZM257.523 39.824C257.593 39.7333 257.665 39.664 257.739 39.616C257.819 39.5627 257.923 39.536 258.051 39.536H259.075L250.699 50.768C250.646 50.8373 250.582 50.8933 250.507 50.936C250.433 50.9787 250.345 51 250.243 51H249.187L257.523 39.824ZM259.851 48.296C259.851 48.744 259.782 49.144 259.643 49.496C259.505 49.848 259.318 50.1467 259.083 50.392C258.854 50.632 258.585 50.816 258.275 50.944C257.971 51.072 257.651 51.136 257.315 51.136C256.953 51.136 256.617 51.072 256.307 50.944C256.003 50.816 255.737 50.632 255.507 50.392C255.278 50.1467 255.099 49.848 254.971 49.496C254.843 49.144 254.779 48.744 254.779 48.296C254.779 47.8373 254.843 47.4293 254.971 47.072C255.099 46.7093 255.278 46.4053 255.507 46.16C255.737 45.9147 256.003 45.728 256.307 45.6C256.617 45.472 256.953 45.408 257.315 45.408C257.673 45.408 258.006 45.472 258.315 45.6C258.625 45.728 258.894 45.9147 259.123 46.16C259.353 46.4053 259.531 46.7093 259.659 47.072C259.787 47.4293 259.851 47.8373 259.851 48.296ZM258.747 48.296C258.747 47.944 258.71 47.6453 258.635 47.4C258.561 47.1493 258.457 46.9467 258.323 46.792C258.195 46.6373 258.043 46.5253 257.867 46.456C257.697 46.3867 257.513 46.352 257.315 46.352C257.118 46.352 256.931 46.3867 256.755 46.456C256.585 46.5253 256.435 46.6373 256.307 46.792C256.179 46.9467 256.078 47.1493 256.003 47.4C255.934 47.6453 255.899 47.944 255.899 48.296C255.899 48.6427 255.934 48.936 256.003 49.176C256.078 49.416 256.179 49.6133 256.307 49.768C256.435 49.9173 256.585 50.0267 256.755 50.096C256.931 50.16 257.118 50.192 257.315 50.192C257.513 50.192 257.697 50.16 257.867 50.096C258.043 50.0267 258.195 49.9173 258.323 49.768C258.457 49.6133 258.561 49.416 258.635 49.176C258.71 48.936 258.747 48.6427 258.747 48.296Z" fill="#141821"/>
<rect x="42" y="72" width="289" height="5" rx="2.5" fill="#EAF1F8"/>
<rect x="42" y="72" width="289" height="5" rx="2.5" fill="#00CEDE"/>
</svg>
