<svg width="370" height="110" viewBox="0 0 370 110" fill="none" xmlns="http://www.w3.org/2000/svg">
<rect opacity="0.7" width="370" height="110" rx="10" fill="white"/>
<path d="M38.456 39.536V40.8H32.952V44.808H37.656V46.072H32.952V51H31.392V39.536H38.456ZM39.7461 51V42.896H40.5621C40.7168 42.896 40.8235 42.9253 40.8821 42.984C40.9408 43.0427 40.9808 43.144 41.0021 43.288L41.0981 44.552C41.3755 43.9867 41.7168 43.5467 42.1221 43.232C42.5328 42.912 43.0128 42.752 43.5621 42.752C43.7861 42.752 43.9888 42.7787 44.1701 42.832C44.3515 42.88 44.5195 42.9493 44.6741 43.04L44.4901 44.104C44.4528 44.2373 44.3701 44.304 44.2421 44.304C44.1675 44.304 44.0528 44.28 43.8981 44.232C43.7435 44.1787 43.5275 44.152 43.2501 44.152C42.7541 44.152 42.3381 44.296 42.0021 44.584C41.6715 44.872 41.3941 45.2907 41.1701 45.84V51H39.7461ZM47.7833 42.896V51H46.3593V42.896H47.7833ZM48.1033 40.352C48.1033 40.4907 48.0739 40.6213 48.0153 40.744C47.9619 40.8613 47.8873 40.968 47.7913 41.064C47.7006 41.1547 47.5939 41.2267 47.4713 41.28C47.3486 41.3333 47.2179 41.36 47.0793 41.36C46.9406 41.36 46.8099 41.3333 46.6873 41.28C46.5699 41.2267 46.4633 41.1547 46.3673 41.064C46.2766 40.968 46.2046 40.8613 46.1513 40.744C46.0979 40.6213 46.0713 40.4907 46.0713 40.352C46.0713 40.2133 46.0979 40.0827 46.1513 39.96C46.2046 39.832 46.2766 39.7227 46.3673 39.632C46.4633 39.536 46.5699 39.4613 46.6873 39.408C46.8099 39.3547 46.9406 39.328 47.0793 39.328C47.2179 39.328 47.3486 39.3547 47.4713 39.408C47.5939 39.4613 47.7006 39.536 47.7913 39.632C47.8873 39.7227 47.9619 39.832 48.0153 39.96C48.0739 40.0827 48.1033 40.2133 48.1033 40.352ZM53.501 42.768C53.9863 42.768 54.4343 42.8507 54.845 43.016C55.2557 43.176 55.6103 43.4107 55.909 43.72C56.2077 44.024 56.4397 44.4027 56.605 44.856C56.7757 45.304 56.861 45.816 56.861 46.392C56.861 46.616 56.837 46.7653 56.789 46.84C56.741 46.9147 56.6503 46.952 56.517 46.952H51.125C51.1357 47.464 51.205 47.9093 51.333 48.288C51.461 48.6667 51.637 48.984 51.861 49.24C52.085 49.4907 52.3517 49.68 52.661 49.808C52.9703 49.9307 53.317 49.992 53.701 49.992C54.0583 49.992 54.365 49.952 54.621 49.872C54.8823 49.7867 55.1063 49.696 55.293 49.6C55.4797 49.504 55.6343 49.416 55.757 49.336C55.885 49.2507 55.9943 49.208 56.085 49.208C56.2023 49.208 56.293 49.2533 56.357 49.344L56.757 49.864C56.581 50.0773 56.3703 50.264 56.125 50.424C55.8797 50.5787 55.6157 50.7067 55.333 50.808C55.0557 50.9093 54.7677 50.984 54.469 51.032C54.1703 51.0853 53.8743 51.112 53.581 51.112C53.021 51.112 52.5037 51.0187 52.029 50.832C51.5597 50.64 51.1517 50.3627 50.805 50C50.4637 49.632 50.197 49.1787 50.005 48.64C49.813 48.1013 49.717 47.4827 49.717 46.784C49.717 46.2187 49.8023 45.6907 49.973 45.2C50.149 44.7093 50.3997 44.2853 50.725 43.928C51.0503 43.5653 51.4477 43.2827 51.917 43.08C52.3863 42.872 52.9143 42.768 53.501 42.768ZM53.533 43.816C52.845 43.816 52.3037 44.016 51.909 44.416C51.5143 44.8107 51.269 45.36 51.173 46.064H55.581C55.581 45.7333 55.5357 45.432 55.445 45.16C55.3543 44.8827 55.221 44.6453 55.045 44.448C54.869 44.2453 54.653 44.0907 54.397 43.984C54.1463 43.872 53.8583 43.816 53.533 43.816ZM58.6836 51V42.896H59.5316C59.7343 42.896 59.8623 42.9947 59.9156 43.192L60.0276 44.072C60.3796 43.6827 60.7716 43.368 61.2036 43.128C61.641 42.888 62.145 42.768 62.7156 42.768C63.1583 42.768 63.5476 42.8427 63.8836 42.992C64.225 43.136 64.5076 43.344 64.7316 43.616C64.961 43.8827 65.1343 44.2053 65.2516 44.584C65.369 44.9627 65.4276 45.3813 65.4276 45.84V51H64.0036V45.84C64.0036 45.2267 63.8623 44.752 63.5796 44.416C63.3023 44.0747 62.8756 43.904 62.2996 43.904C61.8783 43.904 61.4836 44.0053 61.1156 44.208C60.753 44.4107 60.417 44.6853 60.1076 45.032V51H58.6836ZM73.2783 51C73.0756 51 72.9476 50.9013 72.8943 50.704L72.7663 49.72C72.4196 50.1413 72.0223 50.48 71.5743 50.736C71.1316 50.9867 70.6223 51.112 70.0463 51.112C69.5823 51.112 69.1609 51.024 68.7823 50.848C68.4036 50.6667 68.0809 50.4027 67.8143 50.056C67.5476 49.7093 67.3423 49.2773 67.1983 48.76C67.0543 48.2427 66.9823 47.648 66.9823 46.976C66.9823 46.3787 67.0623 45.824 67.2223 45.312C67.3823 44.7947 67.6116 44.3467 67.9103 43.968C68.2143 43.5893 68.5823 43.2933 69.0143 43.08C69.4463 42.8613 69.9369 42.752 70.4863 42.752C70.9823 42.752 71.4063 42.8373 71.7583 43.008C72.1103 43.1733 72.4249 43.408 72.7023 43.712V39.216H74.1263V51H73.2783ZM70.5182 49.96C70.9823 49.96 71.3876 49.8533 71.7343 49.64C72.0863 49.4267 72.4089 49.1253 72.7023 48.736V44.816C72.4409 44.464 72.1529 44.2187 71.8383 44.08C71.5289 43.936 71.1849 43.864 70.8063 43.864C70.0489 43.864 69.4676 44.1333 69.0623 44.672C68.6569 45.2107 68.4543 45.9787 68.4543 46.976C68.4543 47.504 68.4996 47.9573 68.5903 48.336C68.6809 48.7093 68.8143 49.0187 68.9903 49.264C69.1663 49.504 69.3823 49.68 69.6383 49.792C69.8943 49.904 70.1876 49.96 70.5182 49.96ZM78.0958 39.216V51H76.6718V39.216H78.0958ZM82.9815 53.392C82.9335 53.4987 82.8722 53.584 82.7975 53.648C82.7282 53.712 82.6188 53.744 82.4695 53.744H81.4135L82.8935 50.528L79.5495 42.896H80.7815C80.9042 42.896 81.0002 42.928 81.0695 42.992C81.1388 43.0507 81.1895 43.1173 81.2215 43.192L83.3895 48.296C83.4375 48.4133 83.4775 48.5307 83.5095 48.648C83.5468 48.7653 83.5788 48.8853 83.6055 49.008C83.6428 48.8853 83.6802 48.7653 83.7175 48.648C83.7548 48.5307 83.7975 48.4107 83.8455 48.288L85.9495 43.192C85.9815 43.1067 86.0348 43.0373 86.1095 42.984C86.1895 42.9253 86.2748 42.896 86.3655 42.896H87.5015L82.9815 53.392ZM93.8148 46.216V51H92.2708V39.536H95.5108C96.2361 39.536 96.8628 39.6107 97.3908 39.76C97.9188 39.904 98.3534 40.1147 98.6948 40.392C99.0414 40.6693 99.2974 41.0053 99.4628 41.4C99.6281 41.7893 99.7108 42.2267 99.7108 42.712C99.7108 43.1173 99.6468 43.496 99.5188 43.848C99.3908 44.2 99.2041 44.5173 98.9588 44.8C98.7188 45.0773 98.4228 45.3147 98.0708 45.512C97.7241 45.7093 97.3294 45.8587 96.8868 45.96C97.0788 46.072 97.2494 46.2347 97.3988 46.448L100.743 51H99.3668C99.0841 51 98.8761 50.8907 98.7428 50.672L95.7668 46.576C95.6761 46.448 95.5774 46.3573 95.4708 46.304C95.3641 46.2453 95.2041 46.216 94.9908 46.216H93.8148ZM93.8148 45.088H95.4388C95.8921 45.088 96.2894 45.0347 96.6308 44.928C96.9774 44.816 97.2654 44.6613 97.4948 44.464C97.7294 44.2613 97.9054 44.0213 98.0228 43.744C98.1401 43.4667 98.1988 43.16 98.1988 42.824C98.1988 42.1413 97.9721 41.6267 97.5188 41.28C97.0708 40.9333 96.4014 40.76 95.5108 40.76H93.8148V45.088ZM108.136 51H107.504C107.365 51 107.253 50.9787 107.168 50.936C107.082 50.8933 107.026 50.8027 107 50.664L106.84 49.912C106.626 50.104 106.418 50.2773 106.216 50.432C106.013 50.5813 105.8 50.7093 105.576 50.816C105.352 50.9173 105.112 50.9947 104.856 51.048C104.605 51.1013 104.325 51.128 104.016 51.128C103.701 51.128 103.405 51.0853 103.128 51C102.856 50.9093 102.618 50.776 102.416 50.6C102.213 50.424 102.05 50.2027 101.928 49.936C101.81 49.664 101.752 49.344 101.752 48.976C101.752 48.656 101.84 48.3493 102.016 48.056C102.192 47.7573 102.474 47.4933 102.864 47.264C103.258 47.0347 103.773 46.848 104.408 46.704C105.042 46.5547 105.818 46.4693 106.736 46.448V45.816C106.736 45.1867 106.6 44.712 106.328 44.392C106.061 44.0667 105.664 43.904 105.136 43.904C104.789 43.904 104.496 43.9493 104.256 44.04C104.021 44.1253 103.816 44.224 103.64 44.336C103.469 44.4427 103.32 44.5413 103.192 44.632C103.069 44.7173 102.946 44.76 102.824 44.76C102.728 44.76 102.642 44.736 102.568 44.688C102.498 44.6347 102.442 44.5707 102.4 44.496L102.144 44.04C102.592 43.608 103.074 43.2853 103.592 43.072C104.109 42.8587 104.682 42.752 105.312 42.752C105.765 42.752 106.168 42.8267 106.52 42.976C106.872 43.1253 107.168 43.3333 107.408 43.6C107.648 43.8667 107.829 44.1893 107.952 44.568C108.074 44.9467 108.136 45.3627 108.136 45.816V51ZM104.44 50.128C104.69 50.128 104.92 50.104 105.128 50.056C105.336 50.0027 105.53 49.9307 105.712 49.84C105.898 49.744 106.074 49.6293 106.24 49.496C106.41 49.3627 106.576 49.2107 106.736 49.04V47.352C106.08 47.3733 105.522 47.4267 105.064 47.512C104.605 47.592 104.232 47.6987 103.944 47.832C103.656 47.9653 103.445 48.1227 103.312 48.304C103.184 48.4853 103.12 48.688 103.12 48.912C103.12 49.1253 103.154 49.3093 103.224 49.464C103.293 49.6187 103.386 49.7467 103.504 49.848C103.621 49.944 103.76 50.016 103.92 50.064C104.08 50.1067 104.253 50.128 104.44 50.128ZM112.749 51.128C112.109 51.128 111.616 50.9493 111.269 50.592C110.928 50.2347 110.757 49.72 110.757 49.048V44.088H109.781C109.696 44.088 109.624 44.064 109.565 44.016C109.506 43.9627 109.477 43.8827 109.477 43.776V43.208L110.805 43.04L111.133 40.536C111.144 40.456 111.178 40.392 111.237 40.344C111.296 40.2907 111.37 40.264 111.461 40.264H112.181V43.056H114.501V44.088H112.181V48.952C112.181 49.2933 112.264 49.5467 112.429 49.712C112.594 49.8773 112.808 49.96 113.069 49.96C113.218 49.96 113.346 49.9413 113.453 49.904C113.565 49.8613 113.661 49.816 113.741 49.768C113.821 49.72 113.888 49.6773 113.941 49.64C114 49.5973 114.05 49.576 114.093 49.576C114.168 49.576 114.234 49.6213 114.293 49.712L114.709 50.392C114.464 50.6213 114.168 50.8027 113.821 50.936C113.474 51.064 113.117 51.128 112.749 51.128ZM119.47 42.768C119.955 42.768 120.403 42.8507 120.814 43.016C121.224 43.176 121.579 43.4107 121.878 43.72C122.176 44.024 122.408 44.4027 122.574 44.856C122.744 45.304 122.83 45.816 122.83 46.392C122.83 46.616 122.806 46.7653 122.758 46.84C122.71 46.9147 122.619 46.952 122.486 46.952H117.094C117.104 47.464 117.174 47.9093 117.302 48.288C117.43 48.6667 117.606 48.984 117.83 49.24C118.054 49.4907 118.32 49.68 118.63 49.808C118.939 49.9307 119.286 49.992 119.67 49.992C120.027 49.992 120.334 49.952 120.59 49.872C120.851 49.7867 121.075 49.696 121.262 49.6C121.448 49.504 121.603 49.416 121.726 49.336C121.854 49.2507 121.963 49.208 122.054 49.208C122.171 49.208 122.262 49.2533 122.326 49.344L122.726 49.864C122.55 50.0773 122.339 50.264 122.094 50.424C121.848 50.5787 121.584 50.7067 121.302 50.808C121.024 50.9093 120.736 50.984 120.438 51.032C120.139 51.0853 119.843 51.112 119.55 51.112C118.99 51.112 118.472 51.0187 117.998 50.832C117.528 50.64 117.12 50.3627 116.774 50C116.432 49.632 116.166 49.1787 115.974 48.64C115.782 48.1013 115.686 47.4827 115.686 46.784C115.686 46.2187 115.771 45.6907 115.942 45.2C116.118 44.7093 116.368 44.2853 116.694 43.928C117.019 43.5653 117.416 43.2827 117.886 43.08C118.355 42.872 118.883 42.768 119.47 42.768ZM119.502 43.816C118.814 43.816 118.272 44.016 117.878 44.416C117.483 44.8107 117.238 45.36 117.142 46.064H121.55C121.55 45.7333 121.504 45.432 121.414 45.16C121.323 44.8827 121.19 44.6453 121.014 44.448C120.838 44.2453 120.622 44.0907 120.366 43.984C120.115 43.872 119.827 43.816 119.502 43.816ZM129.292 44.232C129.228 44.3493 129.13 44.408 128.996 44.408C128.916 44.408 128.826 44.3787 128.724 44.32C128.623 44.2613 128.498 44.1973 128.348 44.128C128.204 44.0533 128.031 43.9867 127.828 43.928C127.626 43.864 127.386 43.832 127.108 43.832C126.868 43.832 126.652 43.864 126.46 43.928C126.268 43.9867 126.103 44.0693 125.964 44.176C125.831 44.2827 125.727 44.408 125.652 44.552C125.583 44.6907 125.548 44.8427 125.548 45.008C125.548 45.216 125.607 45.3893 125.724 45.528C125.847 45.6667 126.007 45.7867 126.204 45.888C126.402 45.9893 126.626 46.08 126.876 46.16C127.127 46.2347 127.383 46.3173 127.644 46.408C127.911 46.4933 128.17 46.5893 128.42 46.696C128.671 46.8027 128.895 46.936 129.092 47.096C129.29 47.256 129.447 47.4533 129.564 47.688C129.687 47.9173 129.748 48.1947 129.748 48.52C129.748 48.8933 129.682 49.24 129.548 49.56C129.415 49.8747 129.218 50.1493 128.956 50.384C128.695 50.6133 128.375 50.7947 127.996 50.928C127.618 51.0613 127.18 51.128 126.684 51.128C126.119 51.128 125.607 51.0373 125.148 50.856C124.69 50.6693 124.3 50.432 123.98 50.144L124.316 49.6C124.359 49.5307 124.41 49.4773 124.468 49.44C124.527 49.4027 124.604 49.384 124.7 49.384C124.796 49.384 124.898 49.4213 125.004 49.496C125.111 49.5707 125.239 49.6533 125.388 49.744C125.543 49.8347 125.727 49.9173 125.94 49.992C126.159 50.0667 126.431 50.104 126.756 50.104C127.034 50.104 127.276 50.0693 127.484 50C127.692 49.9253 127.866 49.8267 128.004 49.704C128.143 49.5813 128.244 49.44 128.308 49.28C128.378 49.12 128.412 48.9493 128.412 48.768C128.412 48.544 128.351 48.36 128.228 48.216C128.111 48.0667 127.954 47.9413 127.756 47.84C127.559 47.7333 127.332 47.6427 127.076 47.568C126.826 47.488 126.567 47.4053 126.3 47.32C126.039 47.2347 125.78 47.1387 125.524 47.032C125.274 46.92 125.05 46.7813 124.852 46.616C124.655 46.4507 124.495 46.248 124.372 46.008C124.255 45.7627 124.196 45.4667 124.196 45.12C124.196 44.8107 124.26 44.5147 124.388 44.232C124.516 43.944 124.703 43.6933 124.948 43.48C125.194 43.2613 125.495 43.088 125.852 42.96C126.21 42.832 126.618 42.768 127.076 42.768C127.61 42.768 128.087 42.8533 128.508 43.024C128.935 43.1893 129.303 43.4187 129.612 43.712L129.292 44.232Z" fill="#141821"/>
<path d="M301.874 49.912H304.338V42.096C304.338 41.8613 304.346 41.624 304.362 41.384L302.314 43.136C302.261 43.1787 302.207 43.2107 302.154 43.232C302.101 43.248 302.05 43.256 302.002 43.256C301.922 43.256 301.85 43.24 301.786 43.208C301.722 43.1707 301.674 43.128 301.642 43.08L301.194 42.464L304.602 39.512H305.762V49.912H308.018V51H301.874V49.912ZM317.659 45.272C317.659 46.2747 317.55 47.144 317.331 47.88C317.118 48.6107 316.825 49.216 316.451 49.696C316.078 50.176 315.635 50.5333 315.123 50.768C314.617 51.0027 314.073 51.12 313.491 51.12C312.905 51.12 312.358 51.0027 311.851 50.768C311.35 50.5333 310.913 50.176 310.539 49.696C310.166 49.216 309.873 48.6107 309.659 47.88C309.446 47.144 309.339 46.2747 309.339 45.272C309.339 44.2693 309.446 43.4 309.659 42.664C309.873 41.928 310.166 41.32 310.539 40.84C310.913 40.3547 311.35 39.9947 311.851 39.76C312.358 39.5253 312.905 39.408 313.491 39.408C314.073 39.408 314.617 39.5253 315.123 39.76C315.635 39.9947 316.078 40.3547 316.451 40.84C316.825 41.32 317.118 41.928 317.331 42.664C317.55 43.4 317.659 44.2693 317.659 45.272ZM316.179 45.272C316.179 44.3973 316.105 43.664 315.955 43.072C315.811 42.4747 315.614 41.9947 315.363 41.632C315.118 41.2693 314.833 41.0107 314.507 40.856C314.182 40.696 313.843 40.616 313.491 40.616C313.139 40.616 312.801 40.696 312.475 40.856C312.15 41.0107 311.865 41.2693 311.619 41.632C311.374 41.9947 311.177 42.4747 311.027 43.072C310.883 43.664 310.811 44.3973 310.811 45.272C310.811 46.1467 310.883 46.88 311.027 47.472C311.177 48.064 311.374 48.5413 311.619 48.904C311.865 49.2667 312.15 49.528 312.475 49.688C312.801 49.8427 313.139 49.92 313.491 49.92C313.843 49.92 314.182 49.8427 314.507 49.688C314.833 49.528 315.118 49.2667 315.363 48.904C315.614 48.5413 315.811 48.064 315.955 47.472C316.105 46.88 316.179 46.1467 316.179 45.272ZM326.941 45.272C326.941 46.2747 326.831 47.144 326.613 47.88C326.399 48.6107 326.106 49.216 325.733 49.696C325.359 50.176 324.917 50.5333 324.405 50.768C323.898 51.0027 323.354 51.12 322.773 51.12C322.186 51.12 321.639 51.0027 321.133 50.768C320.631 50.5333 320.194 50.176 319.821 49.696C319.447 49.216 319.154 48.6107 318.941 47.88C318.727 47.144 318.621 46.2747 318.621 45.272C318.621 44.2693 318.727 43.4 318.941 42.664C319.154 41.928 319.447 41.32 319.821 40.84C320.194 40.3547 320.631 39.9947 321.133 39.76C321.639 39.5253 322.186 39.408 322.773 39.408C323.354 39.408 323.898 39.5253 324.405 39.76C324.917 39.9947 325.359 40.3547 325.733 40.84C326.106 41.32 326.399 41.928 326.613 42.664C326.831 43.4 326.941 44.2693 326.941 45.272ZM325.461 45.272C325.461 44.3973 325.386 43.664 325.237 43.072C325.093 42.4747 324.895 41.9947 324.645 41.632C324.399 41.2693 324.114 41.0107 323.789 40.856C323.463 40.696 323.125 40.616 322.773 40.616C322.421 40.616 322.082 40.696 321.757 40.856C321.431 41.0107 321.146 41.2693 320.901 41.632C320.655 41.9947 320.458 42.4747 320.309 43.072C320.165 43.664 320.093 44.3973 320.093 45.272C320.093 46.1467 320.165 46.88 320.309 47.472C320.458 48.064 320.655 48.5413 320.901 48.904C321.146 49.2667 321.431 49.528 321.757 49.688C322.082 49.8427 322.421 49.92 322.773 49.92C323.125 49.92 323.463 49.8427 323.789 49.688C324.114 49.528 324.399 49.2667 324.645 48.904C324.895 48.5413 325.093 48.064 325.237 47.472C325.386 46.88 325.461 46.1467 325.461 45.272ZM333.078 42.304C333.078 42.752 333.009 43.1547 332.87 43.512C332.731 43.864 332.545 44.1627 332.31 44.408C332.081 44.648 331.811 44.832 331.502 44.96C331.193 45.088 330.87 45.152 330.534 45.152C330.171 45.152 329.835 45.088 329.526 44.96C329.222 44.832 328.955 44.648 328.726 44.408C328.497 44.1627 328.318 43.864 328.19 43.512C328.062 43.1547 327.998 42.752 327.998 42.304C327.998 41.8453 328.062 41.4373 328.19 41.08C328.318 40.7227 328.497 40.4213 328.726 40.176C328.955 39.9307 329.222 39.744 329.526 39.616C329.835 39.488 330.171 39.424 330.534 39.424C330.891 39.424 331.225 39.488 331.534 39.616C331.849 39.744 332.118 39.9307 332.342 40.176C332.571 40.4213 332.75 40.7227 332.878 41.08C333.011 41.4373 333.078 41.8453 333.078 42.304ZM331.966 42.304C331.966 41.952 331.929 41.6533 331.854 41.408C331.779 41.1627 331.675 40.9627 331.542 40.808C331.414 40.648 331.262 40.5333 331.086 40.464C330.915 40.3947 330.731 40.36 330.534 40.36C330.337 40.36 330.15 40.3947 329.974 40.464C329.803 40.5333 329.654 40.648 329.526 40.808C329.398 40.9627 329.297 41.1627 329.222 41.408C329.153 41.6533 329.118 41.952 329.118 42.304C329.118 42.6507 329.153 42.9467 329.222 43.192C329.297 43.432 329.398 43.6293 329.526 43.784C329.654 43.9333 329.803 44.0427 329.974 44.112C330.15 44.176 330.337 44.208 330.534 44.208C330.731 44.208 330.915 44.176 331.086 44.112C331.262 44.0427 331.414 43.9333 331.542 43.784C331.675 43.6293 331.779 43.432 331.854 43.192C331.929 42.9467 331.966 42.6507 331.966 42.304ZM337.086 39.824C337.155 39.7333 337.227 39.664 337.302 39.616C337.382 39.5627 337.486 39.536 337.614 39.536H338.638L330.262 50.768C330.209 50.8373 330.145 50.8933 330.07 50.936C329.995 50.9787 329.907 51 329.806 51H328.75L337.086 39.824ZM339.414 48.296C339.414 48.744 339.345 49.144 339.206 49.496C339.067 49.848 338.881 50.1467 338.646 50.392C338.417 50.632 338.147 50.816 337.838 50.944C337.534 51.072 337.214 51.136 336.878 51.136C336.515 51.136 336.179 51.072 335.87 50.944C335.566 50.816 335.299 50.632 335.07 50.392C334.841 50.1467 334.662 49.848 334.534 49.496C334.406 49.144 334.342 48.744 334.342 48.296C334.342 47.8373 334.406 47.4293 334.534 47.072C334.662 46.7093 334.841 46.4053 335.07 46.16C335.299 45.9147 335.566 45.728 335.87 45.6C336.179 45.472 336.515 45.408 336.878 45.408C337.235 45.408 337.569 45.472 337.878 45.6C338.187 45.728 338.457 45.9147 338.686 46.16C338.915 46.4053 339.094 46.7093 339.222 47.072C339.35 47.4293 339.414 47.8373 339.414 48.296ZM338.31 48.296C338.31 47.944 338.273 47.6453 338.198 47.4C338.123 47.1493 338.019 46.9467 337.886 46.792C337.758 46.6373 337.606 46.5253 337.43 46.456C337.259 46.3867 337.075 46.352 336.878 46.352C336.681 46.352 336.494 46.3867 336.318 46.456C336.147 46.5253 335.998 46.6373 335.87 46.792C335.742 46.9467 335.641 47.1493 335.566 47.4C335.497 47.6453 335.462 47.944 335.462 48.296C335.462 48.6427 335.497 48.936 335.566 49.176C335.641 49.416 335.742 49.6133 335.87 49.768C335.998 49.9173 336.147 50.0267 336.318 50.096C336.494 50.16 336.681 50.192 336.878 50.192C337.075 50.192 337.259 50.16 337.43 50.096C337.606 50.0267 337.758 49.9173 337.886 49.768C338.019 49.6133 338.123 49.416 338.198 49.176C338.273 48.936 338.31 48.6427 338.31 48.296Z" fill="#141821"/>
<rect x="30" y="72" width="310" height="5" rx="2.5" fill="#EAF1F8"/>
<rect x="30" y="72" width="310" height="5" rx="2.5" fill="#00CD98"/>
</svg>
