<svg width="370" height="110" viewBox="0 0 370 110" fill="none" xmlns="http://www.w3.org/2000/svg">
<rect opacity="0.7" width="370" height="110" rx="10" fill="white"/>
<rect x="26" y="25" width="60" height="60" rx="30" fill="#FFF3E1"/>
<path fill-rule="evenodd" clip-rule="evenodd" d="M47 51C47 49.3431 48.3431 48 50 48H62C63.6569 48 65 49.3431 65 51V60C65 61.6569 63.6569 63 62 63H50C48.3431 63 47 61.6569 47 60V51ZM49 60L53.5 54L58 60H49ZM63 54C63 55.6569 61.6569 57 60 57C58.3431 57 57 55.6569 57 54C57 52.3431 58.3431 51 60 51C61.6569 51 63 52.3431 63 54Z" fill="#FDAD00"/>
<path d="M107.392 46.296C106.96 46.296 106.549 46.224 106.16 46.08C105.776 45.936 105.437 45.7253 105.144 45.448C104.851 45.1653 104.616 44.8213 104.44 44.416C104.269 44.0053 104.184 43.536 104.184 43.008C104.184 42.5067 104.277 42.0373 104.464 41.6C104.651 41.1627 104.912 40.7813 105.248 40.456C105.584 40.1307 105.984 39.8747 106.448 39.688C106.912 39.5013 107.421 39.408 107.976 39.408C108.525 39.408 109.024 39.4987 109.472 39.68C109.92 39.8613 110.304 40.1147 110.624 40.44C110.944 40.7653 111.189 41.1547 111.36 41.608C111.536 42.0613 111.624 42.5627 111.624 43.112C111.624 43.4427 111.592 43.7573 111.528 44.056C111.469 44.3493 111.381 44.6373 111.264 44.92C111.147 45.2027 111.005 45.4853 110.84 45.768C110.68 46.0453 110.496 46.3333 110.288 46.632L107.496 50.664C107.427 50.7653 107.328 50.848 107.2 50.912C107.072 50.9707 106.925 51 106.76 51H105.448L108.936 46.432C109.053 46.2773 109.163 46.1307 109.264 45.992C109.365 45.8533 109.461 45.7147 109.552 45.576C109.259 45.8107 108.928 45.9893 108.56 46.112C108.192 46.2347 107.803 46.296 107.392 46.296ZM110.256 42.944C110.256 42.5867 110.197 42.264 110.08 41.976C109.968 41.6827 109.811 41.4347 109.608 41.232C109.405 41.0293 109.163 40.8747 108.88 40.768C108.603 40.656 108.296 40.6 107.96 40.6C107.608 40.6 107.285 40.6587 106.992 40.776C106.704 40.888 106.456 41.0453 106.248 41.248C106.045 41.4507 105.888 41.6933 105.776 41.976C105.664 42.2587 105.608 42.568 105.608 42.904C105.608 43.2667 105.659 43.592 105.76 43.88C105.867 44.1627 106.016 44.4027 106.208 44.6C106.405 44.7973 106.643 44.9467 106.92 45.048C107.203 45.1493 107.517 45.2 107.864 45.2C108.248 45.2 108.587 45.1387 108.88 45.016C109.179 44.888 109.429 44.72 109.632 44.512C109.835 44.304 109.989 44.064 110.096 43.792C110.203 43.52 110.256 43.2373 110.256 42.944ZM121.081 45.272C121.081 46.2747 120.972 47.144 120.753 47.88C120.54 48.6107 120.247 49.216 119.873 49.696C119.5 50.176 119.057 50.5333 118.545 50.768C118.039 51.0027 117.495 51.12 116.913 51.12C116.327 51.12 115.78 51.0027 115.273 50.768C114.772 50.5333 114.335 50.176 113.961 49.696C113.588 49.216 113.295 48.6107 113.081 47.88C112.868 47.144 112.761 46.2747 112.761 45.272C112.761 44.2693 112.868 43.4 113.081 42.664C113.295 41.928 113.588 41.32 113.961 40.84C114.335 40.3547 114.772 39.9947 115.273 39.76C115.78 39.5253 116.327 39.408 116.913 39.408C117.495 39.408 118.039 39.5253 118.545 39.76C119.057 39.9947 119.5 40.3547 119.873 40.84C120.247 41.32 120.54 41.928 120.753 42.664C120.972 43.4 121.081 44.2693 121.081 45.272ZM119.601 45.272C119.601 44.3973 119.527 43.664 119.377 43.072C119.233 42.4747 119.036 41.9947 118.785 41.632C118.54 41.2693 118.255 41.0107 117.929 40.856C117.604 40.696 117.265 40.616 116.913 40.616C116.561 40.616 116.223 40.696 115.897 40.856C115.572 41.0107 115.287 41.2693 115.041 41.632C114.796 41.9947 114.599 42.4747 114.449 43.072C114.305 43.664 114.233 44.3973 114.233 45.272C114.233 46.1467 114.305 46.88 114.449 47.472C114.599 48.064 114.796 48.5413 115.041 48.904C115.287 49.2667 115.572 49.528 115.897 49.688C116.223 49.8427 116.561 49.92 116.913 49.92C117.265 49.92 117.604 49.8427 117.929 49.688C118.255 49.528 118.54 49.2667 118.785 48.904C119.036 48.5413 119.233 48.064 119.377 47.472C119.527 46.88 119.601 46.1467 119.601 45.272ZM127.219 42.304C127.219 42.752 127.149 43.1547 127.011 43.512C126.872 43.864 126.685 44.1627 126.451 44.408C126.221 44.648 125.952 44.832 125.643 44.96C125.333 45.088 125.011 45.152 124.675 45.152C124.312 45.152 123.976 45.088 123.667 44.96C123.363 44.832 123.096 44.648 122.867 44.408C122.637 44.1627 122.459 43.864 122.331 43.512C122.203 43.1547 122.139 42.752 122.139 42.304C122.139 41.8453 122.203 41.4373 122.331 41.08C122.459 40.7227 122.637 40.4213 122.867 40.176C123.096 39.9307 123.363 39.744 123.667 39.616C123.976 39.488 124.312 39.424 124.675 39.424C125.032 39.424 125.365 39.488 125.674 39.616C125.989 39.744 126.259 39.9307 126.483 40.176C126.712 40.4213 126.891 40.7227 127.019 41.08C127.152 41.4373 127.219 41.8453 127.219 42.304ZM126.107 42.304C126.107 41.952 126.069 41.6533 125.995 41.408C125.92 41.1627 125.816 40.9627 125.683 40.808C125.555 40.648 125.403 40.5333 125.227 40.464C125.056 40.3947 124.872 40.36 124.675 40.36C124.477 40.36 124.291 40.3947 124.115 40.464C123.944 40.5333 123.795 40.648 123.667 40.808C123.539 40.9627 123.437 41.1627 123.363 41.408C123.293 41.6533 123.259 41.952 123.259 42.304C123.259 42.6507 123.293 42.9467 123.363 43.192C123.437 43.432 123.539 43.6293 123.667 43.784C123.795 43.9333 123.944 44.0427 124.115 44.112C124.291 44.176 124.477 44.208 124.675 44.208C124.872 44.208 125.056 44.176 125.227 44.112C125.403 44.0427 125.555 43.9333 125.683 43.784C125.816 43.6293 125.92 43.432 125.995 43.192C126.069 42.9467 126.107 42.6507 126.107 42.304ZM131.227 39.824C131.296 39.7333 131.368 39.664 131.443 39.616C131.523 39.5627 131.627 39.536 131.755 39.536H132.779L124.403 50.768C124.349 50.8373 124.285 50.8933 124.211 50.936C124.136 50.9787 124.048 51 123.947 51H122.891L131.227 39.824ZM133.555 48.296C133.555 48.744 133.485 49.144 133.347 49.496C133.208 49.848 133.021 50.1467 132.787 50.392C132.557 50.632 132.288 50.816 131.979 50.944C131.675 51.072 131.355 51.136 131.019 51.136C130.656 51.136 130.32 51.072 130.01 50.944C129.707 50.816 129.44 50.632 129.211 50.392C128.981 50.1467 128.803 49.848 128.675 49.496C128.547 49.144 128.483 48.744 128.483 48.296C128.483 47.8373 128.547 47.4293 128.675 47.072C128.803 46.7093 128.981 46.4053 129.211 46.16C129.44 45.9147 129.707 45.728 130.01 45.6C130.32 45.472 130.656 45.408 131.019 45.408C131.376 45.408 131.709 45.472 132.019 45.6C132.328 45.728 132.597 45.9147 132.827 46.16C133.056 46.4053 133.235 46.7093 133.363 47.072C133.491 47.4293 133.555 47.8373 133.555 48.296ZM132.451 48.296C132.451 47.944 132.413 47.6453 132.339 47.4C132.264 47.1493 132.16 46.9467 132.027 46.792C131.899 46.6373 131.747 46.5253 131.571 46.456C131.4 46.3867 131.216 46.352 131.019 46.352C130.821 46.352 130.635 46.3867 130.459 46.456C130.288 46.5253 130.139 46.6373 130.01 46.792C129.883 46.9467 129.781 47.1493 129.707 47.4C129.637 47.6453 129.602 47.944 129.602 48.296C129.602 48.6427 129.637 48.936 129.707 49.176C129.781 49.416 129.883 49.6133 130.01 49.768C130.139 49.9173 130.288 50.0267 130.459 50.096C130.635 50.16 130.821 50.192 131.019 50.192C131.216 50.192 131.4 50.16 131.571 50.096C131.747 50.0267 131.899 49.9173 132.027 49.768C132.16 49.6133 132.264 49.416 132.339 49.176C132.413 48.936 132.451 48.6427 132.451 48.296ZM139.634 42.896V48.064C139.634 48.6773 139.776 49.152 140.058 49.488C140.341 49.824 140.768 49.992 141.338 49.992C141.754 49.992 142.146 49.8933 142.514 49.696C142.882 49.4987 143.221 49.224 143.53 48.872V42.896H144.954V51H144.106C143.904 51 143.776 50.9013 143.722 50.704L143.61 49.832C143.258 50.2213 142.864 50.536 142.426 50.776C141.989 51.0107 141.488 51.128 140.922 51.128C140.48 51.128 140.088 51.056 139.746 50.912C139.41 50.7627 139.128 50.5547 138.898 50.288C138.669 50.0213 138.496 49.6987 138.378 49.32C138.266 48.9413 138.21 48.5227 138.21 48.064V42.896H139.634ZM151.933 44.232C151.869 44.3493 151.77 44.408 151.637 44.408C151.557 44.408 151.466 44.3787 151.365 44.32C151.264 44.2613 151.138 44.1973 150.989 44.128C150.845 44.0533 150.672 43.9867 150.469 43.928C150.266 43.864 150.026 43.832 149.749 43.832C149.509 43.832 149.293 43.864 149.101 43.928C148.909 43.9867 148.744 44.0693 148.605 44.176C148.472 44.2827 148.368 44.408 148.293 44.552C148.224 44.6907 148.189 44.8427 148.189 45.008C148.189 45.216 148.248 45.3893 148.365 45.528C148.488 45.6667 148.648 45.7867 148.845 45.888C149.042 45.9893 149.266 46.08 149.517 46.16C149.768 46.2347 150.024 46.3173 150.285 46.408C150.552 46.4933 150.81 46.5893 151.061 46.696C151.312 46.8027 151.536 46.936 151.733 47.096C151.93 47.256 152.088 47.4533 152.205 47.688C152.328 47.9173 152.389 48.1947 152.389 48.52C152.389 48.8933 152.322 49.24 152.189 49.56C152.056 49.8747 151.858 50.1493 151.597 50.384C151.336 50.6133 151.016 50.7947 150.637 50.928C150.258 51.0613 149.821 51.128 149.325 51.128C148.76 51.128 148.248 51.0373 147.789 50.856C147.33 50.6693 146.941 50.432 146.621 50.144L146.957 49.6C147 49.5307 147.05 49.4773 147.109 49.44C147.168 49.4027 147.245 49.384 147.341 49.384C147.437 49.384 147.538 49.4213 147.645 49.496C147.752 49.5707 147.88 49.6533 148.029 49.744C148.184 49.8347 148.368 49.9173 148.581 49.992C148.8 50.0667 149.072 50.104 149.397 50.104C149.674 50.104 149.917 50.0693 150.125 50C150.333 49.9253 150.506 49.8267 150.645 49.704C150.784 49.5813 150.885 49.44 150.949 49.28C151.018 49.12 151.053 48.9493 151.053 48.768C151.053 48.544 150.992 48.36 150.869 48.216C150.752 48.0667 150.594 47.9413 150.397 47.84C150.2 47.7333 149.973 47.6427 149.717 47.568C149.466 47.488 149.208 47.4053 148.941 47.32C148.68 47.2347 148.421 47.1387 148.165 47.032C147.914 46.92 147.69 46.7813 147.493 46.616C147.296 46.4507 147.136 46.248 147.013 46.008C146.896 45.7627 146.837 45.4667 146.837 45.12C146.837 44.8107 146.901 44.5147 147.029 44.232C147.157 43.944 147.344 43.6933 147.589 43.48C147.834 43.2613 148.136 43.088 148.493 42.96C148.85 42.832 149.258 42.768 149.717 42.768C150.25 42.768 150.728 42.8533 151.149 43.024C151.576 43.1893 151.944 43.4187 152.253 43.712L151.933 44.232ZM160.183 51H159.551C159.412 51 159.3 50.9787 159.215 50.936C159.129 50.8933 159.073 50.8027 159.047 50.664L158.887 49.912C158.673 50.104 158.465 50.2773 158.263 50.432C158.06 50.5813 157.847 50.7093 157.623 50.816C157.399 50.9173 157.159 50.9947 156.903 51.048C156.652 51.1013 156.372 51.128 156.063 51.128C155.748 51.128 155.452 51.0853 155.174 51C154.903 50.9093 154.665 50.776 154.463 50.6C154.26 50.424 154.097 50.2027 153.975 49.936C153.857 49.664 153.799 49.344 153.799 48.976C153.799 48.656 153.887 48.3493 154.062 48.056C154.239 47.7573 154.521 47.4933 154.911 47.264C155.305 47.0347 155.82 46.848 156.455 46.704C157.089 46.5547 157.865 46.4693 158.783 46.448V45.816C158.783 45.1867 158.647 44.712 158.375 44.392C158.108 44.0667 157.711 43.904 157.183 43.904C156.836 43.904 156.543 43.9493 156.303 44.04C156.068 44.1253 155.863 44.224 155.687 44.336C155.516 44.4427 155.367 44.5413 155.239 44.632C155.116 44.7173 154.993 44.76 154.871 44.76C154.775 44.76 154.689 44.736 154.615 44.688C154.545 44.6347 154.489 44.5707 154.447 44.496L154.191 44.04C154.639 43.608 155.121 43.2853 155.639 43.072C156.156 42.8587 156.729 42.752 157.359 42.752C157.812 42.752 158.215 42.8267 158.567 42.976C158.919 43.1253 159.215 43.3333 159.455 43.6C159.695 43.8667 159.876 44.1893 159.999 44.568C160.121 44.9467 160.183 45.3627 160.183 45.816V51ZM156.487 50.128C156.737 50.128 156.967 50.104 157.174 50.056C157.383 50.0027 157.577 49.9307 157.759 49.84C157.945 49.744 158.121 49.6293 158.287 49.496C158.457 49.3627 158.623 49.2107 158.783 49.04V47.352C158.127 47.3733 157.569 47.4267 157.111 47.512C156.652 47.592 156.279 47.6987 155.991 47.832C155.703 47.9653 155.492 48.1227 155.359 48.304C155.231 48.4853 155.167 48.688 155.167 48.912C155.167 49.1253 155.201 49.3093 155.271 49.464C155.34 49.6187 155.433 49.7467 155.551 49.848C155.668 49.944 155.807 50.016 155.967 50.064C156.127 50.1067 156.3 50.128 156.487 50.128ZM162.388 51V39.216H163.82V44.064C164.156 43.6747 164.54 43.3627 164.972 43.128C165.409 42.888 165.908 42.768 166.468 42.768C166.937 42.768 167.361 42.856 167.74 43.032C168.119 43.208 168.441 43.472 168.708 43.824C168.975 44.1707 169.18 44.6027 169.324 45.12C169.468 45.632 169.54 46.224 169.54 46.896C169.54 47.4933 169.46 48.0507 169.3 48.568C169.14 49.08 168.908 49.5253 168.604 49.904C168.305 50.2773 167.937 50.5733 167.5 50.792C167.068 51.0053 166.58 51.112 166.036 51.112C165.513 51.112 165.068 51.0107 164.7 50.808C164.337 50.6053 164.02 50.3227 163.748 49.96L163.676 50.696C163.633 50.8987 163.511 51 163.308 51H162.388ZM166.004 43.904C165.54 43.904 165.132 44.0107 164.78 44.224C164.433 44.4373 164.113 44.7387 163.82 45.128V49.048C164.076 49.4 164.359 49.648 164.668 49.792C164.983 49.936 165.332 50.008 165.716 50.008C166.473 50.008 167.055 49.7387 167.46 49.2C167.865 48.6613 168.068 47.8933 168.068 46.896C168.068 46.368 168.02 45.9147 167.924 45.536C167.833 45.1573 167.7 44.848 167.524 44.608C167.348 44.3627 167.132 44.184 166.876 44.072C166.62 43.96 166.329 43.904 166.004 43.904ZM172.861 42.896V51H171.437V42.896H172.861ZM173.181 40.352C173.181 40.4907 173.152 40.6213 173.093 40.744C173.04 40.8613 172.965 40.968 172.869 41.064C172.779 41.1547 172.672 41.2267 172.549 41.28C172.427 41.3333 172.296 41.36 172.157 41.36C172.019 41.36 171.888 41.3333 171.765 41.28C171.648 41.2267 171.541 41.1547 171.445 41.064C171.355 40.968 171.283 40.8613 171.229 40.744C171.176 40.6213 171.149 40.4907 171.149 40.352C171.149 40.2133 171.176 40.0827 171.229 39.96C171.283 39.832 171.355 39.7227 171.445 39.632C171.541 39.536 171.648 39.4613 171.765 39.408C171.888 39.3547 172.019 39.328 172.157 39.328C172.296 39.328 172.427 39.3547 172.549 39.408C172.672 39.4613 172.779 39.536 172.869 39.632C172.965 39.7227 173.04 39.832 173.093 39.96C173.152 40.0827 173.181 40.2133 173.181 40.352ZM176.955 39.216V51H175.531V39.216H176.955ZM181.049 42.896V51H179.625V42.896H181.049ZM181.369 40.352C181.369 40.4907 181.34 40.6213 181.281 40.744C181.228 40.8613 181.153 40.968 181.057 41.064C180.966 41.1547 180.86 41.2267 180.737 41.28C180.614 41.3333 180.484 41.36 180.345 41.36C180.206 41.36 180.076 41.3333 179.953 41.28C179.836 41.2267 179.729 41.1547 179.633 41.064C179.542 40.968 179.47 40.8613 179.417 40.744C179.364 40.6213 179.337 40.4907 179.337 40.352C179.337 40.2133 179.364 40.0827 179.417 39.96C179.47 39.832 179.542 39.7227 179.633 39.632C179.729 39.536 179.836 39.4613 179.953 39.408C180.076 39.3547 180.206 39.328 180.345 39.328C180.484 39.328 180.614 39.3547 180.737 39.408C180.86 39.4613 180.966 39.536 181.057 39.632C181.153 39.7227 181.228 39.832 181.281 39.96C181.34 40.0827 181.369 40.2133 181.369 40.352ZM186.015 51.128C185.375 51.128 184.881 50.9493 184.535 50.592C184.193 50.2347 184.023 49.72 184.023 49.048V44.088H183.047C182.961 44.088 182.889 44.064 182.831 44.016C182.772 43.9627 182.743 43.8827 182.743 43.776V43.208L184.071 43.04L184.399 40.536C184.409 40.456 184.444 40.392 184.503 40.344C184.561 40.2907 184.636 40.264 184.727 40.264H185.447V43.056H187.767V44.088H185.447V48.952C185.447 49.2933 185.529 49.5467 185.695 49.712C185.86 49.8773 186.073 49.96 186.335 49.96C186.484 49.96 186.612 49.9413 186.719 49.904C186.831 49.8613 186.927 49.816 187.007 49.768C187.087 49.72 187.153 49.6773 187.207 49.64C187.265 49.5973 187.316 49.576 187.359 49.576C187.433 49.576 187.5 49.6213 187.559 49.712L187.975 50.392C187.729 50.6213 187.433 50.8027 187.087 50.936C186.74 51.064 186.383 51.128 186.015 51.128ZM191.903 53.392C191.855 53.4987 191.794 53.584 191.719 53.648C191.65 53.712 191.541 53.744 191.391 53.744H190.335L191.815 50.528L188.471 42.896H189.703C189.826 42.896 189.922 42.928 189.991 42.992C190.061 43.0507 190.111 43.1173 190.143 43.192L192.311 48.296C192.359 48.4133 192.399 48.5307 192.431 48.648C192.469 48.7653 192.501 48.8853 192.527 49.008C192.565 48.8853 192.602 48.7653 192.639 48.648C192.677 48.5307 192.719 48.4107 192.767 48.288L194.871 43.192C194.903 43.1067 194.957 43.0373 195.031 42.984C195.111 42.9253 195.197 42.896 195.287 42.896H196.423L191.903 53.392ZM205.449 44.232C205.385 44.3493 205.286 44.408 205.153 44.408C205.073 44.408 204.982 44.3787 204.881 44.32C204.779 44.2613 204.654 44.1973 204.505 44.128C204.361 44.0533 204.187 43.9867 203.985 43.928C203.782 43.864 203.542 43.832 203.265 43.832C203.025 43.832 202.809 43.864 202.617 43.928C202.425 43.9867 202.259 44.0693 202.121 44.176C201.987 44.2827 201.883 44.408 201.809 44.552C201.739 44.6907 201.705 44.8427 201.705 45.008C201.705 45.216 201.763 45.3893 201.881 45.528C202.003 45.6667 202.163 45.7867 202.361 45.888C202.558 45.9893 202.782 46.08 203.033 46.16C203.283 46.2347 203.539 46.3173 203.801 46.408C204.067 46.4933 204.326 46.5893 204.577 46.696C204.827 46.8027 205.051 46.936 205.249 47.096C205.446 47.256 205.603 47.4533 205.721 47.688C205.843 47.9173 205.905 48.1947 205.905 48.52C205.905 48.8933 205.838 49.24 205.705 49.56C205.571 49.8747 205.374 50.1493 205.113 50.384C204.851 50.6133 204.531 50.7947 204.153 50.928C203.774 51.0613 203.337 51.128 202.841 51.128C202.275 51.128 201.763 51.0373 201.305 50.856C200.846 50.6693 200.457 50.432 200.137 50.144L200.473 49.6C200.515 49.5307 200.566 49.4773 200.625 49.44C200.683 49.4027 200.761 49.384 200.857 49.384C200.953 49.384 201.054 49.4213 201.161 49.496C201.267 49.5707 201.395 49.6533 201.545 49.744C201.699 49.8347 201.883 49.9173 202.097 49.992C202.315 50.0667 202.587 50.104 202.913 50.104C203.19 50.104 203.433 50.0693 203.641 50C203.849 49.9253 204.022 49.8267 204.161 49.704C204.299 49.5813 204.401 49.44 204.465 49.28C204.534 49.12 204.569 48.9493 204.569 48.768C204.569 48.544 204.507 48.36 204.385 48.216C204.267 48.0667 204.11 47.9413 203.913 47.84C203.715 47.7333 203.489 47.6427 203.233 47.568C202.982 47.488 202.723 47.4053 202.457 47.32C202.195 47.2347 201.937 47.1387 201.681 47.032C201.43 46.92 201.206 46.7813 201.009 46.616C200.811 46.4507 200.651 46.248 200.529 46.008C200.411 45.7627 200.353 45.4667 200.353 45.12C200.353 44.8107 200.417 44.5147 200.545 44.232C200.673 43.944 200.859 43.6933 201.105 43.48C201.35 43.2613 201.651 43.088 202.009 42.96C202.366 42.832 202.774 42.768 203.233 42.768C203.766 42.768 204.243 42.8533 204.665 43.024C205.091 43.1893 205.459 43.4187 205.769 43.712L205.449 44.232ZM213.274 44.336C213.231 44.3947 213.189 44.44 213.146 44.472C213.103 44.504 213.042 44.52 212.962 44.52C212.882 44.52 212.794 44.488 212.698 44.424C212.607 44.3547 212.49 44.28 212.346 44.2C212.202 44.12 212.026 44.048 211.818 43.984C211.615 43.9147 211.365 43.88 211.066 43.88C210.671 43.88 210.322 43.952 210.018 44.096C209.714 44.2347 209.458 44.4373 209.25 44.704C209.047 44.9707 208.893 45.2933 208.786 45.672C208.685 46.0507 208.634 46.4747 208.634 46.944C208.634 47.4347 208.69 47.872 208.802 48.256C208.914 48.6347 209.071 48.9547 209.274 49.216C209.477 49.472 209.722 49.6693 210.01 49.808C210.303 49.9413 210.631 50.008 210.994 50.008C211.341 50.008 211.626 49.968 211.85 49.888C212.074 49.8027 212.261 49.7093 212.41 49.608C212.559 49.5067 212.682 49.416 212.778 49.336C212.874 49.2507 212.97 49.208 213.066 49.208C213.189 49.208 213.279 49.2533 213.338 49.344L213.738 49.864C213.386 50.296 212.946 50.6133 212.418 50.816C211.89 51.0133 211.333 51.112 210.746 51.112C210.239 51.112 209.767 51.0187 209.33 50.832C208.898 50.6453 208.522 50.376 208.202 50.024C207.882 49.6667 207.629 49.2293 207.442 48.712C207.261 48.1947 207.17 47.6053 207.17 46.944C207.17 46.3413 207.253 45.784 207.418 45.272C207.589 44.76 207.834 44.32 208.154 43.952C208.479 43.5787 208.879 43.288 209.354 43.08C209.829 42.872 210.373 42.768 210.986 42.768C211.551 42.768 212.053 42.8613 212.49 43.048C212.927 43.2293 213.314 43.488 213.65 43.824L213.274 44.336ZM218.495 42.768C219.087 42.768 219.62 42.8667 220.095 43.064C220.575 43.2613 220.98 43.5413 221.311 43.904C221.647 44.2667 221.903 44.7067 222.079 45.224C222.26 45.736 222.351 46.3093 222.351 46.944C222.351 47.584 222.26 48.16 222.079 48.672C221.903 49.184 221.647 49.6213 221.311 49.984C220.98 50.3467 220.575 50.6267 220.095 50.824C219.62 51.016 219.087 51.112 218.495 51.112C217.903 51.112 217.367 51.016 216.887 50.824C216.412 50.6267 216.007 50.3467 215.671 49.984C215.335 49.6213 215.076 49.184 214.895 48.672C214.714 48.16 214.623 47.584 214.623 46.944C214.623 46.3093 214.714 45.736 214.895 45.224C215.076 44.7067 215.335 44.2667 215.671 43.904C216.007 43.5413 216.412 43.2613 216.887 43.064C217.367 42.8667 217.903 42.768 218.495 42.768ZM218.495 50C219.295 50 219.892 49.7333 220.287 49.2C220.682 48.6613 220.879 47.912 220.879 46.952C220.879 45.9867 220.682 45.2347 220.287 44.696C219.892 44.1573 219.295 43.888 218.495 43.888C218.09 43.888 217.738 43.9573 217.439 44.096C217.14 44.2347 216.89 44.4347 216.687 44.696C216.49 44.9573 216.34 45.28 216.239 45.664C216.143 46.0427 216.095 46.472 216.095 46.952C216.095 47.432 216.143 47.8613 216.239 48.24C216.34 48.6187 216.49 48.9387 216.687 49.2C216.89 49.456 217.14 49.6533 217.439 49.792C217.738 49.9307 218.09 50 218.495 50ZM224.106 51V42.896H224.922C225.076 42.896 225.183 42.9253 225.242 42.984C225.3 43.0427 225.34 43.144 225.362 43.288L225.458 44.552C225.735 43.9867 226.076 43.5467 226.482 43.232C226.892 42.912 227.372 42.752 227.922 42.752C228.146 42.752 228.348 42.7787 228.53 42.832C228.711 42.88 228.879 42.9493 229.034 43.04L228.85 44.104C228.812 44.2373 228.73 44.304 228.602 44.304C228.527 44.304 228.412 44.28 228.258 44.232C228.103 44.1787 227.887 44.152 227.61 44.152C227.114 44.152 226.698 44.296 226.362 44.584C226.031 44.872 225.754 45.2907 225.53 45.84V51H224.106ZM233.767 42.768C234.252 42.768 234.7 42.8507 235.111 43.016C235.521 43.176 235.876 43.4107 236.175 43.72C236.473 44.024 236.705 44.4027 236.871 44.856C237.041 45.304 237.127 45.816 237.127 46.392C237.127 46.616 237.103 46.7653 237.055 46.84C237.007 46.9147 236.916 46.952 236.783 46.952H231.391C231.401 47.464 231.471 47.9093 231.599 48.288C231.727 48.6667 231.903 48.984 232.127 49.24C232.351 49.4907 232.617 49.68 232.927 49.808C233.236 49.9307 233.583 49.992 233.967 49.992C234.324 49.992 234.631 49.952 234.887 49.872C235.148 49.7867 235.372 49.696 235.559 49.6C235.745 49.504 235.9 49.416 236.023 49.336C236.151 49.2507 236.26 49.208 236.351 49.208C236.468 49.208 236.559 49.2533 236.623 49.344L237.023 49.864C236.847 50.0773 236.636 50.264 236.391 50.424C236.145 50.5787 235.881 50.7067 235.599 50.808C235.321 50.9093 235.033 50.984 234.735 51.032C234.436 51.0853 234.14 51.112 233.847 51.112C233.287 51.112 232.769 51.0187 232.295 50.832C231.825 50.64 231.417 50.3627 231.071 50C230.729 49.632 230.463 49.1787 230.271 48.64C230.079 48.1013 229.983 47.4827 229.983 46.784C229.983 46.2187 230.068 45.6907 230.239 45.2C230.415 44.7093 230.665 44.2853 230.991 43.928C231.316 43.5653 231.713 43.2827 232.183 43.08C232.652 42.872 233.18 42.768 233.767 42.768ZM233.799 43.816C233.111 43.816 232.569 44.016 232.175 44.416C231.78 44.8107 231.535 45.36 231.439 46.064H235.847C235.847 45.7333 235.801 45.432 235.711 45.16C235.62 44.8827 235.487 44.6453 235.311 44.448C235.135 44.2453 234.919 44.0907 234.663 43.984C234.412 43.872 234.124 43.816 233.799 43.816Z" fill="#141821"/>
<rect x="103" y="72" width="228" height="5" rx="2.5" fill="#EAF1F8"/>
<rect x="103" y="72" width="183" height="5" rx="2.5" fill="#FDAD00"/>
</svg>
