<svg width="153" height="40" viewBox="0 0 153 40" fill="none" xmlns="http://www.w3.org/2000/svg">
<path d="M45.5797 9.61667H40.0412V6.97333H54.2146V9.61667H48.6761V23.6641H45.5797V9.61667ZM65.7194 18.2768H55.6747C56.0271 20.1145 57.588 21.2977 59.8033 21.2977C60.4416 21.3271 61.0788 21.2211 61.6732 20.9868C62.2676 20.7525 62.8057 20.3952 63.2523 19.9383L64.8635 21.776C63.7054 23.1355 61.918 23.8404 59.7278 23.8404C55.4481 23.8404 52.6789 21.0963 52.6789 17.2949C52.6789 13.4936 55.5488 10.825 59.325 10.825C63.0509 10.825 65.7697 13.418 65.7697 17.3956L65.7194 18.3019V18.2768ZM55.6495 16.288H62.8998C62.6733 14.4502 61.2635 13.1915 59.2999 13.1915C58.4176 13.1598 57.5556 13.4604 56.8843 14.0338C56.213 14.6071 55.7813 15.4116 55.6747 16.288H55.6495ZM66.3739 17.3201C66.3739 13.4936 69.2187 10.825 73.2718 10.825C75.7389 10.825 77.7277 11.832 78.7095 13.7705L76.3935 15.1047C75.6382 13.8964 74.5054 13.3425 73.2466 13.3425C71.0312 13.3425 69.3697 14.853 69.3697 17.3201C69.3697 19.8124 71.0312 21.2977 73.2466 21.2977C74.5054 21.2977 75.6382 20.7439 76.3935 19.5355L78.7095 20.8697C77.7025 22.7578 75.7389 23.8404 73.2718 23.8404C69.2438 23.8404 66.3739 21.1467 66.3739 17.3201ZM92.5052 16.3887V23.6893H89.5346V16.7914C89.5346 14.5257 88.4269 13.418 86.5137 13.418C84.3738 13.418 82.9389 14.7019 82.9389 17.2446V23.6893H79.9683V5.99151H82.9389V12.4362C83.9207 11.3789 85.4312 10.7999 87.1934 10.7999C90.2395 10.7999 92.5052 12.5621 92.5052 16.3887ZM108.642 17.3201C108.642 21.2977 105.873 23.8655 102.172 23.8655C100.536 23.8655 99.1262 23.3117 98.094 22.1536V28.3214H95.1234V10.9509H97.943V12.6125C98.95 11.4041 100.435 10.7999 102.172 10.7999C103.038 10.7635 103.902 10.9086 104.708 11.2257C105.515 11.5428 106.246 12.025 106.855 12.6412C107.464 13.2575 107.938 13.9944 108.246 14.8044C108.554 15.6145 108.689 16.48 108.642 17.3453V17.3201ZM105.621 17.3201C105.621 14.8782 103.985 13.3425 101.845 13.3425C99.68 13.3425 98.0688 14.9033 98.0688 17.3201C98.0688 19.7369 99.68 21.2977 101.845 21.2977C104.01 21.2977 105.621 19.7369 105.621 17.3201ZM109.246 17.3201C109.246 13.4936 112.091 10.825 115.993 10.825C119.971 10.825 122.79 13.5187 122.79 17.3201C122.79 21.1467 119.971 23.8655 115.993 23.8655C112.091 23.8655 109.246 21.1467 109.246 17.3201ZM119.82 17.3201C119.82 14.8782 118.183 13.3425 116.018 13.3425C113.879 13.3425 112.242 14.9033 112.242 17.3201C112.242 19.7369 113.879 21.2977 116.018 21.2977C118.183 21.2977 119.795 19.7369 119.795 17.3201H119.82ZM124.074 7.04885C124.074 6.04186 124.88 5.28662 125.962 5.28662C127.045 5.28662 127.876 6.04186 127.876 6.9985C127.876 8.03066 127.095 8.86143 125.962 8.86143C124.88 8.86143 124.074 8.08101 124.074 7.07402V7.04885ZM124.477 10.9509H127.448V23.6641H124.477V10.9509ZM142.754 16.3887V23.6893H139.733V16.7914C139.733 14.5257 138.625 13.418 136.712 13.418C134.597 13.418 133.162 14.7019 133.162 17.2446V23.6893H130.167V10.9509H132.986V12.6125C133.539 12.0095 134.218 11.5365 134.976 11.2275C135.733 10.9184 136.55 10.781 137.367 10.825C140.438 10.7999 142.704 12.5369 142.704 16.3887H142.754ZM153 23.0096C152.162 23.5997 151.154 23.9002 150.13 23.8655C147.361 23.8655 145.75 22.355 145.75 19.5607V13.418H143.635V11.0768H145.75V8.15653H148.72V11.0768H152.144V13.4432H148.72V19.5103C148.72 20.769 149.35 21.4236 150.483 21.4236C151.112 21.4236 151.716 21.2474 152.169 20.8949L153 23.0096Z" fill="#404040"/>
<path d="M127.146 32.3244V33.6838H125.685V32.3244H127.146ZM132.734 33.5579L132.483 33.6838L132.231 33.7593L132.08 33.7845H131.979C131.863 33.7862 131.747 33.7648 131.639 33.7215C131.531 33.6783 131.433 33.6142 131.35 33.5327L131.148 33.281C131.073 33.1803 131.048 33.0796 130.997 32.9537C130.753 33.2376 130.453 33.4688 130.116 33.6334L129.713 33.7593C129.336 33.8379 128.944 33.8118 128.581 33.6838C128.379 33.6083 128.203 33.4824 128.027 33.3565C127.874 33.2166 127.753 33.0447 127.674 32.853C127.574 32.6516 127.548 32.425 127.548 32.1733C127.548 31.9719 127.574 31.7957 127.674 31.6446C127.766 31.4749 127.895 31.3285 128.052 31.2167L128.581 30.9398L129.185 30.7132L129.814 30.5369L130.318 30.3356C130.455 30.2711 130.583 30.1863 130.695 30.0838C130.796 30.0083 130.846 29.9076 130.846 29.8069C130.855 29.7019 130.83 29.5969 130.776 29.5065C130.722 29.4162 130.641 29.3452 130.544 29.3034C130.469 29.2782 130.368 29.2279 130.242 29.2279L129.915 29.2027L129.588 29.2279L129.285 29.3789C129.21 29.4293 129.134 29.53 129.084 29.6307C129.009 29.7314 128.983 29.8572 128.958 29.9831H127.699C127.709 29.7003 127.787 29.424 127.926 29.1775C128.055 28.9495 128.229 28.7496 128.436 28.5896C128.644 28.4297 128.881 28.3128 129.134 28.2461C129.386 28.1705 129.638 28.1202 129.89 28.1202C130.192 28.1202 130.469 28.1705 130.746 28.2209C131.023 28.2964 131.249 28.3971 131.45 28.5481C131.652 28.6992 131.803 28.8502 131.929 29.0516C132.055 29.3034 132.105 29.5551 132.105 29.8572V32.4754C132.105 32.5509 132.13 32.6013 132.181 32.6768C132.231 32.7523 132.281 32.7523 132.382 32.7523H132.483C132.533 32.7523 132.659 32.702 132.734 32.6264V33.5327V33.5579ZM130.821 31.0908C130.746 31.1411 130.645 31.1915 130.494 31.2167L130.091 31.3425L129.613 31.4684L129.185 31.6446C129.059 31.695 128.958 31.7705 128.883 31.846C128.807 31.9216 128.782 32.0474 128.782 32.1481C128.782 32.2488 128.782 32.3495 128.832 32.3999C128.883 32.5006 128.908 32.5509 128.983 32.6013L129.185 32.7271H129.386C129.638 32.7271 129.89 32.6516 130.141 32.5006C130.393 32.3495 130.645 32.0726 130.846 31.7453V31.0908H130.821ZM133.59 28.2712V27.1887C133.59 27.0125 133.616 26.8615 133.691 26.7356C133.766 26.5836 133.872 26.449 134.002 26.3406C134.132 26.2322 134.283 26.1523 134.446 26.1062C134.69 26.0265 134.947 26.0007 135.202 26.0307L135.453 26.0559C135.554 26.0559 135.655 26.1062 135.781 26.1566L136.208 26.3076V27.3146L135.781 27.1635L135.504 27.088L135.327 27.0628H135.252L135.101 27.088L134.975 27.1635C134.925 27.1887 134.899 27.2391 134.899 27.2894C134.849 27.3146 134.849 27.3901 134.849 27.4405V28.2209H135.856V29.2782H134.849V33.6586H133.59V29.2782H132.734V28.2461L133.59 28.2712ZM136.208 28.2712H137.14L137.341 28.9258C137.492 28.674 137.669 28.4726 137.845 28.3468C138.021 28.2209 138.222 28.1705 138.424 28.1705L138.751 28.1957L139.255 28.3971V29.5048L138.902 29.3789L138.676 29.3286H138.474C138.298 29.3286 138.172 29.3286 138.046 29.4041L137.719 29.6558C137.545 29.897 137.456 30.1894 137.467 30.4866V33.7341H136.183V28.2712H136.208ZM140.74 26.2573V27.516H139.481V26.2573H140.74ZM140.74 28.2712V33.6838H139.481V28.2712H140.74ZM144.894 30.2097C144.793 29.8572 144.667 29.5803 144.516 29.4293C144.34 29.253 144.139 29.1775 143.862 29.1775C143.685 29.1775 143.509 29.2279 143.358 29.3286C143.207 29.4293 143.081 29.5551 142.955 29.7062C142.743 30.0645 142.63 30.4729 142.628 30.8894C142.628 31.1411 142.678 31.3929 142.729 31.5943C142.821 31.9903 143.043 32.3445 143.358 32.6013C143.509 32.7271 143.685 32.7775 143.862 32.7775C143.987 32.7775 144.113 32.7523 144.239 32.6768C144.365 32.6013 144.466 32.5257 144.541 32.425C144.642 32.2992 144.718 32.1733 144.768 32.0223L144.894 31.5439H146.203C146.152 31.8964 146.077 32.2236 145.951 32.5006C145.839 32.7657 145.674 33.0051 145.466 33.2042C145.259 33.4033 145.012 33.558 144.743 33.6586C144.199 33.8529 143.606 33.8617 143.056 33.6838C142.616 33.5424 142.235 33.259 141.973 32.8782C141.848 32.702 141.722 32.5006 141.646 32.2992C141.466 31.8605 141.38 31.3887 141.394 30.9146C141.394 30.5118 141.445 30.1593 141.571 29.8069C141.697 29.4796 141.873 29.1775 142.074 28.9258C142.301 28.674 142.578 28.4978 142.855 28.3719C143.47 28.1077 144.164 28.0896 144.793 28.3216C145.045 28.4223 145.271 28.5733 145.473 28.7496C145.649 28.9258 145.825 29.1523 145.951 29.4041C146.077 29.6558 146.152 29.9076 146.203 30.2097H144.894ZM151.766 33.5579L151.49 33.6838L151.263 33.7593L151.112 33.7845H150.986C150.87 33.7862 150.754 33.7648 150.646 33.7215C150.538 33.6783 150.44 33.6142 150.357 33.5327L150.155 33.281L150.004 32.9537C149.767 33.2349 149.476 33.466 149.148 33.6334L148.72 33.7593C148.351 33.8332 147.969 33.8072 147.613 33.6838C147.361 33.6083 147.21 33.4824 147.059 33.3565C146.897 33.2193 146.767 33.0472 146.681 32.853C146.606 32.6516 146.555 32.425 146.555 32.1733C146.555 31.9719 146.606 31.7957 146.706 31.6446C146.798 31.4749 146.927 31.3285 147.084 31.2167L147.587 30.9398C147.814 30.8391 147.99 30.7635 148.217 30.7132L148.821 30.5369L149.324 30.3356C149.471 30.2734 149.607 30.1884 149.727 30.0838C149.803 30.0083 149.878 29.9076 149.878 29.8069C149.885 29.6989 149.857 29.5917 149.798 29.501C149.739 29.4103 149.652 29.341 149.551 29.3034C149.476 29.2782 149.375 29.2279 149.249 29.2279L148.922 29.2027L148.594 29.2279C148.494 29.253 148.393 29.3034 148.318 29.3789C148.217 29.4293 148.141 29.53 148.091 29.6307C148.041 29.7314 147.99 29.8572 147.99 29.9831H146.706C146.716 29.7003 146.794 29.424 146.933 29.1775C147.062 28.9495 147.235 28.7496 147.443 28.5896C147.65 28.4297 147.888 28.3128 148.141 28.2461C148.393 28.1705 148.645 28.1202 148.922 28.1202C149.224 28.1202 149.501 28.1705 149.778 28.2209C150.029 28.2964 150.281 28.3971 150.457 28.5481C150.634 28.6992 150.835 28.8502 150.961 29.0516C151.062 29.3034 151.112 29.5551 151.112 29.8572V32.4754C151.112 32.5509 151.137 32.6013 151.187 32.6768C151.238 32.7523 151.313 32.7523 151.389 32.7523H151.515C151.59 32.7523 151.666 32.702 151.766 32.6264V33.5327V33.5579ZM149.828 31.0908L149.526 31.2167L149.098 31.3425L148.645 31.4684L148.217 31.6446C148.091 31.695 147.965 31.7705 147.915 31.846C147.864 31.9216 147.789 32.0474 147.789 32.1481C147.789 32.2488 147.789 32.3495 147.839 32.3999L147.99 32.6013L148.192 32.7271H148.418C148.67 32.7271 148.922 32.6516 149.173 32.5006C149.425 32.3495 149.652 32.0726 149.853 31.7453V31.0908H149.828Z" fill="#969696"/>
<path d="M32.4889 22.9871C32.4889 30.5909 27.0185 37.214 19.5259 38.6902C17.4312 39.1285 15.2704 39.1476 13.1683 38.7464C11.0662 38.3453 9.06433 37.5318 7.27822 36.353C5.49211 35.1741 3.95712 33.6533 2.76183 31.8781C1.56653 30.103 0.734596 28.1087 0.314022 26.0104C-1.16226 18.8717 2.68012 11.4498 9.45483 8.35569C10.0716 8.05234 10.0716 8.05234 10.2638 8.75004C10.83 10.8229 11.376 12.916 11.9726 14.9787C12.0737 15.3225 12.0434 15.4944 11.6996 15.6865C10.2257 16.5855 9.05946 17.9108 8.35528 19.487C7.65111 21.0633 7.44216 22.8163 7.7561 24.5139C8.09002 26.2641 8.95904 27.8676 10.2432 29.1028C11.5273 30.3381 13.1633 31.1442 14.9252 31.41C19.7989 32.1481 24.3289 28.6798 24.8446 23.796C25.0512 21.6531 24.4442 19.5109 23.1441 17.7949C21.844 16.079 19.946 14.9148 17.8272 14.5338C17.3317 14.463 16.8464 14.3923 16.3509 14.3923C16.1487 14.3923 16.0475 14.3417 16.0071 14.1193L14.1567 7.29398C14.0353 6.87941 14.3791 6.98052 14.5308 6.98052C15.6923 6.83266 16.8679 6.83266 18.0294 6.98052C21.9729 7.44565 25.34 9.0736 28.0701 11.9554C30.9105 14.9203 32.4908 18.871 32.4788 22.9769L32.4889 22.9871Z" fill="#969696"/>
<path d="M10.6884 22.5418C10.739 21.015 11.5985 19.4578 13.277 18.3557C13.5399 18.1838 13.5904 18.0321 13.5196 17.7389C12.6096 14.392 11.6996 11.045 10.8098 7.6678C10.7564 7.4621 10.6261 7.28474 10.4457 7.17233L8.66612 6.21174C8.56326 6.16434 8.47251 6.09421 8.40069 6.00663C8.32888 5.91905 8.27788 5.81632 8.25155 5.70616C7.91787 4.45234 7.60441 3.24906 7.26062 2.02557C7.1595 1.73234 7.26062 1.66156 7.53363 1.53011C7.95831 1.38855 8.24144 1.45933 8.59534 1.75256C9.23237 2.31881 9.91995 2.8446 10.5873 3.38051C10.9614 3.68386 11.1839 3.60297 11.3558 3.17828L12.3669 0.54929C12.4681 0.306613 13.1253 -0.0371784 13.3478 0.00326766C13.4691 0.0336022 13.4691 0.15494 13.4994 0.256056L14.5308 4.09843C14.5502 4.19001 14.5513 4.28453 14.5339 4.37652C14.5166 4.46851 14.4811 4.55614 14.4297 4.63434C14.0657 5.23092 13.7219 5.81739 13.3478 6.38364C13.2884 6.47369 13.2511 6.57645 13.2388 6.68359C13.2265 6.79074 13.2396 6.89928 13.277 7.00044L16.0071 17.1018C16.0779 17.3647 16.179 17.4659 16.4722 17.4659C17.857 17.5024 19.1786 18.0526 20.1803 19.0094C21.182 19.9662 21.7921 21.2613 21.892 22.643C21.9863 24.0531 21.5402 25.4463 20.6443 26.5394C19.7484 27.6324 18.47 28.3434 17.0688 28.5279C13.6915 29.0334 10.6884 26.4348 10.6884 22.5418Z" fill="#959595"/>
</svg>
