<svg width="170" height="52" viewBox="0 0 170 52" fill="none" xmlns="http://www.w3.org/2000/svg">
<path d="M38.5379 41.5818C35.4535 44.6819 31.521 46.7949 27.2383 47.6532C22.9555 48.5115 18.5151 48.0766 14.479 46.4034C10.4429 44.7303 6.99275 41.8941 4.56517 38.254C2.1376 34.614 0.841797 30.3336 0.841797 25.9548C0.841797 21.576 2.1376 17.2957 4.56517 13.6556C6.99275 10.0155 10.4429 7.17937 14.479 5.50622C18.5151 3.83306 22.9555 3.3981 27.2383 4.25641C31.521 5.11471 35.4535 7.22768 38.5379 10.3278L23.1871 19.2881V32.6187L38.5379 41.5818Z" fill="white"/>
<path d="M61.0688 3.83863V48.0686C61.0687 48.7425 60.8914 49.4044 60.5548 49.9877C60.2182 50.5709 59.7341 51.0549 59.1514 51.3908C58.5688 51.7267 57.9081 51.9026 57.236 51.9009C56.5638 51.8991 55.9041 51.7198 55.3231 51.3809L38.5381 41.582C42.6644 37.4335 44.9816 31.8138 44.9816 25.955C44.9816 20.0963 42.6644 14.4766 38.5381 10.3281L55.3231 0.526379C55.9041 0.187469 56.5638 0.00810179 57.236 0.00636046C57.9081 0.00461913 58.5688 0.180565 59.1514 0.516461C59.7341 0.852357 60.2182 1.33633 60.5548 1.91959C60.8914 2.50284 61.0687 3.16477 61.0688 3.83863V3.83863Z" fill="#00CEDE"/>
<path d="M23.1874 14.5435H23.1846C16.8986 14.5435 11.8027 19.6525 11.8027 25.9548V25.9576C11.8027 32.26 16.8986 37.369 23.1846 37.369H23.1874C29.4734 37.369 34.5692 32.26 34.5692 25.9576V25.9548C34.5692 19.6525 29.4734 14.5435 23.1874 14.5435Z" fill="#00CEDE"/>
<path d="M80.8281 33.8217C80.0576 33.8369 79.2923 33.692 78.5799 33.3961C77.8676 33.1002 77.2236 32.6597 76.6882 32.102C75.6055 30.9794 75 29.4768 75 27.9126C75 26.3485 75.6055 24.8458 76.6882 23.7233C77.2235 23.1655 77.8675 22.7248 78.5798 22.4288C79.2922 22.1329 80.0576 21.9881 80.8281 22.0036C81.888 21.9922 82.9295 22.2819 83.8331 22.8394C84.7183 23.3798 85.4404 24.1527 85.9219 25.075L83.7681 26.1929C83.4778 25.671 83.0556 25.2355 82.5443 24.9306C82.0236 24.6067 81.4231 24.4363 80.811 24.4387C80.3643 24.431 79.9208 24.5169 79.5088 24.691C79.0968 24.8651 78.7253 25.1236 78.418 25.4499C77.7902 26.1115 77.4399 26.9911 77.4399 27.9058C77.4399 28.8204 77.7902 29.7 78.418 30.3616C78.7253 30.6879 79.0968 30.9464 79.5088 31.1205C79.9208 31.2946 80.3643 31.3805 80.811 31.3728C81.4303 31.3792 82.0389 31.2112 82.5682 30.8878C83.0868 30.5745 83.5083 30.1219 83.7852 29.5808L85.9561 30.6986C85.4749 31.6326 84.7491 32.4164 83.857 32.9653C82.9494 33.5359 81.8983 33.8331 80.8281 33.8217V33.8217Z" fill="white"/>
<path d="M86.2158 33.6565L90.8207 22.1548H93.3539L98.0066 33.6565H95.3606L94.6256 31.7682H89.5797L88.8618 33.6565H86.2158ZM90.3489 29.567H93.8599L92.1129 24.9305H92.0924L90.3489 29.567Z" fill="white"/>
<path d="M108.228 33.6566H105.599L103.64 29.6323H101.5V33.6566H99.1309V22.1548H104.095C105.101 22.1319 106.078 22.4932 106.83 23.1661C107.208 23.5088 107.506 23.932 107.703 24.4048C107.899 24.8777 107.988 25.3886 107.965 25.9005C107.988 26.6308 107.789 27.3509 107.394 27.9642C107.02 28.5345 106.494 28.9874 105.876 29.2712L108.228 33.6566ZM101.5 24.277V27.5618H103.852C104.305 27.5783 104.747 27.4153 105.083 27.1077C105.239 26.957 105.362 26.7745 105.444 26.5723C105.525 26.3701 105.563 26.1528 105.554 25.9349C105.563 25.7128 105.526 25.4913 105.444 25.2847C105.363 25.078 105.24 24.8906 105.083 24.7345C104.916 24.5792 104.721 24.4587 104.508 24.3802C104.295 24.3017 104.068 24.2666 103.842 24.277H101.5Z" fill="white"/>
<path d="M109.551 33.6564V22.1547H113.974C114.959 22.1434 115.932 22.3649 116.815 22.8013C117.69 23.2474 118.42 23.9345 118.921 24.7825C119.48 25.7242 119.763 26.8056 119.738 27.9021C119.749 28.7445 119.588 29.5802 119.266 30.358C118.981 31.0524 118.548 31.6757 117.998 32.1843C117.464 32.6648 116.843 33.0384 116.169 33.285C115.466 33.5429 114.723 33.6733 113.974 33.6702L109.551 33.6564ZM111.944 31.2901H113.868C114.778 31.3293 115.668 31.0237 116.364 30.4336C117.009 29.8604 117.333 29.0142 117.335 27.8953C117.335 26.7809 117.01 25.9347 116.364 25.3672C115.669 24.7792 114.78 24.4737 113.872 24.5108L111.947 24.528L111.944 31.2901Z" fill="white"/>
<path d="M123.643 33.6565V24.277H119.934V22.1548H129.748V24.277H126.043V33.6565H123.643Z" fill="white"/>
<path d="M135.789 33.8217C135.019 33.8369 134.253 33.692 133.541 33.3961C132.829 33.1002 132.185 32.6596 131.649 32.1019C130.566 30.9794 129.961 29.4768 129.961 27.9126C129.961 26.3485 130.566 24.8458 131.649 23.7233C132.191 23.177 132.835 22.7436 133.544 22.4479C134.253 22.1522 135.013 22 135.781 22C136.548 22 137.308 22.1522 138.017 22.4479C138.726 22.7436 139.37 23.177 139.912 23.7233C140.997 24.8445 141.604 26.3477 141.604 27.9126C141.604 29.4776 140.997 30.9807 139.912 32.1019C139.38 32.6592 138.739 33.0996 138.029 33.3956C137.32 33.6915 136.557 33.8366 135.789 33.8217V33.8217ZM135.789 31.4553C136.245 31.4648 136.698 31.3779 137.118 31.2001C137.539 31.0224 137.918 30.7578 138.23 30.4235C138.865 29.7394 139.218 28.8383 139.218 27.9023C139.218 26.9663 138.865 26.0652 138.23 25.3811C137.912 25.0572 137.533 24.8 137.116 24.6244C136.698 24.4489 136.25 24.3585 135.798 24.3585C135.345 24.3585 134.897 24.4489 134.48 24.6244C134.062 24.8 133.683 25.0572 133.365 25.3811C132.73 26.0652 132.377 26.9663 132.377 27.9023C132.377 28.8383 132.73 29.7394 133.365 30.4235C133.672 30.7558 134.045 31.0201 134.46 31.1996C134.874 31.379 135.321 31.4696 135.772 31.4656L135.789 31.4553Z" fill="white"/>
<path d="M143.105 33.6565V22.1548H145.799L150.78 29.7802V22.1548H153.173V33.6565H150.462L145.499 26.0483V33.6565H143.105Z" fill="white"/>
<path d="M155.156 33.6565V22.1548H157.549V33.6565H155.156Z" fill="white"/>
<path d="M164.871 33.8219C164.1 33.8379 163.335 33.6934 162.622 33.3974C161.91 33.1015 161.266 32.6605 160.731 32.1021C159.648 30.9796 159.043 29.4769 159.043 27.9128C159.043 26.3486 159.648 24.846 160.731 23.7234C161.266 23.1649 161.91 22.7238 162.622 22.4278C163.335 22.1318 164.1 21.9874 164.871 22.0037C165.918 21.9966 166.947 22.2794 167.846 22.8211C168.744 23.3628 169.477 24.1426 169.965 25.0752L167.808 26.193C167.517 25.6711 167.095 25.2357 166.584 24.9307C166.063 24.6116 165.464 24.446 164.854 24.4526C164.407 24.4449 163.964 24.5308 163.552 24.7049C163.14 24.879 162.768 25.1375 162.461 25.4638C161.832 26.1246 161.48 27.0045 161.48 27.9196C161.48 28.8348 161.832 29.7147 162.461 30.3755C162.768 30.7018 163.14 30.9603 163.552 31.1344C163.964 31.3085 164.407 31.3944 164.854 31.3867C165.472 31.3935 166.08 31.2255 166.608 30.9017C167.127 30.5894 167.549 30.1365 167.825 29.5947L169.999 30.7125C169.517 31.6458 168.791 32.4294 167.9 32.9792C166.991 33.545 165.94 33.8374 164.871 33.8219V33.8219Z" fill="white"/>
</svg>
